<svg width="140" height="46" viewBox="0 0 140 46" fill="none" xmlns="http://www.w3.org/2000/svg">
<path fill-rule="evenodd" clip-rule="evenodd" d="M25.0363 0.578661C25.5971 1.13529 25.6345 2.43411 25.5223 12.5648C25.4102 23.4749 25.3728 23.9944 24.5503 25.7385C23.2791 28.5588 21.4098 30.5256 18.7927 31.8986C15.5775 33.6056 11.5771 33.8654 8.21234 32.6037C1.52014 30.1174 -1.88204 22.139 1.0715 15.7562C2.30526 13.0844 4.54846 10.6723 7.09074 9.33637C8.73575 8.44576 9.37132 8.33444 12.6987 8.33444C16.1757 8.33444 16.5869 8.40865 18.8301 9.52192C20.1387 10.1899 21.3724 10.7465 21.5593 10.7465C21.7089 10.7465 21.8584 8.51999 21.8584 5.81103C21.8584 2.47123 22.008 0.727099 22.3071 0.430227C22.9426 -0.200625 24.3259 -0.126409 25.0363 0.578661ZM101.492 0.727111C102.613 1.84038 102.501 3.80715 101.268 4.77198C99.9964 5.77392 99.1365 5.73682 97.9401 4.69777C96.6316 3.62161 96.5194 1.61771 97.7532 0.652877C98.8374 -0.237737 100.557 -0.200612 101.492 0.727111ZM114.951 0.504444C115.699 1.46928 115.25 2.73098 113.867 3.36183C112.11 4.17823 111.586 5.03173 111.586 7.10983V8.89107H112.895C114.128 8.89107 115.699 9.893 115.699 10.6723C115.699 11.4887 114.615 12.1938 113.269 12.3051L111.773 12.4164L111.661 22.3987C111.624 29.0041 111.437 32.5666 111.175 32.9005C110.652 33.5314 108.745 33.5314 108.334 32.9005C108.184 32.6779 107.96 27.9279 107.848 22.4358L107.661 12.4164L106.726 12.3051C106.203 12.2309 105.567 11.9711 105.343 11.7856C104.184 10.8578 105.268 8.89107 106.95 8.89107C107.81 8.89107 107.848 8.77974 107.848 6.47898C107.848 3.2134 108.521 2.02592 110.951 0.875545C113.194 -0.126396 114.278 -0.237735 114.951 0.504444ZM46.3093 8.92817C49.0385 9.93011 51.8425 12.4906 53.151 15.1254C54.1604 17.2035 54.1978 17.389 54.31 24.8479C54.4221 31.7502 54.3848 32.4552 53.7866 32.9005C52.3659 33.9025 50.6461 33.049 50.6461 31.3049C50.6461 30.4142 50.1227 30.1174 49.7114 30.7853C49.5619 31.008 48.5898 31.6388 47.543 32.1955C45.8232 33.0861 45.1877 33.1974 41.8603 33.1974C37.4486 33.1974 35.4671 32.4552 32.7005 29.6721C29.9713 26.9631 29.1488 24.9592 29.1488 20.7659C29.1488 17.6488 29.261 16.9808 30.1956 15.1254C31.4668 12.5277 34.3082 9.93011 36.9252 8.92817C39.5797 7.92623 43.6174 7.88912 46.3093 8.92817ZM72.7416 10.3012C74.0127 11.7113 74.1996 13.7523 73.1902 15.1996C72.8163 15.7191 70.1993 19.0589 67.3953 22.6214C64.5539 26.1838 62.2359 29.2268 62.2359 29.3752C62.2359 29.5236 64.7034 29.6721 67.6944 29.6721C70.7227 29.6721 73.4519 29.8576 73.8632 30.0432C74.6857 30.4885 74.8352 32.2326 74.1249 32.9377C73.8258 33.2345 71.5826 33.383 66.5354 33.383C59.5815 33.383 59.3572 33.3458 58.6094 32.5295C57.6 31.4533 57.2635 30.34 57.7122 29.2639C57.8991 28.7815 60.7405 24.9592 64.0679 20.803C67.3579 16.6097 69.975 13.0844 69.8628 12.8988C69.7506 12.7504 67.4701 12.602 64.8156 12.602C62.1238 12.602 59.6189 12.4164 59.2076 12.2309C58.273 11.7113 58.2356 9.81879 59.1702 9.26215C59.5441 9.0395 62.049 8.92818 65.7129 8.96529L71.6573 9.07662L72.7416 10.3012ZM91.8087 10.3012C92.5938 11.1918 92.8929 11.8598 92.8929 12.9359C92.8929 14.5316 92.8929 14.5687 86.0138 23.178C83.4341 26.4436 81.3031 29.2268 81.3031 29.3752C81.3031 29.5607 83.7706 29.6721 86.7615 29.6721C89.7898 29.6721 92.519 29.8576 92.9303 30.0432C93.7528 30.4885 93.9024 32.2326 93.192 32.9377C92.8929 33.2345 90.6497 33.383 85.6025 33.383C78.6486 33.383 78.4243 33.3458 77.6766 32.5295C76.6671 31.4533 76.3307 30.34 76.7793 29.2639C76.9662 28.7815 79.8076 24.9592 83.135 20.803C86.425 16.6468 89.0421 13.0844 88.9299 12.8988C88.8178 12.7504 86.5372 12.602 83.8827 12.602C81.1909 12.602 78.686 12.4164 78.2748 12.2309C77.3401 11.7113 77.3027 9.81879 78.2374 9.26215C78.6113 9.0395 81.1161 8.92818 84.78 8.96529L90.7245 9.07662L91.8087 10.3012ZM100.632 9.4477C101.38 9.96723 101.417 10.3012 101.567 19.1702C101.716 27.7424 101.791 28.5217 102.576 30.5998C103.698 33.4201 105.044 35.3497 107.362 37.5392C109.567 39.543 111.474 40.5821 114.465 41.3614C121.008 43.0684 128.41 40.5079 132.336 35.1642C133.906 33.0861 135.439 29.8576 135.065 29.4865C134.953 29.3752 134.13 29.635 133.233 30.0432C131.177 30.9338 128.074 31.008 125.569 30.1545C123.101 29.3381 120.148 26.4065 119.325 23.9573C118.428 21.3597 118.391 10.3383 119.288 9.4848C120.073 8.66841 121.157 8.74264 122.054 9.63326C122.727 10.3012 122.802 10.8578 122.802 16.1273C122.802 22.5472 123.064 23.6975 124.971 25.2932C128.373 28.1135 133.196 27.1487 135.102 23.2893C135.813 21.8421 135.887 20.9886 135.887 15.9418C135.887 11.1547 136 10.1528 136.523 9.55902C137.271 8.74262 138.43 8.70552 139.327 9.52192C139.925 10.0786 140 10.8578 140 18.5023C140 28.0022 139.626 30.4885 137.682 34.422C136.187 37.4278 131.775 41.9922 128.896 43.5137C126.279 44.8867 121.718 46 118.727 46C109.306 45.9629 100.894 39.5802 98.2766 30.4142C97.8653 28.967 97.641 25.9612 97.4915 19.9495C97.2672 10.1157 97.3793 9.41059 99.6225 8.92817C99.7347 8.92817 100.183 9.15083 100.632 9.4477ZM11.1373 12.1599C4.44507 13.8669 1.94017 21.8082 6.5761 26.5953C8.85668 28.9702 11.885 29.9351 14.8759 29.2671C21.5681 27.7827 24.1104 19.693 19.4371 14.8688C17.2687 12.6052 13.8291 11.4919 11.1373 12.1599ZM33.0871 20.5796C33.0871 16.7203 35.6668 13.3063 39.3681 12.3043C43.518 11.154 47.6679 13.0094 49.7615 16.9801C50.7336 18.8355 50.6962 22.6577 49.6494 24.5874C45.3125 32.7142 33.0871 29.7826 33.0871 20.5796Z" fill="#3FD6A6"/>
</svg>
