<svg width="200" height="178" viewBox="0 0 200 178" fill="none" xmlns="http://www.w3.org/2000/svg">
<ellipse opacity="0.1" cx="90.2188" cy="94.6214" rx="68.9649" ry="68.9651" fill="#B47FF0"/>
<path fill-rule="evenodd" clip-rule="evenodd" d="M95.2666 89.377C98.2632 88.527 101.437 88.2387 104.788 88.5114C104.788 86.7803 104.788 85.0492 104.788 83.318C106.504 83.0211 107.659 83.5985 108.25 85.0492C107.104 83.8806 106.238 84.0252 105.653 85.4819C106.342 86.4271 106.92 87.4372 107.384 88.5114C106.238 88.9494 105.661 90.1032 105.653 91.9736C105.365 91.9736 105.076 91.9736 104.788 91.9736C104.788 91.1081 104.788 90.2425 104.788 89.377C101.614 89.377 98.4406 89.377 95.2666 89.377Z" fill="#4B108D"/>
<path fill-rule="evenodd" clip-rule="evenodd" d="M19.0966 93.7043C26.5984 93.7043 34.0993 93.7043 41.6011 93.7043C41.454 92.56 41.7422 91.5499 42.4667 90.6748C44.4661 90.2446 46.4855 90.1009 48.5256 90.242C48.3724 88.0946 49.238 86.508 51.1223 85.4814C55.7297 85.0495 60.3457 84.905 64.9713 85.0487C62.1513 85.6295 59.2663 86.3505 56.3157 87.2126C58.7444 90.8981 57.5906 92.9175 52.8534 93.2715C53.7328 93.7207 54.3093 94.4426 54.5845 95.4354C53.2048 98.4519 52.6284 101.626 52.8534 104.957C56.893 104.957 60.9317 104.957 64.9713 104.957C64.8276 98.8907 64.9713 92.8318 65.404 86.7798C65.8368 93.6982 65.9805 100.623 65.8368 107.553C61.1784 106.066 56.2741 105.345 51.1223 105.389C49.6578 104.177 49.0804 102.59 49.3912 100.629C47.0654 100.771 44.757 100.626 42.4667 100.196C41.7422 99.3209 41.454 98.3108 41.6011 97.1665C31.5026 97.1665 21.405 97.1665 11.3065 97.1665C6.05255 96.3884 2.44576 93.5035 0.487 88.5109C0.0542192 59.0836 -0.0903293 29.6546 0.0542193 0.223785C1.19849 0.0766373 2.2086 0.364868 3.08368 1.08934C3.37191 30.2301 3.66101 59.3701 3.94924 88.5109C5.03206 91.0046 6.90686 92.5912 9.57539 93.2715C12.7364 93.7034 15.9096 93.8471 19.0966 93.7043Z" fill="#4B108D"/>
<path fill-rule="evenodd" clip-rule="evenodd" d="M64.9719 85.0477C65.2497 83.7078 66.1153 83.1305 67.5686 83.3166C68.1216 91.7359 67.5443 99.8141 65.8374 107.552C65.9811 100.622 65.8374 93.6972 65.4047 86.7788C64.9719 92.8308 64.8282 98.8897 64.9719 104.956C60.9323 104.956 56.8936 104.956 52.854 104.956C52.629 101.625 53.2054 98.4509 54.5851 95.4344C54.3099 94.4416 53.7334 93.7197 52.854 93.2705C57.5912 92.9165 58.745 90.8971 56.3163 87.2116C59.267 86.3495 62.1519 85.6285 64.9719 85.0477Z" fill="#4B108D"/>
<path fill-rule="evenodd" clip-rule="evenodd" d="M62.3779 115.344C63.2556 114.25 64.5539 113.673 66.273 113.613C67.5713 113.902 68.8696 114.191 70.168 114.479C67.6336 115.331 65.0369 115.619 62.3779 115.344Z" fill="#4B108D"/>
<path fill-rule="evenodd" clip-rule="evenodd" d="M66.707 125.731C67.5501 123.007 69.2812 121.42 71.9004 120.971C70.8107 123.331 69.0795 124.919 66.707 125.731Z" fill="#4B108D"/>
<path fill-rule="evenodd" clip-rule="evenodd" d="M76.2256 130.06C76.2256 127.463 76.2256 124.866 76.2256 122.27C77.0911 122.27 77.9567 122.27 78.8223 122.27C78.8223 124.866 78.8223 127.463 78.8223 130.06C77.9567 130.06 77.0911 130.06 76.2256 130.06Z" fill="#4B108D"/>
<path fill-rule="evenodd" clip-rule="evenodd" d="M98.7302 68.6035C98.4558 65.9445 98.7441 63.3478 99.5958 60.8135C99.884 62.1118 100.173 63.4102 100.461 64.7085C100.402 66.4275 99.8252 67.7258 98.7302 68.6035Z" fill="#4B108D"/>
<path fill-rule="evenodd" clip-rule="evenodd" d="M95.2666 98.8981C98.7288 98.8981 102.191 98.8981 105.653 98.8981C105.885 100.282 105.596 101.436 104.788 102.36C101.614 102.36 98.4406 102.36 95.2666 102.36C95.2666 101.207 95.2666 100.052 95.2666 98.8981Z" fill="#B47FF0"/>
<path fill-rule="evenodd" clip-rule="evenodd" d="M95.2666 87.8034C98.7288 87.8034 102.191 87.8034 105.653 87.8034C105.885 89.1874 105.596 90.3412 104.788 91.2656C101.614 91.2656 98.4406 91.2656 95.2666 91.2656C95.2666 90.1118 95.2666 88.9572 95.2666 87.8034Z" fill="#B47FF0"/>
<path fill-rule="evenodd" clip-rule="evenodd" d="M104.79 71.2002C105.817 68.7186 107.549 66.6993 109.983 65.1413C110.867 65.5758 111.012 66.1523 110.416 66.8724C108.723 68.6451 106.847 70.0871 104.79 71.2002Z" fill="#4B108D"/>
<path fill-rule="evenodd" clip-rule="evenodd" d="M106.521 77.2605C107.399 76.1656 108.698 75.5891 110.417 75.5294C111.715 75.8176 113.013 76.1067 114.312 76.3949C111.777 77.2466 109.18 77.5349 106.521 77.2605Z" fill="#4B108D"/>
<path fill-rule="evenodd" clip-rule="evenodd" d="M104.79 102.359C105.598 101.435 105.888 100.281 105.656 98.8971C105.656 96.5887 105.656 94.2811 105.656 91.9727C105.663 90.1022 106.241 88.9484 107.387 88.5104C106.922 87.4363 106.345 86.4261 105.656 85.481C106.241 84.0242 107.106 83.8797 108.252 85.0482C110.68 85.7571 113.277 86.1898 116.042 86.3465C118.494 88.2222 120.947 90.097 123.4 91.9727C121.668 96.0391 121.813 100.078 123.832 104.09C123.736 104.625 123.448 105.057 122.967 105.389C116.801 105.529 110.742 106.25 104.79 107.553C104.79 105.822 104.79 104.09 104.79 102.359Z" fill="#4B108D"/>
<path fill-rule="evenodd" clip-rule="evenodd" d="M108.25 85.0485C112.876 84.9048 117.492 85.0494 122.099 85.4813C123.531 86.7312 124.109 88.3186 123.83 90.2419C125.87 90.1008 127.89 90.2445 129.889 90.6746C131.034 91.3809 131.611 92.391 131.62 93.7041C131.62 94.8579 131.62 96.0126 131.62 97.1663C131.741 98.572 131.164 99.5813 129.889 100.196C127.89 100.626 125.87 100.77 123.83 100.629C123.83 101.782 123.83 102.937 123.83 104.091C121.811 100.078 121.666 96.0394 123.397 91.973C120.945 90.0973 118.492 88.2225 116.04 86.3468C113.275 86.1902 110.678 85.7574 108.25 85.0485Z" fill="#4B108D"/>
<path fill-rule="evenodd" clip-rule="evenodd" d="M131.621 97.1678C131.621 96.014 131.621 94.8594 131.621 93.7056C137.392 93.7056 143.162 93.7056 148.932 93.7056C156.251 93.1066 161.589 95.9915 164.945 102.361C165.233 124.288 165.523 146.217 165.811 168.144C167.373 171.297 169.825 173.316 173.168 174.203C182.291 174.499 191.236 175.364 200 176.799C190.342 177.803 180.532 177.947 170.571 177.232C166.33 175.586 163.589 172.556 162.348 168.144C162.06 146.217 161.771 124.288 161.483 102.361C160.57 100.149 158.983 98.7059 156.722 98.0334C148.512 97.173 140.145 96.8848 131.621 97.1678Z" fill="#4B108D"/>
</svg>
