<svg width="24" height="24" viewBox="0 0 24 24" fill="none" xmlns="http://www.w3.org/2000/svg">
<g id="Frame 45">
<g id="Group 26">
<g id="Group 21">
<circle id="Ellipse 32" cx="7.76471" cy="10.4994" r="3.52941" stroke="#8292A1" stroke-width="0.470588"/>
<path id="Arrow 1" d="M14.3702 5C14.3702 4.84406 14.2438 4.71765 14.0878 4.71765H11.5466C11.3907 4.71765 11.2643 4.84406 11.2643 5C11.2643 5.15594 11.3907 5.28235 11.5466 5.28235H13.8055V7.54118C13.8055 7.69712 13.9319 7.82353 14.0878 7.82353C14.2438 7.82353 14.3702 7.69712 14.3702 7.54118V5ZM10.9599 8.52721L14.2875 5.19965L13.8882 4.80035L10.5606 8.12791L10.9599 8.52721Z" fill="#8292A1"/>
</g>
<g id="Group 24">
<g id="Group 22">
<circle id="Ellipse 32_2" cx="16.2354" cy="12.8524" r="3.52941" stroke="#8292A1" stroke-width="0.470588"/>
</g>
<g id="Group 23">
<line id="Line 17" x1="16.5177" y1="16.2941" x2="16.5177" y2="19.5882" stroke="#8292A1" stroke-width="0.564706"/>
<line id="Line 18" x1="14.8237" y1="18.3177" x2="18.1178" y2="18.3177" stroke="#8292A1" stroke-width="0.564706"/>
</g>
</g>
</g>
</g>
</svg>
