<svg width="151" height="150" viewBox="0 0 151 150" fill="none" xmlns="http://www.w3.org/2000/svg">
<path d="M113.285 36.5504C112.661 34.8194 111.967 33.1004 111.206 31.4294C109.691 28.1039 109.343 24.9524 107.215 22.1714" stroke="#B47FF0" stroke-width="1.086" stroke-miterlimit="10"/>
<path d="M102.281 18.9838C100.449 17.1208 98.7364 15.1183 95.6239 13.6228C89.0464 10.4728 80.6359 10.1533 69.9004 14.6083" stroke="#B47FF0" stroke-width="1.086" stroke-miterlimit="10"/>
<path d="M24.7673 141.072C14.3648 126.367 11.0003 109.743 12.7388 92.7405" stroke="#B47FF0" stroke-width="1.086" stroke-miterlimit="10"/>
<path d="M119.138 68.6836V68.8651C119.036 72.1651 122.085 85.8451 130.734 90.1906C139.383 94.5361 145.55 113.61 126.05 121.094C106.55 128.577 107.612 141.072 107.612 141.072" stroke="#B47FF0" stroke-width="1.086" stroke-miterlimit="10"/>
<path d="M69.899 28.7324V12.5713C69.8963 11.4611 69.454 10.3971 68.6689 9.61197C67.8838 8.82689 66.8198 8.38461 65.7095 8.38184H12.1895C11.0792 8.38461 10.0152 8.82689 9.23014 9.61197C8.44505 10.3971 8.00278 11.4611 8 12.5713V88.5613C8.00198 89.671 8.4443 90.7345 9.22982 91.5184C10.0153 92.3022 11.0798 92.7423 12.1895 92.7418H65.7095C66.2287 92.7451 66.7435 92.6461 67.2245 92.4508" stroke="black" stroke-width="1.086" stroke-linecap="round" stroke-linejoin="round"/>
<path d="M64.2774 10.9424H13.6224C11.5555 10.9424 9.87988 12.618 9.87988 14.6849V86.4464C9.87988 88.5134 11.5555 90.1888 13.6224 90.1888H64.2774C66.3444 90.1888 68.0199 88.5134 68.0199 86.4464V14.6849C68.0199 12.618 66.3444 10.9424 64.2774 10.9424Z" fill="#4B108D"/>
<path d="M63.3607 17.0742H15.1747C14.1409 17.0742 13.3027 17.9124 13.3027 18.9462V30.0402C13.3027 31.0742 14.1409 31.9122 15.1747 31.9122H63.3607C64.3947 31.9122 65.2327 31.0742 65.2327 30.0402V18.9462C65.2327 17.9124 64.3947 17.0742 63.3607 17.0742Z" fill="#4B108D"/>
<path d="M38.9495 23.3236C39.797 23.3236 40.484 22.6366 40.484 21.7891C40.484 20.9416 39.797 20.2546 38.9495 20.2546C38.102 20.2546 37.415 20.9416 37.415 21.7891C37.415 22.6366 38.102 23.3236 38.9495 23.3236Z" fill="#D7E8F0"/>
<path d="M34.6611 28.7326C34.6611 27.5951 35.1129 26.5043 35.9172 25.7002C36.7214 24.8959 37.8122 24.4441 38.9496 24.4441C40.0871 24.4441 41.1777 24.8959 41.982 25.7002C42.7863 26.5043 43.2381 27.5951 43.2381 28.7326H34.6611Z" fill="#D7E8F0"/>
<path d="M39.2613 47.8107C37.6254 47.8098 36.0259 48.2941 34.6653 49.2025C33.3046 50.1108 32.2441 51.4023 31.6176 52.9135C30.9912 54.4248 30.8271 56.0878 31.146 57.6924C31.4649 59.2969 32.2525 60.7708 33.4093 61.9276C34.5661 63.0844 36.04 63.8721 37.6446 64.191C39.2491 64.51 40.9122 64.3458 42.4234 63.7194C43.9347 63.093 45.2262 62.0323 46.1344 60.6717C47.0428 59.311 47.5272 57.7117 47.5263 56.0757C47.5251 53.884 46.6539 51.7825 45.1042 50.2329C43.5544 48.6831 41.4529 47.8119 39.2613 47.8107ZM39.2613 62.3472C38.9412 62.3472 38.6343 62.2201 38.4079 61.9938C38.1817 61.7674 38.0545 61.4605 38.0545 61.1404C38.0545 60.8205 38.1817 60.5134 38.4079 60.2872C38.6343 60.0609 38.9412 59.9337 39.2613 59.9337C39.5814 59.9337 39.8883 60.0609 40.1146 60.2872C40.3408 60.5134 40.468 60.8205 40.468 61.1404C40.468 61.4605 40.3408 61.7674 40.1146 61.9938C39.8883 62.2201 39.5814 62.3472 39.2613 62.3472ZM40.7928 53.0472C40.5333 54.8382 40.3143 56.7267 39.7878 58.4682C39.6588 58.8822 38.8728 58.8822 38.7378 58.4682C38.3604 57.1575 38.0709 55.8229 37.8708 54.4737C37.7088 53.4927 37.1343 51.9057 37.6848 50.9487C38.1633 50.0982 39.5238 49.9932 40.3098 50.4387C41.2863 50.9997 40.9053 52.1622 40.7928 53.0532V53.0472Z" fill="#D7E8F0"/>
<path d="M18.4951 38.5365H58.8736" stroke="white" stroke-width="1.086" stroke-miterlimit="10"/>
<path d="M18.4951 42.5098H58.8736" stroke="white" stroke-width="1.086" stroke-miterlimit="10"/>
<path d="M18.4951 68.1046H58.8736" stroke="white" stroke-width="1.086" stroke-miterlimit="10"/>
<path d="M27.875 71.8635H49.4945" stroke="white" stroke-width="1.086" stroke-miterlimit="10"/>
<path d="M22.7852 96.4798C22.7852 96.4798 29.9702 67.9288 52.3487 60.9553L61.4447 58.7848C61.4447 58.7848 62.8832 52.3603 62.3537 51.6853C61.8242 51.0103 60.7367 49.6273 58.7447 49.9273C56.7527 50.2273 51.6032 50.3234 50.2847 44.0279C48.9662 37.7323 53.8382 22.7683 66.4997 20.5303C79.1612 18.2923 79.4567 27.5893 79.4567 27.5893L70.1567 49.1398L71.5997 66.5248L71.7812 92.4223L22.7852 96.4798Z" fill="white"/>
<path d="M100.118 74.4244C99.9676 74.4679 98.0536 75.0244 97.3006 76.3504C97.1572 76.0468 96.9304 75.7903 96.6468 75.6108C96.3631 75.4312 96.0343 75.3361 95.6986 75.3363H73.2211C72.8212 75.3357 72.4328 75.4708 72.1198 75.7195C71.8066 75.9684 71.5873 76.3161 71.4976 76.7058L67.0711 95.6854C66.7711 95.6269 66.4711 95.5909 66.1591 95.5609L55.7131 92.9539C55.2651 92.8414 54.7911 92.9001 54.384 93.1185C53.9767 93.3367 53.6656 93.699 53.5111 94.1343C53.4415 94.3297 53.407 94.536 53.4091 94.7433C53.4091 95.2144 53.5878 95.668 53.9089 96.0127C54.2302 96.3573 54.6701 96.5673 55.1401 96.6004L60.0796 96.9183C55.3216 99.1578 49.5331 103.424 44.7016 107.343C40.0006 99.9828 44.4121 92.6239 47.7301 88.6609C47.3026 84.2929 45.1366 74.1513 34.3291 74.4273C38.0521 69.6528 42.6946 65.5609 48.4471 62.8218C68.1511 84.6619 90.6931 66.8058 91.1716 66.4218C94.5425 68.6208 97.5592 71.3203 100.118 74.4273" fill="#2E2E2E"/>
<path d="M98.0705 137.076V140.85H32.999V135.504C35.534 135.654 38.201 135.054 40.6265 133.961C43.697 132.563 46.349 130.391 48.617 127.913C50.9495 125.348 52.2305 121.791 53.717 118.698C55.949 114.041 58.9055 110.723 63.5975 109.317L63.2975 110.607C63.2374 110.867 63.2365 111.137 63.295 111.397C63.3535 111.657 63.4699 111.9 63.6355 112.109C63.8011 112.318 64.0117 112.487 64.2515 112.603C64.4915 112.719 64.7545 112.78 65.021 112.781H87.611C87.161 116.681 85.2635 137.981 98.0705 137.081" fill="#2E2E2E"/>
<path d="M87.622 37.8195C87.6038 39.8375 87.3409 41.8455 86.839 43.8C86.6101 44.7267 86.1185 45.5675 85.4236 46.2218C84.7286 46.8761 83.8597 47.3159 82.921 47.4885C82.8835 46.1265 82.3045 44.931 81.421 44.1885C81.5017 43.0355 81.4901 41.8778 81.3865 40.7265C81.328 39.966 81.2365 39.2565 81.1405 38.619C81.0833 38.2562 81.0007 37.8978 80.893 37.5465C80.5915 37.2227 80.2363 36.9531 79.843 36.75C78.4525 35.967 75.5905 35.1345 70.288 36.3585C69.4222 36.5568 68.6077 36.9344 67.897 37.467C67.8812 37.4769 67.8671 37.4889 67.855 37.503C67.3765 37.944 66.7675 38.502 66.1375 38.7915C65.485 39.0915 64.804 39.1035 64.2325 38.394C64.2175 38.379 64.21 38.3655 64.1965 38.3505C63.8965 37.959 63.61 37.4505 63.0805 37.35C61.9645 37.14 61.4215 38.25 61.2805 39.183C61.1575 40.0455 61.411 40.806 61.7815 41.5305C62.0918 42.1196 62.4973 42.6533 62.9815 43.11C63.1058 43.2303 63.2197 43.3607 63.322 43.5C63.2755 43.5083 63.2297 43.5209 63.1855 43.5375C63.0829 43.572 62.9827 43.6131 62.8855 43.6605C61.5355 44.268 60.574 45.7905 60.553 47.5725C60.553 47.628 58.2895 47.595 58.003 47.5725C56.899 47.4705 55.8115 47.1525 55.0345 46.32C52.8295 43.9575 52.84 40.452 53.746 37.71C54.604 35.1075 55.696 32.5665 57.127 30.225C60.2275 25.158 65.038 21.42 71.128 21.084C72.5885 21.0107 74.0525 21.0962 75.4945 21.339C76.1768 21.4466 76.8517 21.5969 77.515 21.789C83.7235 24.498 87.664 30.639 87.628 37.8195" fill="#2E2E2E"/>
<path d="M84.0262 95.5845C83.2927 97.467 81.5467 98.544 80.1262 97.9845C78.7057 97.425 78.1477 95.457 78.8797 93.5745C79.6117 91.692 81.3592 90.6135 82.7797 91.1745C84.2002 91.7355 84.7597 93.7035 84.0262 95.586" fill="#4B108D"/>
<path d="M87.8001 112.396C87.8001 112.396 83.8161 140.169 99.7521 137.091C115.601 134.026 121.6 69.549 75.7236 60.276" stroke="black" stroke-width="1.086" stroke-miterlimit="10"/>
<path d="M50.489 85.6593C50.489 85.6593 37.631 96.503 44.5595 107.348" stroke="black" stroke-width="1.086" stroke-miterlimit="10"/>
<path d="M88.0896 104.682C87.8691 104.696 87.5541 104.549 87.3396 104.49C87.0676 104.418 86.7981 104.341 86.5311 104.259C84.9646 103.772 83.4907 103.026 82.1706 102.051C81.8706 101.837 81.3366 101.699 80.9706 101.84C80.7669 101.915 80.587 102.043 80.4498 102.211C80.3125 102.379 80.223 102.581 80.1906 102.795C80.0781 103.569 80.6241 104.327 81.2196 104.823C81.9261 105.414 82.6596 105.959 83.5161 106.313C84.3429 106.645 85.1958 106.907 86.0661 107.097C86.4606 107.189 86.8611 107.247 87.2526 107.348" stroke="black" stroke-width="1.086" stroke-miterlimit="10"/>
<path d="M93.0242 97.1683C93.1862 98.0233 93.3047 98.9113 93.2237 99.7798C93.1562 100.515 92.8922 101.373 92.0747 101.551C91.9193 101.592 91.758 101.607 91.5977 101.595C88.5197 101.413 85.9832 100.35 83.0867 98.2558C80.1902 96.1618 79.1702 100.984 81.8162 101.839" stroke="black" stroke-width="1.086" stroke-miterlimit="10"/>
<path d="M81.9271 105.405C81.856 105.347 81.7885 105.284 81.7246 105.218C80.2831 103.71 80.0221 106.739 81.5356 107.63L81.7306 107.745C81.8326 107.789 81.9421 107.84 82.0501 107.895C82.1011 107.909 82.1581 107.931 82.2106 107.946M82.2106 107.946C83.5786 108.546 85.0351 108.93 86.4691 109.322C85.0501 108.858 83.6356 108.402 82.2106 107.946ZM82.2106 107.946C82.0876 107.895 81.9706 107.844 81.8476 107.786C81.8098 107.77 81.7707 107.758 81.7306 107.75C81.7051 107.738 81.6771 107.733 81.6492 107.736C81.6213 107.739 81.5946 107.748 81.5716 107.765C81.5374 107.793 81.5124 107.83 81.4996 107.873C81.2671 108.431 81.4561 109.134 81.7531 109.634C82.0651 110.162 82.6006 110.568 83.1286 110.858C84.5491 111.654 86.2006 112.125 87.7951 112.407C88.0909 112.468 88.3939 112.488 88.6951 112.466" stroke="black" stroke-width="1.086" stroke-miterlimit="10"/>
<path d="M101.558 115.902C101.558 115.902 96.6697 107.571 96.1252 100.327C95.7922 95.8438 94.4752 94.8943 93.5332 94.8298" stroke="black" stroke-width="1.086" stroke-miterlimit="10"/>
<path d="M92.0746 101.55L93.0256 97.1685L93.5326 94.8285L97.2916 77.4795C97.3474 77.2212 97.3445 76.9537 97.2835 76.6965C97.2223 76.4394 97.1045 76.1992 96.9385 75.9936C96.7726 75.7879 96.5627 75.6219 96.3242 75.5079C96.0859 75.3939 95.8249 75.3346 95.5606 75.3345H73.0816C72.6818 75.3342 72.2936 75.4693 71.9806 75.7182C71.6675 75.9669 71.4481 76.3144 71.3581 76.704L66.9316 95.685L63.7006 109.534L63.4006 110.832C63.3409 111.092 63.3404 111.361 63.3994 111.621C63.4582 111.881 63.5747 112.125 63.7405 112.333C63.9061 112.542 64.1167 112.71 64.3565 112.827C64.5962 112.943 64.8592 113.003 65.1256 113.004H87.7141" stroke="black" stroke-width="1.086" stroke-miterlimit="10"/>
<path d="M64.2051 37.8948C64.2051 37.8948 65.3946 32.8503 72.1116 32.1813C78.8286 31.5123 80.5116 36.5313 80.5116 36.5313L80.3001 37.0368C80.3001 37.0368 71.4696 33.4938 66.5931 38.5503C66.5931 38.5503 64.8366 39.3468 64.2051 37.8978" fill="#4B108D"/>
<path d="M66.0168 95.5604L55.5693 92.9504C55.3202 92.8888 55.0608 92.8796 54.8079 92.9234C54.555 92.9674 54.314 93.0634 54.1001 93.2054C53.8863 93.3475 53.7044 93.5326 53.5658 93.7487C53.4273 93.9649 53.3354 94.2075 53.2956 94.4611C53.256 94.7148 53.2695 94.974 53.3354 95.2221C53.4012 95.4702 53.5179 95.7019 53.6781 95.9024C53.8383 96.103 54.0386 96.2681 54.266 96.3872C54.4935 96.5062 54.7433 96.5767 54.9993 96.594L59.9388 96.9194" stroke="black" stroke-width="1.086" stroke-miterlimit="10"/>
<path d="M91.0371 66.4144C91.0371 66.4144 68.2176 84.9004 48.3066 62.8218" stroke="black" stroke-width="1.086" stroke-miterlimit="10"/>
<path d="M47.5911 88.6575C47.1636 84.2895 44.9991 74.1405 34.1826 74.424" stroke="black" stroke-width="1.086" stroke-miterlimit="10"/>
<path d="M99.9811 74.4211C99.9811 74.4211 97.9426 74.9821 97.1611 76.3531" stroke="black" stroke-width="1.086" stroke-miterlimit="10"/>
<path d="M17.168 141.075H114.054" stroke="black" stroke-width="1.086" stroke-miterlimit="10"/>
<path d="M81.42 44.1943C82.3335 44.9623 82.92 46.2163 82.92 47.6353C82.92 49.9903 81.2835 51.8953 79.2615 51.8953C79.0328 51.8941 78.8049 51.8674 78.582 51.8158C80.937 50.0158 81.414 44.1943 81.414 44.1943" fill="#4B108D"/>
<path d="M68.0993 53.7004C69.2345 54.2653 70.4768 54.5827 71.7439 54.6316C73.0109 54.6805 74.2739 54.4597 75.4493 53.9839C82.0763 51.2164 81.8228 43.0594 81.1343 38.6254C81.0794 38.2657 81.0013 37.9099 80.9003 37.5604V37.5529C80.1398 35.0179 78.1553 32.9524 75.5408 32.3659C70.4768 31.2214 65.8463 34.0924 63.9248 37.9579" stroke="black" stroke-width="1.086" stroke-miterlimit="10"/>
<path d="M80.9627 37.6397C80.9627 37.6397 80.9417 37.6097 80.8982 37.5602V37.5527C80.4482 37.0457 77.8427 34.6262 70.3007 36.3647C69.4354 36.5625 68.6212 36.9402 67.9112 37.4732C67.8944 37.4828 67.8793 37.4949 67.8662 37.5092" stroke="black" stroke-width="1.086" stroke-miterlimit="10"/>
<path d="M60.8601 49.9276H57.1296C54.4371 49.9276 52.3026 47.4616 51.3741 45.1471C50.0691 41.8921 50.9046 38.5606 52.0791 35.3971C53.0631 32.7496 54.3141 30.1771 55.9596 27.8746C59.6436 22.7221 65.2056 19.8031 71.5986 20.3431C72.1656 20.3911 72.7301 20.461 73.2921 20.5531C81.8766 21.9451 87.6651 29.1226 87.6216 37.8151C87.6036 39.8344 87.3408 41.8441 86.8386 43.8001C86.6078 44.7261 86.1156 45.5661 85.4207 46.2201C84.7257 46.8741 83.8574 47.3143 82.9191 47.4886" stroke="black" stroke-width="1.086" stroke-miterlimit="10"/>
<path d="M63.3248 43.5C63.2221 43.3605 63.1082 43.2295 62.9843 43.1085C62.4998 42.6525 62.0942 42.1192 61.7843 41.5305C61.4138 40.806 61.1603 40.0455 61.2833 39.183C61.4213 38.256 61.9643 37.14 63.0833 37.35C63.6128 37.452 63.8948 37.959 64.1993 38.3505C65.3573 39.8505 66.9518 38.343 67.9298 37.437" stroke="black" stroke-width="1.086" stroke-miterlimit="10"/>
<path d="M81.42 44.1943C82.3335 44.9623 82.92 46.2163 82.92 47.6353C82.92 49.9903 81.2835 51.8953 79.2615 51.8953C79.0328 51.8941 78.8049 51.8674 78.582 51.8158" stroke="black" stroke-width="1.086" stroke-miterlimit="10"/>
<path d="M73.5918 47.0853C74.4108 47.6358 76.3893 48.0873 75.9918 46.4553C75.5148 44.5218 74.8728 40.3908 78.8043 40.0758C78.8043 40.0758 80.5353 40.1493 81.3903 40.7373" stroke="black" stroke-width="1.086" stroke-miterlimit="10"/>
<path d="M75.0723 50.3175C75.0723 50.3175 73.0923 51.3675 72.1113 49.275" stroke="black" stroke-width="1.086" stroke-miterlimit="10"/>
<path d="M71.0573 42.9001C70.9808 43.5646 71.2403 44.1391 71.6378 44.1856C72.0353 44.2321 72.4193 43.7356 72.4973 43.0666C72.5753 42.3976 72.3128 41.8291 71.9168 41.7826C71.5208 41.7361 71.1338 42.2326 71.0573 42.9001Z" fill="black"/>
<path d="M77.5036 43.2915C77.4271 43.9545 77.6866 44.5305 78.0841 44.577C78.4816 44.6235 78.8656 44.127 78.9421 43.458C79.0186 42.789 78.7591 42.219 78.3631 42.174C77.9671 42.129 77.5801 42.624 77.5036 43.2915Z" fill="black"/>
<path d="M73.5923 40.5002C73.5923 40.5002 72.3803 38.6312 69.6338 40.4042" stroke="black" stroke-width="1.086" stroke-miterlimit="10"/>
<path d="M75.7217 53.8605V64.2285" stroke="black" stroke-width="1.086" stroke-miterlimit="10"/>
<path d="M34.7334 115.902C34.7334 115.902 39.0069 111.852 44.5569 107.352C49.3884 103.433 55.1829 99.159 59.9424 96.921C60.5514 96.6375 61.1424 96.384 61.7169 96.171C63.0877 95.6486 64.5589 95.4434 66.0204 95.571C66.3264 95.5962 66.6308 95.6372 66.9324 95.694" stroke="black" stroke-width="1.086" stroke-miterlimit="10"/>
<path d="M63.7014 109.535C59.0079 110.94 56.0514 114.258 53.8209 118.916C52.3374 122.009 51.0534 125.565 48.7209 128.13C46.4544 130.607 43.8024 132.78 40.7319 134.178C35.1609 136.713 28.3014 136.518 24.6819 131.006C22.2339 127.268 21.2709 122.624 20.7819 118.256C19.9419 110.664 22.5939 89.2652 34.1829 74.4227C37.9059 69.6482 42.5499 65.5562 48.3009 62.8172C52.3374 60.9002 56.9004 59.6462 62.0724 59.2907L63.5214 51.8162" stroke="black" stroke-width="1.086" stroke-miterlimit="10"/>
<path d="M98.1738 137.328V141.075" stroke="black" stroke-width="1.086" stroke-miterlimit="10"/>
<path d="M33.1025 135.99V141.075" stroke="black" stroke-width="1.086" stroke-miterlimit="10"/>
<path d="M67.8591 47.6357C67.8734 48.7603 67.4741 49.8508 66.7371 50.7002C66.3239 50.8913 65.8739 50.99 65.4187 50.9897C63.3982 50.9897 61.7601 49.0847 61.7601 46.7297C61.7456 45.6053 62.1457 44.515 62.8837 43.6667C63.2966 43.4746 63.7466 43.3753 64.2021 43.3757C66.2226 43.3757 67.8591 45.2822 67.8591 47.6357Z" fill="#4B108D"/>
<path d="M64.2048 51.8957C66.2229 51.8957 67.8588 49.9885 67.8588 47.6357C67.8588 45.283 66.2229 43.3757 64.2048 43.3757C62.1867 43.3757 60.5508 45.283 60.5508 47.6357C60.5508 49.9885 62.1867 51.8957 64.2048 51.8957Z" stroke="black" stroke-width="1.086" stroke-miterlimit="10"/>
<path d="M107.648 10.4073C105.397 9.73625 102.997 9.74779 100.753 10.4405C98.508 11.1332 96.5193 12.4759 95.0377 14.2989C93.5563 16.1219 92.6487 18.3433 92.4297 20.6821C92.2107 23.0209 92.6901 25.3721 93.8074 27.4385C94.9246 29.5048 96.6295 31.1935 98.7066 32.2907C100.783 33.3881 103.139 33.8449 105.476 33.6035C107.812 33.362 110.025 32.4331 111.834 30.9341C113.642 29.4352 114.966 27.4336 115.637 25.1824C116.537 22.1636 116.201 18.9112 114.702 16.1402C113.204 13.3694 110.667 11.3072 107.648 10.4073ZM101.681 30.4234C101.463 30.3581 101.259 30.2506 101.082 30.1067C100.905 29.9629 100.758 29.7856 100.65 29.585C100.542 29.3845 100.474 29.1646 100.451 28.9378C100.427 28.711 100.449 28.4818 100.514 28.2634C100.579 28.045 100.687 27.8414 100.831 27.6646C100.974 27.4877 101.152 27.3409 101.352 27.2326C101.757 27.0137 102.233 26.9647 102.674 27.0964C103.115 27.2281 103.486 27.5296 103.705 27.9347C103.924 28.3397 103.973 28.8152 103.841 29.2564C103.709 29.6975 103.408 30.0683 103.003 30.2872C102.598 30.506 102.122 30.5551 101.681 30.4234ZM107.681 18.2824C107.656 18.3424 107.632 18.4009 107.609 18.4579C106.636 20.8522 105.425 23.1431 103.995 25.2964C103.649 25.8214 102.563 25.4974 102.56 24.8674C102.58 22.9096 102.73 20.9552 103.01 19.0174C103.184 17.6014 103.049 15.1774 104.193 14.0883C105.209 13.1133 107.124 13.5318 108.027 14.4678C109.025 15.5074 108.161 17.1409 107.676 18.2824H107.681Z" fill="#D7E8F0"/>
<path d="M115.865 78.5102C115.041 79.3481 114.483 80.4116 114.264 81.5661C114.044 82.7207 114.172 83.9145 114.631 84.9965C115.09 86.0784 115.859 87 116.842 87.6446C117.825 88.2891 118.976 88.6278 120.152 88.6178C121.327 88.6077 122.473 88.2494 123.444 87.588C124.416 86.9267 125.169 85.992 125.609 84.9023C126.05 83.8127 126.157 82.6169 125.918 81.4662C125.678 80.3157 125.103 79.2618 124.265 78.4382C123.141 77.3343 121.625 76.7217 120.05 76.7352C118.474 76.7487 116.969 77.3871 115.865 78.5102ZM123.317 85.8347C123.155 85.9991 122.935 86.0925 122.704 86.0945C122.474 86.0964 122.252 86.0067 122.088 85.8452C121.924 85.6838 121.83 85.4636 121.829 85.2332C121.827 85.0028 121.916 84.7811 122.078 84.6167C122.158 84.5354 122.253 84.4706 122.358 84.426C122.463 84.3815 122.576 84.3581 122.69 84.357C122.804 84.3561 122.917 84.3776 123.023 84.4203C123.128 84.4631 123.225 84.5262 123.306 84.6062C123.387 84.6863 123.452 84.7814 123.497 84.8865C123.541 84.9915 123.565 85.1042 123.566 85.2183C123.567 85.3323 123.545 85.4456 123.502 85.5513C123.46 85.6571 123.397 85.7534 123.317 85.8347ZM119.321 80.3672C120.111 81.4022 120.971 82.4672 121.592 83.6132C121.742 83.8892 121.344 84.2942 121.065 84.1472C120.203 83.6804 119.374 83.1563 118.583 82.5782C117.998 82.1702 116.894 81.6617 116.681 80.9012C116.487 80.2232 117.12 79.4747 117.746 79.2947C118.514 79.0757 118.922 79.8602 119.321 80.3672Z" fill="#4B108D"/>
<path d="M139.16 30.9227C139.752 30.1946 140.114 29.3072 140.202 28.373C140.289 27.4388 140.098 26.4995 139.652 25.674C139.206 24.8486 138.525 24.174 137.695 23.7354C136.866 23.297 135.925 23.1143 134.991 23.2106C134.058 23.3069 133.174 23.6778 132.451 24.2763C131.729 24.875 131.2 25.6743 130.932 26.5736C130.663 27.4727 130.668 28.4312 130.944 29.3279C131.22 30.2246 131.757 31.0191 132.485 31.6112C132.968 32.0043 133.524 32.2983 134.121 32.4765C134.719 32.6547 135.345 32.7135 135.965 32.6495C136.585 32.5856 137.186 32.4002 137.734 32.1039C138.282 31.8075 138.767 31.4061 139.16 30.9227ZM132.684 25.6592C132.742 25.5884 132.812 25.5297 132.892 25.4864C132.973 25.443 133.06 25.4159 133.151 25.4064C133.242 25.397 133.333 25.4055 133.42 25.4316C133.508 25.4576 133.589 25.5005 133.66 25.5579C133.731 25.6154 133.789 25.6862 133.833 25.7663C133.876 25.8464 133.903 25.9341 133.913 26.0249C133.922 26.1155 133.914 26.207 133.887 26.2943C133.861 26.3816 133.819 26.4629 133.761 26.5337C133.645 26.6765 133.477 26.7674 133.294 26.7864C133.111 26.8053 132.928 26.7509 132.785 26.6349C132.643 26.519 132.552 26.351 132.533 26.168C132.514 25.985 132.568 25.802 132.684 25.6592ZM136.274 29.7092C135.567 28.9457 134.807 28.1687 134.223 27.2987C134.082 27.0902 134.373 26.7392 134.601 26.8352C135.324 27.1431 136.025 27.4989 136.7 27.9002C137.195 28.1807 138.111 28.5002 138.338 29.0912C138.542 29.6147 138.095 30.2582 137.61 30.4412C137.012 30.6722 136.628 30.0797 136.274 29.7002V29.7092Z" fill="#4B108D"/>
<path d="M92.0005 62.2036C93.6745 65.0536 93.598 67.0831 93.163 70.3726C92.989 71.6251 94.3375 72.4726 95.431 71.8426C105.093 66.2926 114.111 70.6816 125.631 67.9606C129.861 66.9676 135.135 64.9096 138.75 61.6006C139.949 59.8195 140.59 57.721 140.59 55.5736C140.59 46.5736 128.29 39.2671 113.121 39.2671C103.399 39.2671 94.858 42.2671 89.9755 46.7866C89.9755 46.7866 89.9755 46.7866 89.962 46.8001C88.723 48.6556 88.042 50.6836 88.042 52.8001C88.0345 56.0296 90.436 59.5306 92.0005 62.2036Z" fill="#D7E8F0"/>
<path d="M88.0771 52.8C88.0771 52.875 88.0771 52.95 88.0771 53.028C88.1311 56.178 89.7121 59.1135 91.5841 61.653C92.8381 63.351 94.3261 65.238 93.9736 67.32C93.8236 68.238 93.3061 69.0705 93.1771 69.9915C93.0481 70.9125 93.5387 72.0615 94.4687 72.1095C95.0597 72.1395 95.5622 71.7195 96.0302 71.3595C98.7977 69.2145 102.395 68.412 105.893 68.271C109.391 68.13 112.884 68.592 116.384 68.691C121.43 68.841 126.555 68.205 131.216 66.27C135.392 64.539 139.218 61.698 141.731 57.903C144.2 54.177 142.74 48.7665 140.106 45.5265C137.637 42.486 134.06 40.5405 130.391 39.1695C120.522 35.4855 109.259 35.5695 99.5267 39.606C96.6377 40.806 93.8431 42.366 91.6771 44.6235C89.5666 46.8225 88.0996 49.7535 88.0771 52.8Z" stroke="black" stroke-width="1.086" stroke-miterlimit="10"/>
<path d="M128.568 56.3849C130.661 56.3849 132.357 54.6885 132.357 52.5959C132.357 50.5032 130.661 48.8069 128.568 48.8069C126.476 48.8069 124.779 50.5032 124.779 52.5959C124.779 54.6885 126.476 56.3849 128.568 56.3849Z" fill="white"/>
<path d="M116.313 56.3849C118.406 56.3849 120.102 54.6885 120.102 52.5959C120.102 50.5032 118.406 48.8069 116.313 48.8069C114.221 48.8069 112.524 50.5032 112.524 52.5959C112.524 54.6885 114.221 56.3849 116.313 56.3849Z" fill="white"/>
<path d="M103.82 56.3849C105.913 56.3849 107.609 54.6885 107.609 52.5959C107.609 50.5032 105.913 48.8069 103.82 48.8069C101.728 48.8069 100.031 50.5032 100.031 52.5959C100.031 54.6885 101.728 56.3849 103.82 56.3849Z" fill="white"/>
</svg>
