<svg width="81" height="80" viewBox="0 0 81 80" fill="none" xmlns="http://www.w3.org/2000/svg">
<path fill-rule="evenodd" clip-rule="evenodd" d="M30.8322 7.99188C31.3295 9.27995 30.6884 10.7272 29.4003 11.2244C28.9288 11.4064 28.463 11.5997 28.003 11.8039C26.741 12.3641 25.2639 11.7953 24.7036 10.5333C24.1434 9.27138 24.7123 7.79421 25.9742 7.23399C26.5092 6.99647 27.0512 6.77165 27.5997 6.55992C28.8877 6.0627 30.335 6.70381 30.8322 7.99188ZM19.326 14.1343C20.2782 15.1341 20.2396 16.7166 19.2398 17.6688C18.8742 18.0169 18.5172 18.374 18.169 18.7395C17.2168 19.7394 15.6344 19.778 14.6345 18.8258C13.6347 17.8736 13.5961 16.2911 14.5483 15.2913C14.9525 14.8668 15.3671 14.4523 15.7915 14.0481C16.7914 13.0959 18.3738 13.1345 19.326 14.1343ZM11.0336 24.2034C12.2955 24.7636 12.8644 26.2408 12.3041 27.5027C12.0999 27.9627 11.9067 28.4286 11.7247 28.9C11.2275 30.1881 9.7802 30.8292 8.49212 30.332C7.20405 29.8348 6.56294 28.3875 7.06016 27.0994C7.27189 26.5509 7.49671 26.009 7.73423 25.474C8.29446 24.212 9.77162 23.6432 11.0336 24.2034ZM7.23728 36.6802C8.61759 36.7136 9.70951 37.8596 9.67617 39.2399C9.67006 39.4925 9.66699 39.7459 9.66699 40.0001C9.66699 40.2543 9.67006 40.5077 9.67617 40.7603C9.70951 42.1406 8.61759 43.2866 7.23728 43.3199C5.85697 43.3533 4.71097 42.2613 4.67762 40.881C4.67055 40.5882 4.66699 40.2945 4.66699 40.0001C4.66699 39.7056 4.67055 39.412 4.67762 39.1191C4.71097 37.7388 5.85697 36.6469 7.23728 36.6802ZM72.5085 49.6682C73.7966 50.1654 74.4377 51.6127 73.9405 52.9007C73.7288 53.4492 73.5039 53.9912 73.2664 54.5262C72.7062 55.7881 71.229 56.357 69.9671 55.7968C68.7051 55.2365 68.1363 53.7594 68.6965 52.4974C68.9007 52.0374 69.094 51.5716 69.276 51.1001C69.7732 49.812 71.2205 49.1709 72.5085 49.6682ZM8.49212 49.6682C9.7802 49.1709 11.2275 49.812 11.7247 51.1001C11.9067 51.5716 12.0999 52.0374 12.3041 52.4974C12.8644 53.7594 12.2955 55.2365 11.0336 55.7968C9.77162 56.357 8.29446 55.7881 7.73423 54.5262C7.49671 53.9912 7.27189 53.4492 7.06016 52.9007C6.56294 51.6127 7.20405 50.1654 8.49212 49.6682ZM66.3661 61.1744C67.3659 62.1266 67.4046 63.709 66.4523 64.7089C66.0481 65.1333 65.6336 65.5479 65.2091 65.9521C64.2093 66.9043 62.6269 66.8657 61.6746 65.8659C60.7224 64.866 60.761 63.2836 61.7609 62.3314C62.1264 61.9832 62.4835 61.6262 62.8316 61.2606C63.7838 60.2608 65.3663 60.2222 66.3661 61.1744ZM14.6345 61.1744C15.6344 60.2222 17.2168 60.2608 18.169 61.2606C18.5172 61.6262 18.8742 61.9832 19.2398 62.3314C20.2396 63.2836 20.2782 64.866 19.326 65.8659C18.3738 66.8657 16.7914 66.9043 15.7915 65.9521C15.3671 65.5479 14.9525 65.1333 14.5483 64.7089C13.5961 63.7091 13.6347 62.1266 14.6345 61.1744ZM24.7036 69.4668C25.2639 68.2049 26.741 67.636 28.003 68.1963C28.463 68.4005 28.9288 68.5937 29.4003 68.7757C30.6884 69.2729 31.3295 70.7202 30.8322 72.0083C30.335 73.2964 28.8878 73.9375 27.5997 73.4402C27.0512 73.2285 26.5092 73.0037 25.9742 72.7662C24.7123 72.2059 24.1434 70.7288 24.7036 69.4668ZM56.297 69.4668C56.8572 70.7288 56.2884 72.2059 55.0264 72.7662C54.4914 73.0037 53.9495 73.2285 53.401 73.4402C52.1129 73.9375 50.6656 73.2964 50.1684 72.0083C49.6712 70.7202 50.3123 69.2729 51.6004 68.7757C52.0718 68.5937 52.5377 68.4005 52.9977 68.1963C54.2596 67.636 55.7368 68.2049 56.297 69.4668ZM37.1805 73.2631C37.2138 71.8828 38.3598 70.7909 39.7401 70.8242C39.9927 70.8303 40.2461 70.8334 40.5003 70.8334C40.7545 70.8334 41.0079 70.8303 41.2605 70.8242C42.6408 70.7909 43.7868 71.8828 43.8202 73.2631C43.8535 74.6434 42.7616 75.7894 41.3813 75.8228C41.0884 75.8299 40.7948 75.8334 40.5003 75.8334C40.2059 75.8334 39.9122 75.8299 39.6194 75.8228C38.2391 75.7894 37.1471 74.6434 37.1805 73.2631Z" fill="#8292A1"/>
<path fill-rule="evenodd" clip-rule="evenodd" d="M38.0003 6.66675C38.0003 5.28604 39.1196 4.16675 40.5003 4.16675C60.2905 4.16675 76.3337 20.2099 76.3337 40.0001C76.3337 41.3808 75.2144 42.5001 73.8337 42.5001C72.4529 42.5001 71.3337 41.3808 71.3337 40.0001C71.3337 22.9713 57.5291 9.16675 40.5003 9.16675C39.1196 9.16675 38.0003 8.04746 38.0003 6.66675ZM40.5003 27.5001C41.881 27.5001 43.0003 28.6194 43.0003 30.0001V40.8334H53.8337C55.2144 40.8334 56.3337 41.9527 56.3337 43.3334C56.3337 44.7141 55.2144 45.8334 53.8337 45.8334H40.5003C39.1196 45.8334 38.0003 44.7141 38.0003 43.3334V30.0001C38.0003 28.6194 39.1196 27.5001 40.5003 27.5001Z" fill="#8292A1"/>
</svg>
