<svg width="18" height="16" viewBox="0 0 18 16" fill="none" xmlns="http://www.w3.org/2000/svg">
<path fill-rule="evenodd" clip-rule="evenodd" d="M3.55277 1.03281C3.49166 1.04381 3.43436 1.06673 3.38085 1.10157C3.31078 1.07978 3.2382 1.07214 3.16309 1.07865C3.28824 1.0503 3.41815 1.03501 3.55277 1.03281Z" fill="#8292A1"/>
<path fill-rule="evenodd" clip-rule="evenodd" d="M3.16377 1.07867C3.23889 1.07216 3.31146 1.07979 3.38154 1.10159C3.43504 1.06675 3.49235 1.04383 3.55346 1.03282C4.97702 0.922359 6.39823 0.94911 7.81711 1.11305C8.45778 1.19688 9.08436 1.34205 9.69679 1.54859C10.01 1.65571 10.2813 1.82763 10.5105 2.06435C10.6489 2.24125 10.6718 2.43226 10.5793 2.63742C10.4181 2.86727 10.208 3.03919 9.94894 3.15319C9.26219 3.42613 8.55158 3.60951 7.81711 3.70334C6.03445 3.91414 4.2541 3.89887 2.47609 3.65749C1.93598 3.5664 1.40875 3.42886 0.894408 3.24488C0.61264 3.12898 0.364317 2.96472 0.149415 2.75204C0.0230641 2.58498 -0.0075012 2.40159 0.0577235 2.20189C0.128395 2.08526 0.216281 1.98211 0.321336 1.89243C0.638245 1.6767 0.982088 1.51624 1.35287 1.41105C1.94691 1.24562 2.55054 1.13483 3.16377 1.07867Z" fill="#8292A1"/>
<path fill-rule="evenodd" clip-rule="evenodd" d="M10.6137 4.15034C10.6206 3.79198 10.613 3.43285 10.5908 3.07296C10.6022 3.02753 10.6136 2.98168 10.6252 2.93542C10.6442 3.34432 10.6404 3.7493 10.6137 4.15034Z" fill="#8292A1"/>
<path fill-rule="evenodd" clip-rule="evenodd" d="M10.591 3.07297C10.6132 3.43286 10.6208 3.79199 10.6139 4.15034C9.45807 4.55264 8.50296 5.2365 7.74855 6.20194C5.73363 6.4888 3.73171 6.42003 1.74276 5.99563C1.43149 5.91361 1.13349 5.80283 0.848766 5.66325C0.85562 5.63437 0.85562 5.60762 0.848766 5.58302C0.787104 5.56535 0.725991 5.54625 0.665383 5.52571C0.630495 5.48775 0.638128 5.461 0.688306 5.44548C0.627308 5.44195 0.566196 5.41903 0.504923 5.37672C0.512556 5.36908 0.520213 5.36143 0.527846 5.35379C0.471524 5.32734 0.471524 5.29676 0.527846 5.2621C0.471181 5.22863 0.410045 5.20571 0.344463 5.19333C0.330113 5.17614 0.318652 5.15702 0.310079 5.13603C0.304371 5.16179 0.292909 5.18471 0.275694 5.20479C0.252772 5.17041 0.229849 5.13603 0.206926 5.10164C0.21025 5.08394 0.217883 5.06865 0.229849 5.0558C0.187235 5.04012 0.149023 5.01719 0.115234 4.98703C0.175613 4.92525 0.175613 4.88321 0.115234 4.86095C0.140839 4.82774 0.156129 4.78952 0.16108 4.74634C0.139258 4.28827 0.131624 3.82981 0.138157 3.37096C0.298296 3.34378 0.378526 3.41255 0.378847 3.57727C0.469003 3.62504 0.556866 3.67854 0.64246 3.73773C0.744765 3.73858 0.847918 3.73858 0.951919 3.73773C0.988229 3.76893 1.03027 3.78422 1.07799 3.78358C1.07297 3.81051 1.08061 3.83343 1.10092 3.85234C1.13535 3.86571 1.1659 3.8848 1.19261 3.90965C1.22317 3.92494 1.25374 3.92494 1.2843 3.90965C1.26901 3.90202 1.25374 3.89436 1.23845 3.88673C1.27057 3.87733 1.30113 3.86587 1.33015 3.85234C2.26902 4.09675 3.22412 4.23811 4.1955 4.27642C5.62557 4.35371 7.04679 4.27731 8.45916 4.04719C9.08101 3.94631 9.66937 3.74766 10.2242 3.45119C10.2968 3.39389 10.3694 3.33658 10.442 3.27927C10.4974 3.21275 10.5471 3.14398 10.591 3.07297Z" fill="#8292A1"/>
<path fill-rule="evenodd" clip-rule="evenodd" d="M0.0462731 3.0042C0.0233983 3.61154 0.0157581 4.2228 0.0233502 4.83803C-0.00332515 4.20008 -0.00714409 3.55824 0.0118888 2.91251C0.0391257 2.93687 0.0505871 2.96745 0.0462731 3.0042Z" fill="#8292A1"/>
<path fill-rule="evenodd" clip-rule="evenodd" d="M0.0462687 3.00418C0.138785 3.22284 0.291612 3.38713 0.504726 3.49702C0.768064 3.64792 1.04314 3.76637 1.32995 3.85233C1.30093 3.86585 1.27037 3.87731 1.23826 3.88671C1.25355 3.89434 1.26881 3.902 1.2841 3.90963C1.25355 3.92492 1.22297 3.92492 1.19241 3.90963C1.16571 3.88479 1.13515 3.86569 1.10072 3.85233C1.08041 3.83342 1.07278 3.81049 1.0778 3.78356C1.03007 3.7842 0.988032 3.76891 0.951722 3.73771C0.847721 3.73856 0.744568 3.73856 0.642263 3.73771C0.556669 3.67853 0.468806 3.62502 0.37865 3.57725C0.378329 3.41253 0.298099 3.34376 0.13796 3.37095C0.131427 3.82979 0.13906 4.28825 0.160883 4.74632C0.155932 4.78951 0.140642 4.82772 0.115037 4.86093C0.175416 4.88319 0.175416 4.92523 0.115037 4.98701C0.148826 5.01717 0.187038 5.0401 0.229652 5.05578C0.217686 5.06864 0.210053 5.08393 0.206729 5.10162C0.229652 5.13601 0.252574 5.17039 0.275497 5.20478C0.292712 5.1847 0.304174 5.16177 0.309882 5.13601C0.318455 5.157 0.329916 5.17612 0.344266 5.19331C0.409848 5.20569 0.470983 5.22862 0.527649 5.26208C0.471327 5.29674 0.471327 5.32732 0.527649 5.35377C0.520015 5.36141 0.512359 5.36906 0.504726 5.3767C0.565999 5.41901 0.627111 5.44194 0.688109 5.44547C0.637931 5.46098 0.630297 5.48774 0.665186 5.5257C0.725794 5.54623 0.786906 5.56533 0.848569 5.583C0.855423 5.6076 0.855423 5.63435 0.848569 5.66323C0.659753 5.58403 0.484027 5.48088 0.321343 5.35377C0.165399 5.21372 0.0660626 5.04179 0.0233458 4.83801C0.0157537 4.22278 0.0233939 3.61152 0.0462687 3.00418Z" fill="#8292A1"/>
<path fill-rule="evenodd" clip-rule="evenodd" d="M12.0811 4.21909C13.9537 4.11497 15.5086 4.75681 16.7459 6.14461C18.0842 7.87286 18.3516 9.76016 17.5482 11.8066C16.6292 13.7166 15.1125 14.7901 12.998 15.0272C10.9536 15.1148 9.32992 14.3392 8.12686 12.7005C7.11369 11.128 6.91502 9.4546 7.53087 7.68044C8.20358 6.06789 9.36882 4.98668 11.0266 4.43686C11.378 4.34888 11.7295 4.27628 12.0811 4.21909Z" fill="#8292A1"/>
<path fill-rule="evenodd" clip-rule="evenodd" d="M12.0814 5.06726C13.8855 4.95136 15.3181 5.61612 16.3794 7.06155C17.3502 8.61865 17.4189 10.2156 16.5857 11.8524C15.57 13.5123 14.0838 14.2879 12.1272 14.1791C10.5828 13.9709 9.4099 13.203 8.60859 11.8753C8.01977 10.7858 7.8746 9.63968 8.17305 8.43692C8.66546 6.84421 9.70079 5.7783 11.2791 5.23918C11.5462 5.16518 11.8136 5.10788 12.0814 5.06726Z" fill="#8292A1"/>
<path fill-rule="evenodd" clip-rule="evenodd" d="M12.1267 5.57154C13.8704 5.46717 15.2037 6.1472 16.1267 7.61168C16.676 8.60703 16.7983 9.65385 16.4935 10.7521C16.0839 12.0481 15.2472 12.9458 13.9834 13.4455C12.2864 13.9787 10.8156 13.6157 9.57079 12.3567C8.52521 11.1095 8.26542 9.7112 8.79141 8.16182C9.43321 6.69075 10.545 5.82731 12.1267 5.57154Z" fill="#8292A1"/>
<path fill-rule="evenodd" clip-rule="evenodd" d="M0.0457781 5.66324C0.0229034 6.27822 0.0152632 6.89713 0.0228552 7.51999C-0.00761841 6.89718 -0.00761841 6.27063 0.0228552 5.64032C0.0367625 5.64316 0.0444027 5.6508 0.0457781 5.66324Z" fill="#8292A1"/>
<path fill-rule="evenodd" clip-rule="evenodd" d="M0.0462687 5.66324C0.0598436 5.73639 0.08659 5.80515 0.126499 5.86954C0.329412 6.08766 0.570102 6.25194 0.848569 6.36239C1.6116 6.6373 2.39864 6.81303 3.20962 6.88961C4.57729 7.01949 5.94503 7.02713 7.31282 6.91253C6.94798 7.56556 6.7264 8.26471 6.64805 9.00998C5.16341 9.12936 3.68871 9.05676 2.22394 8.79221C1.5427 8.68239 0.916123 8.43789 0.344266 8.05868C0.164757 7.92144 0.0577828 7.74188 0.0233458 7.51999C0.0157537 6.89713 0.0233939 6.27821 0.0462687 5.66324Z" fill="#8292A1"/>
<path fill-rule="evenodd" clip-rule="evenodd" d="M12.8829 7.45122C12.8815 7.43877 12.8739 7.43114 12.86 7.42829C12.8295 8.09682 12.8295 8.76158 12.86 9.42258C13.7216 9.65465 14.1304 10.2201 14.0863 11.1189C13.9411 11.8104 13.5247 12.2307 12.837 12.3796C12.8387 12.6539 12.7088 12.7494 12.4474 12.6662C12.3489 12.5953 12.3107 12.4997 12.3327 12.3796C11.6711 12.2452 11.2661 11.8479 11.1178 11.1876C11.1595 10.9604 11.2894 10.8879 11.5075 10.9699C11.5343 10.9966 11.561 11.0234 11.5877 11.0501C11.6529 11.3605 11.8172 11.6011 12.0806 11.7722C12.145 11.8121 12.2137 11.8388 12.2869 11.8524C12.3031 11.8731 12.3261 11.8808 12.3557 11.8753C12.3632 11.2066 12.3556 10.5419 12.3327 9.88104C11.7131 9.75276 11.3119 9.386 11.1293 8.78074C10.9857 7.93317 11.3028 7.33335 12.0806 6.9813C12.1618 6.94829 12.2458 6.92917 12.3327 6.92399C12.2989 6.70982 12.3867 6.57992 12.5963 6.5343C12.8039 6.58216 12.8841 6.71207 12.837 6.92399C13.4781 7.05692 13.8869 7.43895 14.0634 8.07013C14.0836 8.17987 14.0759 8.28682 14.0405 8.39105C13.8767 8.55431 13.7315 8.53902 13.605 8.34521C13.5528 7.89214 13.3121 7.59414 12.8829 7.45122Z" fill="#EEF0F2"/>
<path fill-rule="evenodd" clip-rule="evenodd" d="M12.8837 7.45124C12.8608 8.10442 12.8532 8.76155 12.8608 9.4226C12.8303 8.7616 12.8303 8.09684 12.8608 7.42831C12.8747 7.43116 12.8823 7.43879 12.8837 7.45124Z" fill="#8292A1"/>
<path fill-rule="evenodd" clip-rule="evenodd" d="M12.2871 7.45122C12.3034 7.4305 12.3263 7.42287 12.3559 7.4283C12.3635 8.07796 12.3559 8.72745 12.333 9.37674C12.319 9.3739 12.3114 9.36627 12.31 9.35382C12.3253 9.04062 12.333 8.72353 12.333 8.40252C12.3329 8.07741 12.3177 7.76029 12.2871 7.45122Z" fill="#8292A1"/>
<path fill-rule="evenodd" clip-rule="evenodd" d="M12.2877 7.4512C12.3183 7.76027 12.3336 8.07739 12.3336 8.4025C12.3336 8.72351 12.3259 9.0406 12.3107 9.3538C11.7661 9.1438 11.533 8.74648 11.6115 8.16181C11.7132 7.80449 11.9386 7.56763 12.2877 7.4512Z" fill="#8292A1"/>
<path fill-rule="evenodd" clip-rule="evenodd" d="M0.3679 8.91828C0.642195 9.10545 0.940193 9.24681 1.26189 9.34236C2.25138 9.6147 3.25999 9.76753 4.28771 9.80081C5.06722 9.81663 5.8466 9.81282 6.62584 9.78935C6.64377 10.4788 6.78894 11.1398 7.06138 11.7722C7.05805 11.7899 7.05042 11.8052 7.03845 11.818C5.88472 11.8941 4.73092 11.8941 3.5771 11.818C2.753 11.7548 1.9507 11.5906 1.1702 11.3252C1.15172 11.287 1.15936 11.2488 1.19312 11.2106C1.26189 11.1686 1.33066 11.1265 1.39943 11.0845C1.29722 11.0745 1.19026 11.063 1.07851 11.0501C1.07085 11.097 1.0632 11.1352 1.05559 11.1647C0.976732 11.1244 0.896502 11.0862 0.814896 11.0501C0.799607 11.1112 0.78434 11.1112 0.769051 11.0501C0.741933 11.0783 0.715205 11.0783 0.688821 11.0501C0.696454 11.0348 0.70411 11.0196 0.711743 11.0043C0.668901 10.9785 0.623055 10.9594 0.574206 10.947C0.591513 10.8734 0.637359 10.8391 0.711743 10.8438C0.711743 10.798 0.711743 10.7521 0.711743 10.7063C0.665898 10.7063 0.620052 10.7063 0.574206 10.7063C0.574206 10.7368 0.574206 10.7674 0.574206 10.798C0.503787 10.8052 0.435019 10.7976 0.3679 10.775C0.390273 10.7378 0.378812 10.7073 0.333516 10.6833C0.310341 10.7025 0.28359 10.7102 0.253286 10.7063C0.253286 10.6681 0.253286 10.6299 0.253286 10.5917C0.229171 10.5951 0.206248 10.5913 0.184518 10.5802C0.192151 10.5726 0.199807 10.5649 0.20744 10.5573C0.181675 10.5516 0.158752 10.5401 0.138672 10.5229C0.139978 9.99041 0.143784 9.44026 0.150133 8.87244C0.157767 8.91828 0.165423 8.96413 0.173056 9.00997C0.189996 9.03459 0.212919 9.04988 0.241825 9.05582C0.299132 9.03672 0.356439 9.01761 0.413746 8.99851C0.379981 8.98224 0.364691 8.95551 0.3679 8.91828Z" fill="#8292A1"/>
<path fill-rule="evenodd" clip-rule="evenodd" d="M0.0457781 8.50565C0.0229034 9.12828 0.0152632 9.75484 0.0228552 10.3853C-0.00761841 9.74725 -0.00761841 9.10541 0.0228552 8.45981C0.0411362 8.47028 0.0487787 8.48557 0.0457781 8.50565Z" fill="#8292A1"/>
<path fill-rule="evenodd" clip-rule="evenodd" d="M0.0462687 8.50568C0.0774254 8.60612 0.127095 8.69782 0.195267 8.78075C0.251176 8.82955 0.308483 8.8754 0.367189 8.91829C0.36398 8.95551 0.379269 8.98224 0.413034 8.99852C0.355727 9.01761 0.29842 9.03673 0.241113 9.05582C0.212207 9.04989 0.189284 9.0346 0.172344 9.00998C0.164711 8.96413 0.157055 8.91829 0.149422 8.87244C0.143072 9.44026 0.139267 9.99041 0.13796 10.5229C0.158041 10.5401 0.180963 10.5516 0.206729 10.5573C0.199095 10.5649 0.191439 10.5726 0.183806 10.5802C0.205537 10.5913 0.22846 10.5951 0.252574 10.5917C0.252574 10.6299 0.252574 10.6681 0.252574 10.7063C0.282878 10.7102 0.309629 10.7025 0.332804 10.6833C0.3781 10.7073 0.389561 10.7378 0.367189 10.775C0.434307 10.7976 0.503075 10.8052 0.573494 10.798C0.573494 10.7674 0.573494 10.7368 0.573494 10.7063C0.61934 10.7063 0.665186 10.7063 0.711032 10.7063C0.711032 10.7521 0.711032 10.798 0.711032 10.8438C0.636647 10.8391 0.590801 10.8734 0.573494 10.947C0.622343 10.9594 0.668189 10.9785 0.711032 11.0043C0.703398 11.0196 0.695742 11.0348 0.688109 11.0501C0.714493 11.0783 0.741221 11.0783 0.768339 11.0501C0.783628 11.1112 0.798895 11.1112 0.814185 11.0501C0.89579 11.0862 0.97602 11.1244 1.05487 11.1647C1.06248 11.1352 1.07014 11.097 1.0778 11.0501C1.18955 11.063 1.2965 11.0745 1.39872 11.0845C1.32995 11.1265 1.26118 11.1686 1.19241 11.2106C1.15865 11.2488 1.15101 11.287 1.16949 11.3252C0.778792 11.1902 0.438777 10.9763 0.149422 10.6833C0.0960571 10.588 0.0540326 10.4887 0.0233458 10.3854C0.0157537 9.75486 0.0233939 9.12831 0.0462687 8.50568Z" fill="#8292A1"/>
<path fill-rule="evenodd" clip-rule="evenodd" d="M12.333 9.88104C12.3558 10.5419 12.3635 11.2066 12.3559 11.8753C12.3263 11.8808 12.3034 11.8731 12.2871 11.8524C12.3328 11.2034 12.3481 10.5462 12.333 9.88104Z" fill="#8292A1"/>
<path fill-rule="evenodd" clip-rule="evenodd" d="M12.8379 9.9498C13.1819 10.0301 13.4149 10.2364 13.537 10.5687C13.6734 11.0997 13.5091 11.5084 13.0442 11.7951C12.9783 11.8249 12.9095 11.844 12.8379 11.8524C12.8379 11.2182 12.8379 10.584 12.8379 9.9498Z" fill="#8292A1"/>
<path fill-rule="evenodd" clip-rule="evenodd" d="M0.0462687 11.3481C0.0932605 11.4914 0.177319 11.6098 0.29842 11.7034C0.793669 12.0291 1.33616 12.2431 1.92594 12.3453C3.74581 12.6801 5.57584 12.745 7.41597 12.5401C7.61987 12.8057 7.82617 13.0731 8.03489 13.3424C8.34845 13.6944 8.69612 14.0039 9.07788 14.2708C8.76454 14.3759 8.44362 14.4523 8.11512 14.5C6.2351 14.7882 4.35542 14.7882 2.47609 14.5C1.7973 14.396 1.15546 14.182 0.550572 13.8582C0.373607 13.7451 0.224609 13.6037 0.103576 13.4341C0.0607536 13.3629 0.0340095 13.2865 0.0233458 13.2049C0.0157537 12.582 0.0233939 11.9631 0.0462687 11.3481Z" fill="#8292A1"/>
<path fill-rule="evenodd" clip-rule="evenodd" d="M0.0462731 11.3481C0.0233983 11.9631 0.0157581 12.582 0.0233502 13.2049C-0.00332515 12.5669 -0.00714409 11.9251 0.0118888 11.2794C0.0356964 11.2964 0.0471579 11.3193 0.0462731 11.3481Z" fill="#8292A1"/>
</svg>
