<svg width="80" height="79" viewBox="0 0 80 79" fill="none" xmlns="http://www.w3.org/2000/svg">
<path d="M63.9732 61.3295C63.0237 61.3295 62.1122 61.7585 61.5615 62.5069C56.776 69.0056 48.9046 73.2498 40.0078 73.2498C31.111 73.2498 23.2396 68.9964 18.4541 62.5069C17.9034 61.7585 16.9919 61.3295 16.0424 61.3295C13.6212 61.3295 12.1779 63.9673 13.5736 65.8658C19.4416 73.8157 29.0885 79 39.9983 79C50.908 79 60.555 73.8157 66.4229 65.8658C67.8377 63.9673 66.3944 61.3295 63.9732 61.3295Z" fill="#4B108D"/>
<path fill-rule="evenodd" clip-rule="evenodd" d="M34.4216 0.989136C32.8803 0.989136 31.6309 2.23857 31.6309 3.77983V18.4033C28.2748 15.1118 23.6768 13.0822 18.6047 13.0822C8.32959 13.0822 0 21.4117 0 31.6868C0 41.9619 8.32959 50.2915 18.6047 50.2915C28.3637 50.2915 36.3678 42.7775 37.1471 33.2194C37.1898 33.0254 37.2123 32.8238 37.2123 32.617V3.77983C37.2123 2.23857 35.9628 0.989136 34.4216 0.989136ZM31.6309 31.4813V31.8926C31.521 38.9903 25.7331 44.7102 18.6092 44.7102C11.4166 44.7102 5.58594 38.8795 5.58594 31.687C5.58594 24.4944 11.4166 18.6637 18.6092 18.6637C25.7331 18.6637 31.521 24.3836 31.6309 31.4813Z" fill="#4B108D"/>
<path fill-rule="evenodd" clip-rule="evenodd" d="M42.7939 30.756C42.7939 20.481 51.1235 12.1514 61.3986 12.1514C70.6483 12.1514 78.3215 18.9015 79.7608 27.7445C79.9201 28.0956 80.0088 28.4855 80.0088 28.8962V47.5008C80.0088 49.0421 78.7593 50.2915 77.2181 50.2915C75.6768 50.2915 74.4274 49.0421 74.4274 47.5008V44.037C71.0711 47.3299 66.472 49.3607 61.3986 49.3607C51.1235 49.3607 42.7939 41.0311 42.7939 30.756ZM74.4274 30.5705V30.9419C74.328 38.0489 68.536 43.7795 61.4054 43.7795C54.2129 43.7795 48.3822 37.9488 48.3822 30.7562C48.3822 23.5637 54.2129 17.733 61.4054 17.733C68.536 17.733 74.328 23.4636 74.4274 30.5705Z" fill="#4B108D"/>
</svg>
