<svg width="247" height="133" viewBox="0 0 247 133" fill="none" xmlns="http://www.w3.org/2000/svg">
<g opacity="0.1">
<path fill-rule="evenodd" clip-rule="evenodd" d="M167.736 5.99279C151.091 8.34475 137.809 16.3351 127.887 29.9638C131.039 31.6558 134.361 32.1552 137.85 31.462C140.954 27.7488 144.606 24.7524 148.808 22.4729C156.91 18.384 165.212 15.2212 173.714 12.9843C176.158 14.1036 178.815 14.936 181.683 15.4813C183.12 15.8577 184.116 16.69 184.672 17.9783C165.277 17.387 149.337 24.3786 136.853 38.953C128.733 38.7812 120.432 38.6144 111.948 38.4536C110.168 37.6695 108.674 36.505 107.465 34.9578C105.41 24.8991 109.229 18.5734 118.921 15.9807C119.772 9.95451 123.093 5.79283 128.884 3.4958C131.273 2.78566 133.598 2.95216 135.857 3.9952C137.379 2.63554 139.04 1.47025 140.838 0.499422C145.819 -0.166474 150.8 -0.166474 155.782 0.499422C159.979 2.10788 163.964 3.93897 167.736 5.99279Z" fill="#4B108D"/>
</g>
<g opacity="0.6">
<path fill-rule="evenodd" clip-rule="evenodd" d="M167.736 5.99278C170.796 5.67576 173.785 6.00866 176.702 6.99157C175.693 9.01573 174.696 11.0133 173.713 12.9843C165.211 15.2212 156.91 18.384 148.807 22.4729C144.605 24.7524 140.953 27.7488 137.849 31.462C134.36 32.1552 131.039 31.6558 127.887 29.9638C137.808 16.3351 151.091 8.34474 167.736 5.99278Z" fill="#4B108D"/>
</g>
<g opacity="0.1">
<path fill-rule="evenodd" clip-rule="evenodd" d="M22.2874 7.99039C29.4791 8.24058 36.4527 9.40588 43.2081 11.4862C45.872 16.2613 49.0261 20.7559 52.6723 24.9699C54.1776 33.123 50.6908 36.9514 42.2119 36.456C30.5889 37.1222 18.967 37.1222 7.34403 36.456C0.101471 33.4546 -1.39287 28.6273 2.86101 21.9735C5.80586 19.2496 9.29264 17.7514 13.3214 17.4789C15.8408 13.7898 18.8295 10.6269 22.2874 7.99039Z" fill="#4B108D"/>
</g>
<path fill-rule="evenodd" clip-rule="evenodd" d="M92.0241 24.9699C89.665 21.9507 86.6763 20.9519 83.0581 21.9735C83.077 23.5319 83.4087 25.0301 84.0543 26.4681C83.8481 28.4154 82.8518 29.5807 81.0656 29.9639C74.9109 29.2768 69.2653 30.6085 64.1298 33.959C63.9046 31.2132 64.2364 28.5497 65.126 25.9687C69.2494 25.4024 73.2343 24.4036 77.0807 22.9723C78.846 19.9162 81.1702 17.4192 84.0543 15.4813C91.3407 14.9519 93.9976 18.1148 92.0241 24.9699Z" fill="#353238"/>
<g opacity="0.6">
<path fill-rule="evenodd" clip-rule="evenodd" d="M184.672 17.9783C217.52 25.4472 233.293 46.0894 231.993 79.9036C228.341 98.2324 218.212 111.549 201.608 119.855C200.618 123.248 200.949 126.577 202.604 129.843C199.136 131.471 195.483 132.47 191.646 132.84C191.214 130.177 190.716 127.514 190.151 124.849C164.513 127.396 144.755 117.741 130.876 95.8843C127.727 97.2956 124.738 98.9606 121.91 100.878C119.629 98.4791 117.97 95.6496 116.929 92.3885C120.406 89.481 124.058 86.8172 127.887 84.3981C123.689 67.7802 126.678 52.6315 136.853 38.953C149.337 24.3786 165.277 17.387 184.672 17.9783Z" fill="#4B108D"/>
</g>
<path fill-rule="evenodd" clip-rule="evenodd" d="M92.0239 24.9699C91.0327 27.6473 89.0402 29.1455 86.0466 29.4645C86.6005 29.8466 86.9322 30.346 87.0428 30.9626C87.0428 31.9614 87.0428 32.9602 87.0428 33.959C86.6473 34.9828 85.9838 35.1496 85.0503 34.4584C83.5151 33.0891 82.1862 31.5909 81.0654 29.9638C82.8517 29.5807 83.8479 28.4154 84.0541 26.4681C83.4086 25.0301 83.0768 23.5319 83.0579 21.9735C86.6762 20.9519 89.6648 21.9507 92.0239 24.9699Z" fill="#EBC5B9"/>
<path fill-rule="evenodd" clip-rule="evenodd" d="M195.631 30.9626C194.967 30.9626 194.303 30.9626 193.639 30.9626C183.358 28.3347 173.063 28.3347 162.756 30.9626C173.67 25.8269 184.628 25.8269 195.631 30.9626Z" fill="#4B108D" fill-opacity="0.1"/>
<path fill-rule="evenodd" clip-rule="evenodd" d="M193.638 30.9626C192.026 34.5273 190.698 38.1899 189.654 41.9494C183.984 52.6255 178.671 63.6122 173.714 74.9096C184.028 79.575 194.322 84.2363 204.597 88.8927C208.894 90.3809 212.879 92.3785 216.552 94.8855C216.624 96.4106 215.96 97.4094 214.559 97.8819C211.773 100.174 209.116 102.671 206.589 105.373C202.797 106.799 199.144 108.297 195.631 109.867C172.4 112.79 155.63 103.801 145.322 82.8999C141.325 68.0948 142.486 53.7791 148.808 39.9518C152.41 35.3464 157.059 32.35 162.755 30.9626C173.062 28.3347 183.357 28.3347 193.638 30.9626Z" fill="#B47FF0"/>
<path fill-rule="evenodd" clip-rule="evenodd" d="M92.0232 24.9699C92.1986 28.6575 90.5379 30.6551 87.0421 30.9626C86.9315 30.346 86.5998 29.8466 86.0459 29.4645C89.0396 29.1455 91.032 27.6473 92.0232 24.9699Z" fill="#353238"/>
<path fill-rule="evenodd" clip-rule="evenodd" d="M193.638 30.9626C194.302 30.9626 194.966 30.9626 195.63 30.9626C215.196 39.8819 224.328 55.1964 223.026 76.9072C222.224 83.4872 220.066 89.48 216.551 94.8855C212.878 92.3785 208.893 90.3809 204.596 88.8927C205.776 87.7061 205.776 86.5405 204.596 85.3969C196.177 82.009 187.876 78.3464 179.691 74.4102C179.171 73.8499 178.839 73.1837 178.694 72.4126C183.015 62.7403 187.333 53.0849 191.645 43.4476C191.103 42.7314 190.439 42.232 189.653 41.9494C190.697 38.1899 192.025 34.5273 193.638 30.9626Z" fill="#F6F7F8"/>
<g opacity="0.6">
<path opacity="0.986" fill-rule="evenodd" clip-rule="evenodd" d="M238.468 39.9518C243.28 47.9232 245.936 56.5797 246.438 65.9205C246.604 70.2612 246.437 74.589 245.94 78.9048C245.692 80.0274 245.194 81.0262 244.446 81.9012C242.182 80.9613 240.19 79.6299 238.468 77.906C238.282 63.3685 234.297 50.0506 226.514 37.9542C226.908 35.0228 227.904 32.359 229.502 29.9639C232.513 33.3128 235.502 36.6428 238.468 39.9518Z" fill="#4B108D"/>
</g>
<path fill-rule="evenodd" clip-rule="evenodd" d="M189.653 41.9494C190.439 42.232 191.104 42.7314 191.646 43.4476C187.333 53.0849 183.016 62.7403 178.695 72.4126C178.839 73.1837 179.171 73.8499 179.691 74.4102C187.876 78.3464 196.178 82.009 204.597 85.3969C205.776 86.5405 205.776 87.7061 204.597 88.8927C194.322 84.2363 184.028 79.5749 173.714 74.9096C178.671 63.6122 183.984 52.6255 189.653 41.9494Z" fill="#6D17CE"/>
<path fill-rule="evenodd" clip-rule="evenodd" d="M81.0649 29.9638C82.1856 31.5909 83.5146 33.0891 85.0498 34.4584C85.9832 35.1496 86.6467 34.9828 87.0422 33.959C87.9149 33.8282 88.5794 34.1608 89.0347 34.9578C91.6836 40.583 94.3406 46.2432 97.0045 51.9373C100.587 52.5156 104.239 52.5156 107.963 51.9373C107.963 52.9361 107.963 53.9349 107.963 54.9337C103.809 56.6606 99.4921 57.16 95.012 56.4319C92.5215 53.2687 90.0309 50.1065 87.5403 46.9433C85.0039 50.1125 83.5096 53.7751 83.0573 57.9301C80.0029 56.0593 77.0142 53.8959 74.0913 51.4379C72.6687 50.8596 71.3397 51.0264 70.1064 51.9373C71.8827 47.8083 72.8789 43.4805 73.0951 38.953C66.2012 38.914 60.5556 41.411 56.1593 46.4439C53.9108 47.8922 51.5866 49.0578 49.1857 49.9397C48.5212 49.9397 48.1895 49.6071 48.1895 48.9409C52.2022 42.5886 57.5151 37.5946 64.1291 33.959C69.2646 30.6085 74.9102 29.2768 81.0649 29.9638Z" fill="#4B108D"/>
<path fill-rule="evenodd" clip-rule="evenodd" d="M109.955 45.9446C112.128 45.7288 113.788 46.5608 114.936 48.4416C113.214 50.2284 112.549 52.3928 112.944 54.9337C111.616 54.9337 110.287 54.9337 108.959 54.9337C109.162 51.9194 109.494 48.923 109.955 45.9446Z" fill="#212A47"/>
<path fill-rule="evenodd" clip-rule="evenodd" d="M48.1895 48.9409C48.1895 49.6071 48.5213 49.9397 49.1857 49.9397C50.4659 52.2919 50.4659 54.1227 49.1857 55.4331C42.8697 54.8598 42.5369 52.6964 48.1895 48.9409Z" fill="#F6CEC1"/>
<path fill-rule="evenodd" clip-rule="evenodd" d="M83.0573 57.9301C82.5661 60.2333 82.2344 62.5635 82.0611 64.9216C79.0913 70.8754 76.1026 76.8682 73.095 82.8999C70.1651 87.6702 66.3466 91.6653 61.6384 94.8855C50.4837 89.5439 39.3589 84.0505 28.2649 78.4054C27.3872 77.6982 26.7238 76.8652 26.2725 75.9084C27.1073 75.5668 27.44 74.9016 27.2687 73.9108C36.6252 75.9234 45.924 78.2535 55.163 80.9023C55.8275 80.5697 56.491 80.2361 57.1554 79.9035C60.3374 69.9735 64.655 60.6518 70.1064 51.9373C71.3397 51.0264 72.6686 50.8596 74.0913 51.4379C77.0142 53.8959 80.0029 56.0593 83.0573 57.9301Z" fill="#143046"/>
<path fill-rule="evenodd" clip-rule="evenodd" d="M24.2805 52.9361C27.7374 53.7232 30.3944 55.7207 32.2503 58.9289C30.9224 60.9265 29.2617 62.5915 27.2692 63.9228C26.261 60.4021 24.6003 57.2389 22.2881 54.4343C23.2006 54.1566 23.8641 53.6572 24.2805 52.9361Z" fill="#B47FF0"/>
<path fill-rule="evenodd" clip-rule="evenodd" d="M42.2128 71.9132C43.7091 70.2402 45.0371 68.4094 46.1977 66.4198C44.3497 65.9983 42.5226 65.4989 40.7184 64.9216C38.2906 66.2201 35.8001 67.2189 33.2467 67.918C32.8353 64.2445 33.6662 60.5829 35.7373 56.9313C37.7039 56.7845 39.6963 56.4509 41.7147 55.9325C45.2801 57.964 49.0987 59.629 53.1712 60.9265C53.503 61.5927 53.8357 62.2579 54.1675 62.9241C53.0238 66.5087 52.3593 70.1713 52.175 73.9108C48.8546 73.2446 45.5332 72.5794 42.2128 71.9132Z" fill="#1A3043"/>
<path fill-rule="evenodd" clip-rule="evenodd" d="M82.0617 64.9216C88.3011 84.0006 92.6177 103.644 95.0127 123.85C94.0164 123.85 93.0202 123.85 92.024 123.85C90.1959 123.229 89.0333 121.897 88.5372 119.855C83.6746 107.386 78.5271 95.0672 73.0957 82.8999C76.1033 76.8682 79.092 70.8755 82.0617 64.9216Z" fill="#102637"/>
<path fill-rule="evenodd" clip-rule="evenodd" d="M42.2121 71.9132C37.2459 75.2442 34.2573 73.9118 33.2461 67.918C35.7994 67.2189 38.29 66.2201 40.7178 64.9216C42.5219 65.4989 44.349 65.9983 46.197 66.4198C45.0364 68.4094 43.7084 70.2402 42.2121 71.9132Z" fill="#B47FF0"/>
<path fill-rule="evenodd" clip-rule="evenodd" d="M26.2722 72.912C23.5954 72.7482 20.9384 72.915 18.3024 73.4114C17.7485 73.7939 17.4168 74.2933 17.3062 74.9096C16.2093 76.0063 14.8814 76.1731 13.3213 75.409C15.3187 72.5674 17.9747 70.7366 21.2911 69.9156C20.2889 69.0207 20.2889 68.3555 21.2911 67.918C23.7279 68.9408 25.3876 70.6058 26.2722 72.912Z" fill="#28314F"/>
<path fill-rule="evenodd" clip-rule="evenodd" d="M26.2727 72.912C26.9371 72.912 27.2689 73.2446 27.2689 73.9108C27.4402 74.9016 27.1075 75.5668 26.2727 75.9084C23.3926 75.0065 20.4039 74.6739 17.3066 74.9096C17.4172 74.2933 17.749 73.7939 18.3029 73.4114C20.9389 72.915 23.5958 72.7482 26.2727 72.912Z" fill="#DCBAB1"/>
<g opacity="0.5">
<path fill-rule="evenodd" clip-rule="evenodd" d="M148.808 39.9518C142.485 53.7791 141.324 68.0948 145.321 82.8999C155.63 103.801 172.399 112.79 195.63 109.867C195.716 110.862 195.383 111.694 194.634 112.364C192.65 112.738 190.99 113.57 189.653 114.861C168.797 119.48 152.359 112.821 140.34 94.8855C133.41 80.3979 133.078 65.7496 139.343 50.9385C141.619 46.4949 144.774 42.8323 148.808 39.9518Z" fill="#2B0952"/>
</g>
<path fill-rule="evenodd" clip-rule="evenodd" d="M214.559 97.8819C208.735 107.027 200.433 112.687 189.653 114.861C190.99 113.57 192.651 112.738 194.634 112.364C195.384 111.694 195.716 110.862 195.631 109.867C199.143 108.297 202.797 106.799 206.589 105.373C209.116 102.671 211.773 100.174 214.559 97.8819Z" fill="#4B108D" fill-opacity="0.1"/>
<g opacity="0.1">
<path fill-rule="evenodd" clip-rule="evenodd" d="M26.2718 131.841C25.2756 131.841 24.2794 131.841 23.2831 131.841C20.3921 129.107 18.0679 125.944 16.3096 122.352C16.6413 121.853 16.9741 121.354 17.3058 120.854C18.6148 121.666 19.7774 122.665 20.7926 123.85C20.959 123.518 21.1243 123.184 21.2907 122.852C18.9436 120.144 18.2791 117.148 19.2982 113.863C21.8306 116.277 23.325 119.273 23.7813 122.852C23.8789 120.735 24.7087 119.07 26.2718 117.858C27.3368 122.508 27.3368 127.168 26.2718 131.841Z" fill="#4B108D"/>
</g>
<path fill-rule="evenodd" clip-rule="evenodd" d="M92.0226 123.85C93.0188 123.85 94.015 123.85 95.0113 123.85C96.3392 125.848 97.6682 127.846 98.9962 129.843C96.3392 128.512 93.6833 127.179 91.0264 125.848C91.3581 125.182 91.6908 124.517 92.0226 123.85Z" fill="#E4C2B8"/>
<path fill-rule="evenodd" clip-rule="evenodd" d="M91.0264 125.848C93.6833 127.179 96.3392 128.512 98.9962 129.843C100.45 129.776 101.778 130.109 102.981 130.842C102.981 131.508 102.981 132.173 102.981 132.84C99.4146 133.416 96.4259 132.417 94.015 129.843C93.3416 130.944 92.6781 131.943 92.0226 132.84C92.2587 131.55 91.927 130.551 91.0264 129.843C91.0264 128.512 91.0264 127.179 91.0264 125.848Z" fill="#2A314D"/>
<path fill-rule="evenodd" clip-rule="evenodd" d="M91.0265 129.843C91.9271 130.551 92.2588 131.55 92.0227 132.84C59.7948 133.234 36.8817 132.901 23.2832 131.841C24.2794 131.841 25.2757 131.841 26.2719 131.841C48.2147 132.496 69.7989 131.83 91.0265 129.843Z" fill="#AAB5BF"/>
<path fill-rule="evenodd" clip-rule="evenodd" d="M102.982 130.842C148.002 132.169 148.002 132.835 102.982 132.84C102.982 132.173 102.982 131.508 102.982 130.842Z" fill="#ACB7B7"/>
</svg>
