<svg width="266" height="166" viewBox="0 0 266 166" fill="none" xmlns="http://www.w3.org/2000/svg">
<path fill-rule="evenodd" clip-rule="evenodd" d="M155 0C158 1.332 161 1.332 164 0C164.901 0.789407 165.568 1.78866 166 2.99775C161.667 2.99775 157.333 2.99775 153 2.99775C153.432 1.78866 154.099 0.789407 155 0Z" fill="#99B2E9"/>
<g opacity="0.1">
<path fill-rule="evenodd" clip-rule="evenodd" d="M166 2.99779C177.374 2.20638 188.374 3.87213 199 7.99403C199.942 7.88611 200.775 7.55336 201.5 6.99478C201.956 8.23785 201.456 9.07022 200 9.49291C201.973 9.98754 203.973 10.1544 206 9.99253C200.939 10.5201 196.439 12.5186 192.5 15.988C190.284 20.3527 190.784 24.3497 194 27.979C183.333 27.979 172.667 27.979 162 27.979C162 25.314 162 22.65 162 19.985C166.964 18.2613 166.964 16.7624 162 15.4884C168.667 14.4892 168.667 13.4899 162 12.4907C163.634 11.997 165.301 11.8312 167 11.991C167 10.659 167 9.32603 167 7.99403C160.459 7.95606 160.459 7.29056 167 5.99554C165.422 5.19813 163.756 4.69851 162 4.49666C163.558 4.28682 164.891 3.78719 166 2.99779Z" fill="#4B108D"/>
</g>
<path fill-rule="evenodd" clip-rule="evenodd" d="M153 3.99699C153 3.66424 153 3.33049 153 2.99774C157.333 2.99774 161.667 2.99774 166 2.99774C164.891 3.78715 163.558 4.28677 162 4.49662C163.756 4.69846 165.422 5.19809 167 5.99549C160.459 7.29052 160.459 7.95602 167 7.99399C167 9.32599 167 10.659 167 11.991C165.301 11.8311 163.634 11.997 162 12.4906C168.667 13.4899 168.667 14.4891 162 15.4884C166.964 16.7624 166.964 18.2613 162 19.985C160.667 19.985 159.333 19.985 158 19.985C154.051 19.7921 154.051 19.2925 158 18.4861C151.333 17.4869 151.333 16.4876 158 15.4884C151.427 14.9608 151.427 14.1274 158 12.9902C151.427 11.8531 151.427 11.0197 158 10.4921C150 9.49286 150 8.49361 158 7.49436C151.427 6.96676 151.427 6.13339 158 4.99624C156.455 4.04495 154.788 3.7122 153 3.99699Z" fill="#6377AF"/>
<g opacity="0.1">
<path fill-rule="evenodd" clip-rule="evenodd" d="M153 2.99774C153 3.33049 153 3.66424 153 3.99699C151.458 7.62027 150.458 11.4504 150 15.4884C151.236 18.8658 153.57 20.6984 157 20.9842C157 23.3155 157 25.6477 157 27.979C144 27.979 131 27.979 118 27.979C121.005 24.9473 124.338 22.1154 128 19.4854C130.886 16.9453 130.553 15.1136 127 13.9895C126.022 14.4661 125.189 15.1316 124.5 15.988C124.349 13.3709 123.515 11.0387 122 8.99324C123.189 8.06493 124.522 7.73218 126 7.99399C125.781 6.81987 126.114 5.82062 127 4.99624C128.898 6.96276 131.231 8.29576 134 8.99324C132.689 9.75067 132.189 10.7499 132.5 11.991C133.241 10.8508 134.075 10.8508 135 11.991C136.345 11.1446 137.345 9.9795 138 8.49361C143.542 7.00973 148.542 5.1771 153 2.99774Z" fill="#4B108D"/>
</g>
<path fill-rule="evenodd" clip-rule="evenodd" d="M153 3.99699C154.788 3.7122 156.455 4.04495 158 4.99624C151.427 6.13338 151.427 6.96675 158 7.49436C150 8.49361 150 9.49286 158 10.4921C151.427 11.0197 151.427 11.8531 158 12.9902C151.427 14.1274 151.427 14.9607 158 15.4884C151.333 16.4876 151.333 17.4869 158 18.4861C154.051 19.2925 154.051 19.7921 158 19.985C158 22.65 158 25.314 158 27.979C157.667 27.979 157.333 27.979 157 27.979C157 25.6477 157 23.3155 157 20.9842C153.57 20.6984 151.236 18.8658 150 15.4884C150.458 11.4504 151.458 7.62026 153 3.99699Z" fill="#DDD9F4"/>
<path fill-rule="evenodd" clip-rule="evenodd" d="M206.001 9.99252C215.865 8.58058 224.365 11.2446 231.501 17.9865C232.477 21.8106 231.644 25.1411 229.001 27.979C227.892 28.036 226.892 28.3687 226.001 28.9783C220.372 31.6193 214.372 32.6185 208.001 31.976C207.962 30.8938 207.628 29.8946 207.001 28.9783C202.718 27.987 198.385 27.6533 194.001 27.979C190.785 24.3497 190.285 20.3527 192.501 15.988C196.44 12.5186 200.94 10.5201 206.001 9.99252Z" fill="#DEACD7"/>
<path fill-rule="evenodd" clip-rule="evenodd" d="M210.001 18.9857C213.457 20.021 213.791 21.6867 211.001 23.982C208.797 22.701 208.463 21.0352 210.001 18.9857Z" fill="#FDF1FC"/>
<path fill-rule="evenodd" clip-rule="evenodd" d="M220 18.9857C223.661 18.8358 224.661 20.3347 223 23.4823C219.207 23.969 218.207 22.4701 220 18.9857Z" fill="#FBE9F9"/>
<path fill-rule="evenodd" clip-rule="evenodd" d="M200 18.9857C202.889 19.4844 203.556 20.9832 202 23.4824C201.052 23.965 200.052 24.1309 199 23.982C198.866 22.1913 199.199 20.5266 200 18.9857Z" fill="#FDEDFC"/>
<path fill-rule="evenodd" clip-rule="evenodd" d="M59 16.9872C59.979 18.2513 60.979 19.5843 62 20.9842C60.414 23.4054 59.414 26.0704 59 28.9782C56.231 29.6757 53.898 31.0087 52 32.9752C50.231 30.9198 48.231 29.0882 46 27.4794C47.667 27.1466 49.333 26.8129 51 26.4801C53.493 20.5116 54.493 21.0112 54 27.979C57.725 27.6992 58.892 25.7007 57.5 21.9835C57 21.4839 56.5 20.9842 56 20.4846C57.556 19.7652 58.556 18.599 59 16.9872Z" fill="#EDDDE8"/>
<path fill-rule="evenodd" clip-rule="evenodd" d="M118 27.979C131 27.979 144 27.979 157 27.979C157.333 27.979 157.667 27.979 158 27.979C158 28.3117 158 28.6455 158 28.9782C128 28.9782 97.9995 28.9782 67.9995 28.9782C67.9995 31.3095 67.9995 33.6417 67.9995 35.973C67.0265 33.5268 66.6935 30.8618 66.9995 27.979C83.9995 27.979 101 27.979 118 27.979Z" fill="#99A3D0"/>
<path fill-rule="evenodd" clip-rule="evenodd" d="M158 28.9782C158 31.3095 158 33.6417 158 35.973C128 35.973 98 35.973 68 35.973C68 33.6417 68 31.3095 68 28.9782C98 28.9782 128 28.9782 158 28.9782Z" fill="#4F5FA5"/>
<path fill-rule="evenodd" clip-rule="evenodd" d="M162 28.9782C176.667 28.9782 191.333 28.9782 206 28.9782C206 31.3095 206 33.6417 206 35.973C191.333 35.973 176.667 35.973 162 35.973C162 33.6417 162 31.3095 162 28.9782Z" fill="#4A64A5"/>
<path fill-rule="evenodd" clip-rule="evenodd" d="M229 27.979C229.157 29.3509 228.99 30.6839 228.5 31.976C226.793 33.5118 225.293 35.1776 224 36.9722C223.667 36.9722 223.333 36.9722 223 36.9722C222.178 38.8598 221.345 40.8583 220.5 42.9677C217.927 44.2727 215.594 45.9385 213.5 47.964C213.003 50.608 212.836 53.273 213 55.958C209.683 58.586 207.35 61.9165 206 65.9504C206 65.6177 206 65.2839 206 64.9512C206 61.9534 206 58.9557 206 55.958C207 55.958 208 55.958 209 55.958C209.116 52.6005 209.449 49.27 210 45.9655C212.42 43.3804 215.254 41.3819 218.5 39.97C218.833 37.9715 219.167 35.973 219.5 33.9745C222.062 32.7484 224.228 31.0826 226 28.9782C226.891 28.3687 227.891 28.0359 229 27.979Z" fill="#84BBC6"/>
<path fill-rule="evenodd" clip-rule="evenodd" d="M68 35.973C98 35.973 128 35.973 158 35.973C158 43.3005 158 50.6289 158 57.9564C156.667 57.9564 155.333 57.9564 154 57.9564C153.333 66.4591 152.667 75.1195 152 83.9369C150.547 81.0141 149.547 78.0164 149 74.9437C148.01 71.1865 145.51 69.188 141.5 68.9482C138.159 69.5028 135.326 70.6689 133 72.4456C133.529 70.0184 134.863 68.1868 137 66.9497C135.779 63.1136 135.112 63.1136 135 66.9497C132.262 66.4151 130.428 67.4143 129.5 69.9474C127.432 69.1061 125.265 69.1061 123 69.9474C122 69.7806 121 69.6147 120 69.4478C121.508 67.9419 122.841 66.2772 124 64.4516C120.945 63.6931 118.445 64.5255 116.5 66.9497C116.222 66.0344 115.722 65.3689 115 64.9512C115.763 64.1838 116.763 63.6841 118 63.4523C116.116 63.2365 114.449 62.57 113 61.4538C115.918 60.6065 118.584 59.2735 121 57.4568C120.22 54.7608 118.887 52.4296 117 50.4621C111.176 50.4321 105.176 50.2662 99 49.9625C94.083 50.0224 89.417 50.6889 85 51.9609C84.348 50.7369 83.181 50.0704 81.5 49.9625C76.68 49.1321 71.847 48.4656 67 47.964C67.93 44.0669 68.263 40.0699 68 35.973Z" fill="#9FE9FD"/>
<path fill-rule="evenodd" clip-rule="evenodd" d="M226 28.9782C224.228 31.0827 222.062 32.7484 219.5 33.9745C219.167 35.973 218.833 37.9715 218.5 39.97C215.254 41.3819 212.42 43.3804 210 45.9655C209.974 41.2021 209.307 36.5386 208 31.976C214.371 32.6185 220.371 31.6193 226 28.9782Z" fill="#F2E3F0"/>
<path fill-rule="evenodd" clip-rule="evenodd" d="M162 35.973C176.667 35.973 191.333 35.973 206 35.973C206 42.635 206 49.296 206 55.9579C206 58.9557 206 61.9534 206 64.9512C193.333 64.9512 180.667 64.9512 168 64.9512C168.295 62.7179 167.961 60.7194 167 58.9557C166.667 58.9557 166.333 58.9557 166 58.9557C164.932 58.0224 163.599 57.6886 162 57.9564C162 50.6289 162 43.3005 162 35.973Z" fill="#9DE9FE"/>
<path fill-rule="evenodd" clip-rule="evenodd" d="M162 28.9782C162 28.6455 162 28.3117 162 27.979C172.667 27.979 183.333 27.979 194 27.979C198.384 27.6532 202.717 27.987 207 28.9782C207.627 29.8945 207.961 30.8938 208 31.976C209.307 36.5386 209.974 41.202 210 45.9655C209.449 49.27 209.116 52.6005 209 55.958C208 55.958 207 55.958 206 55.958C206 49.296 206 42.635 206 35.973C206 33.6417 206 31.3095 206 28.9782C191.333 28.9782 176.667 28.9782 162 28.9782Z" fill="#819FC0"/>
<path fill-rule="evenodd" clip-rule="evenodd" d="M158 19.985C159.333 19.985 160.667 19.985 162 19.985C162 22.65 162 25.314 162 27.979C162 28.3117 162 28.6455 162 28.9782C162 31.3095 162 33.6417 162 35.973C162 43.3005 162 50.629 162 57.9565C163.599 57.6887 164.932 58.0224 166 58.9557C162 58.9557 158 58.9557 154 58.9557C154 58.623 154 58.2892 154 57.9565C155.333 57.9565 156.667 57.9565 158 57.9565C158 50.629 158 43.3005 158 35.973C158 33.6417 158 31.3095 158 28.9782C158 28.6455 158 28.3117 158 27.979C158 25.314 158 22.65 158 19.985Z" fill="#66B5F2"/>
<path fill-rule="evenodd" clip-rule="evenodd" d="M223 36.9722C223.165 39.988 222.998 42.9857 222.5 45.9655C219.81 47.4913 217.643 49.4898 216 51.961C214.643 53.0501 213.643 54.3831 213 55.958C212.836 53.273 213.003 50.608 213.5 47.964C215.594 45.9385 217.927 44.2727 220.5 42.9677C221.345 40.8583 222.178 38.8598 223 36.9722Z" fill="#5F9EB0"/>
<g opacity="0.1">
<path fill-rule="evenodd" clip-rule="evenodd" d="M66 47.9639C65.709 49.1121 64.876 49.7786 63.5 49.9624C61.963 49.3489 60.63 49.3489 59.5 49.9624C57.619 53.7666 56.453 57.7636 56 61.9534C56 75.2764 56 88.6004 56 101.923C53.313 102.087 50.646 101.92 48 101.424C45.738 95.9009 42.071 91.5712 37 88.4335C36.333 87.767 35.667 87.767 35 88.4335C38.779 99.1505 43.779 109.31 50 118.911C49.876 119.517 49.543 119.85 49 119.91C46.597 120.017 44.764 119.018 43.5 116.912C42.771 112.813 40.938 109.316 38 106.42C33.695 105.406 29.361 104.573 25 103.922C23.5 101.591 22 99.2584 20.5 96.9272C18.405 95.3034 16.239 93.9714 14 92.9302C15.93 84.0748 19.763 76.0808 25.5 68.9482C25.997 66.6399 26.163 64.3087 26 61.9534C27.052 62.1023 28.052 61.9364 29 61.4538C31.927 59.0736 34.761 56.5755 37.5 53.9594C36.569 52.4566 35.902 50.7908 35.5 48.9632C37.564 50.0534 39.731 50.2203 42 49.4628C45.646 47.1625 49.313 44.8303 53 42.4681C57.196 40.6994 61.529 39.5333 66 38.9707C66 41.9685 66 44.9662 66 47.9639Z" fill="#4B108D"/>
</g>
<path fill-rule="evenodd" clip-rule="evenodd" d="M66 47.964C66.333 47.964 66.667 47.964 67 47.964C71.847 48.4656 76.68 49.1321 81.5 49.9625C83.181 50.0704 84.348 50.7369 85 51.961C84.266 53.168 83.933 54.5 84 55.958C81.163 62.4461 78.496 69.1081 76 75.9429C72.812 74.519 69.812 72.8533 67 70.9467C64.531 69.8785 62.198 68.5465 60 66.9497C61.205 65.4558 61.205 64.1238 60 62.9527C58.932 62.0194 57.599 61.6856 56 61.9534C56.453 57.7636 57.619 53.7666 59.5 49.9625C60.63 49.3489 61.963 49.3489 63.5 49.9625C64.876 49.7786 65.709 49.1121 66 47.964Z" fill="#4D60A4"/>
<path fill-rule="evenodd" clip-rule="evenodd" d="M115 64.9512C115.462 72.0149 113.796 72.6814 110 66.9497C108.565 68.2727 107.565 69.9375 107 71.9459C105.805 70.1503 104.138 69.151 102 68.9482C102 70.2802 102 71.6132 102 72.9452C99.333 73.2779 96.667 73.6117 94 73.9444C94.172 75.9349 93.505 77.5997 92 78.9407C92.209 79.5263 92.543 80.0259 93 80.4396C89.344 81.2749 86.01 80.6084 83 78.4411C87.054 76.5015 86.72 75.6681 82 75.9429C81.744 73.5078 81.077 71.1755 80 68.9482C80.742 68.1618 81.575 67.4963 82.5 66.9497C83.048 63.2825 83.548 59.6182 84 55.958C83.933 54.5001 84.266 53.1681 85 51.961C89.417 50.6889 94.083 50.0224 99 49.9625C105.176 50.2662 111.176 50.4321 117 50.4621C118.887 52.4296 120.22 54.7609 121 57.4568C118.584 59.2735 115.918 60.6065 113 61.4538C114.449 62.57 116.116 63.2365 118 63.4523C116.763 63.6842 115.763 64.1838 115 64.9512Z" fill="#B4ECFD"/>
<path fill-rule="evenodd" clip-rule="evenodd" d="M253 50.9618C255.687 50.7979 258.354 50.9648 261 51.4614C261.944 54.1783 262.277 57.0092 262 59.955C258 59.955 254 59.955 250 59.955C249.549 56.3537 250.549 53.356 253 50.9618Z" fill="#ECDDE8"/>
<path fill-rule="evenodd" clip-rule="evenodd" d="M223 36.9722C223.333 36.9722 223.667 36.9722 224 36.9722C224 39.97 224 42.9677 224 45.9655C226.424 46.2732 228.757 45.9395 231 44.9662C231.873 43.0547 232.873 41.222 234 39.4704C237.527 39.3255 240.86 38.4931 244 36.9722C244.333 37.1391 244.667 37.305 245 37.4719C244.434 38.4661 243.767 39.2985 243 39.97C236.734 39.898 232.734 42.8958 231 48.9632C228.323 49.5368 225.657 50.2033 223 50.9617C222 52.9602 221 54.9587 220 56.9572C219.175 57.8425 218.175 58.1753 217 57.9565C216.35 56.0229 216.017 54.0244 216 51.961C217.643 49.4898 219.81 47.4913 222.5 45.9655C222.998 42.9857 223.165 39.988 223 36.9722Z" fill="#ACCDD2"/>
<path fill-rule="evenodd" clip-rule="evenodd" d="M243 39.97C240.902 42.1374 238.402 43.8021 235.5 44.9663C235.291 50.5051 232.457 53.336 227 53.4599C225.171 54.572 224.337 56.0709 224.5 57.9565C229.929 54.9707 235.762 52.9722 242 51.961C242.667 52.2938 243.333 52.6275 244 52.9603C241.823 55.2166 239.157 56.7154 236 57.4569C234.891 59.3315 233.891 61.1631 233 62.9527C230.671 64.5006 228.004 65.334 225 65.4509C220.011 65.9495 215.011 66.1164 210 65.9505C211.981 64.1488 214.148 62.4831 216.5 60.9542C216.983 60.007 217.149 59.0077 217 57.9565C218.175 58.1753 219.175 57.8426 220 56.9573C221 54.9588 222 52.9603 223 50.9618C225.657 50.2033 228.323 49.5368 231 48.9633C232.734 42.8958 236.734 39.8981 243 39.97Z" fill="#84BBC1"/>
<path fill-rule="evenodd" clip-rule="evenodd" d="M154 58.9557C158 58.9557 162 58.9557 166 58.9557C166.65 74.3152 165.984 89.3039 164 103.922C160.667 103.922 157.333 103.922 154 103.922C154 88.9332 154 73.9444 154 58.9557Z" fill="#4E62A5"/>
<path fill-rule="evenodd" clip-rule="evenodd" d="M216 51.961C216.017 54.0244 216.35 56.0229 217 57.9565C217.149 59.0077 216.983 60.0069 216.5 60.9542C214.148 62.4831 211.981 64.1488 210 65.9505C209.333 65.9505 209 66.2832 209 66.9497C208 66.9497 207 66.9497 206 66.9497C206 66.617 206 66.2832 206 65.9505C207.35 61.9165 209.683 58.586 213 55.958C213.643 54.3831 214.643 53.0501 216 51.961Z" fill="#407F9D"/>
<path fill-rule="evenodd" clip-rule="evenodd" d="M84 55.9579C83.548 59.6182 83.048 63.2824 82.5 66.9497C81.575 67.4963 80.742 68.1618 80 68.9482C81.077 71.1755 81.744 73.5078 82 75.9429C86.72 75.6681 87.054 76.5015 83 78.4411C86.01 80.6084 89.344 81.2749 93 80.4396C92.543 80.0259 92.209 79.5262 92 78.9407C93.505 77.5997 94.172 75.9349 94 73.9444C96.667 73.6117 99.333 73.2779 102 72.9452C102 71.6132 102 70.2802 102 68.9482C104.138 69.151 105.805 70.1503 107 71.9459C107.565 69.9374 108.565 68.2727 110 66.9497C113.796 72.6814 115.462 72.0149 115 64.9512C115.722 65.3689 116.222 66.0344 116.5 66.9497C118.445 64.5255 120.945 63.6931 124 64.4516C122.841 66.2772 121.508 67.9419 120 69.4478C121 69.6147 122 69.7806 123 69.9474C125.265 69.1061 127.432 69.1061 129.5 69.9474C130.428 67.4143 132.262 66.4151 135 66.9497C135.112 63.1136 135.779 63.1136 137 66.9497C134.863 68.1868 133.529 70.0184 133 72.4456C135.326 70.6689 138.159 69.5028 141.5 68.9482C145.51 69.188 148.01 71.1865 149 74.9437C146.338 73.177 143.338 72.5105 140 72.9452C140 74.2772 140 75.6102 140 76.9422C139.825 79.0616 140.159 81.0601 141 82.9377C141 83.9369 141 84.9362 141 85.9354C140.288 84.6974 139.288 84.1977 138 84.4366C136.481 87.2984 134.814 90.1293 133 92.9302C130.979 91.5762 129.312 89.9114 128 87.9339C128 87.6012 128 87.2674 128 86.9347C129.148 82.457 129.315 77.7935 128.5 72.9452C124.557 70.0813 120.89 70.4151 117.5 73.9444C115.67 78.4091 113.837 82.4061 112 85.9354C111.096 86.6439 110.763 87.6431 111 88.9332C110.031 86.7718 109.198 84.4405 108.5 81.9384C107.306 84.0598 106.64 86.3921 106.5 88.9332C104.675 89.5357 102.841 90.2022 101 90.9317C100.333 93.5967 99.667 96.2607 99 98.9257C97.578 99.9719 96.078 99.9719 94.5 98.9257C92.112 102.49 89.612 102.656 87 99.4253C87.916 99.1475 88.582 98.6479 89 97.9264C90.333 97.2599 90.333 96.5944 89 95.9279C89.086 94.9327 88.752 94.1003 88 93.4298C86.667 93.097 85.333 92.7633 84 92.4305C86.759 89.8585 86.426 87.6941 83 85.9354C85.21 84.2277 85.377 82.2292 83.5 79.9399C78.13 84.0209 72.63 87.6851 67 90.9317C67 84.2697 67 77.6087 67 70.9467C69.812 72.8533 72.812 74.519 76 75.9429C78.496 69.1081 81.163 62.4461 84 55.9579Z" fill="#A5E2F9"/>
<path fill-rule="evenodd" clip-rule="evenodd" d="M206 66.9497C207 66.9497 208 66.9497 209 66.9497C216.519 66.625 223.852 66.9577 231 67.949C210.667 67.949 190.333 67.949 170 67.949C170 80.6065 170 93.263 170 105.92C169.667 105.92 169.333 105.92 169 105.92C169 92.9302 169 79.94 169 66.9497C181.333 66.9497 193.667 66.9497 206 66.9497Z" fill="#B598C5"/>
<path fill-rule="evenodd" clip-rule="evenodd" d="M231 67.9489C231.904 68.6574 232.237 69.6567 232 70.9467C232 73.2779 232 75.6102 232 77.9414C232 78.6079 231.667 78.9407 231 78.9407C231 75.6102 231 72.2787 231 68.9482C221.328 68.7823 211.661 68.9482 202 69.4478C203 69.7806 204 70.1143 205 70.4471C206.333 71.1136 206.333 71.7791 205 72.4456C207.833 72.6124 210.667 72.7783 213.5 72.9452C218.701 72.7813 223.535 71.7821 228 69.9474C228.116 73.3549 226.45 74.6879 223 73.9444C222.69 77.155 223.023 80.1528 224 82.9377C222.992 84.9801 221.992 86.9786 221 88.9332C221 84.2697 221 79.6072 221 74.9437C207.333 74.9437 193.667 74.9437 180 74.9437C185.81 73.9544 191.81 73.6217 198 73.9444C197.786 72.3017 198.12 70.8028 199 69.4478C191.488 68.6264 184.155 68.7933 177 69.9474C175.667 69.9474 174.333 69.9474 173 69.9474C172.94 69.4049 172.607 69.0721 172 68.9482C171 99.2514 170.667 129.562 171 159.88C180.025 160.212 189.025 159.878 198 158.881C197.254 157.646 196.921 156.313 197 154.884C189.669 154.354 182.502 155.021 175.5 156.882C172.299 154.699 172.299 152.7 175.5 150.887C176.373 151.121 177.207 151.455 178 151.886C178.667 126.408 179.333 101.094 180 75.9429C180 101.257 180 126.572 180 151.886C180.418 152.607 181.084 153.107 182 153.385C195.27 154.513 208.604 154.68 222 153.884C222 140.894 222 127.904 222 114.914C222.667 126.745 223.333 138.736 224 150.887C227.585 149.675 228.751 151.007 227.5 154.884C219.817 154.978 211.984 154.978 204 154.884C204 156.216 204 157.549 204 158.881C212.667 158.881 221.333 158.881 230 158.881C229.833 145.886 230 132.896 230.5 119.91C230.732 118.674 231.232 117.675 232 116.912C232 131.568 232 146.223 232 160.879C211.333 160.879 190.667 160.879 170 160.879C170 142.56 170 124.24 170 105.92C170 93.2629 170 80.6064 170 67.9489C190.333 67.9489 210.667 67.9489 231 67.9489Z" fill="#D282BD"/>
<path fill-rule="evenodd" clip-rule="evenodd" d="M233 62.9527C233.077 64.2018 233.744 65.0341 235 65.4508C237.576 66.0564 239.91 65.5567 242 63.9519C244.339 65.7706 247.006 66.9367 250 67.4493C246.524 68.7024 242.858 69.3689 239 69.4478C237.073 72.0119 234.74 72.5115 232 70.9467C232.237 69.6567 231.904 68.6574 231 67.9489C223.852 66.9577 216.519 66.6249 209 66.9497C209 66.2832 209.333 65.9504 210 65.9504C215.011 66.1163 220.011 65.9494 225 65.4508C228.004 65.3339 230.671 64.5005 233 62.9527Z" fill="#A1BAC1"/>
<path fill-rule="evenodd" clip-rule="evenodd" d="M231 78.9406C228.504 80.0198 226.17 81.3528 224 82.9376C223.023 80.1527 222.69 77.155 223 73.9444C226.45 74.6878 228.116 73.3548 228 69.9474C223.535 71.782 218.701 72.7813 213.5 72.9452C210.667 72.7783 207.833 72.6124 205 72.4455C206.333 71.779 206.333 71.1135 205 70.447C204 70.1143 203 69.7805 202 69.4478C211.661 68.9482 221.328 68.7823 231 68.9482C231 72.2787 231 75.6102 231 78.9406Z" fill="#DC7AB9"/>
<path fill-rule="evenodd" clip-rule="evenodd" d="M149 74.9437C149.086 79.2974 149.42 83.6272 150 87.9339C146.405 89.6157 143.405 88.9502 141 85.9354C141 84.9362 141 83.9369 141 82.9377C141.639 82.3411 141.972 81.5088 142 80.4396C142.113 78.7418 141.447 77.5757 140 76.9422C140 75.6102 140 74.2772 140 72.9452C143.338 72.5105 146.338 73.177 149 74.9437Z" fill="#251B19"/>
<path fill-rule="evenodd" clip-rule="evenodd" d="M128 86.9347C127.021 85.291 125.688 83.958 124 82.9377C124.693 81.9205 125.359 80.9212 126 79.94C127.314 77.5468 127.314 75.0486 126 72.4456C124.043 73.7306 121.71 74.563 119 74.9437C118.763 76.2338 119.096 77.233 120 77.9415C120 79.94 120 81.9385 120 83.937C117.187 83.4623 115.187 84.4616 114 86.9347C113.008 87.1066 112.342 86.7728 112 85.9355C113.837 82.4061 115.67 78.4091 117.5 73.9445C120.89 70.4151 124.557 70.0814 128.5 72.9452C129.315 77.7936 129.148 82.4571 128 86.9347Z" fill="#24191A"/>
<path fill-rule="evenodd" clip-rule="evenodd" d="M126 79.9399C126.299 77.8375 125.966 75.839 125 73.9444C123.011 75.0756 121.344 76.4076 120 77.9414C119.096 77.233 118.763 76.2337 119 74.9437C121.71 74.563 124.043 73.7306 126 72.4456C127.314 75.0486 127.314 77.5467 126 79.9399Z" fill="#9F5B4A"/>
<path fill-rule="evenodd" clip-rule="evenodd" d="M60.0003 62.9527C61.2053 64.1238 61.2053 65.4558 60.0003 66.9497C62.1983 68.5465 64.5313 69.8785 67.0003 70.9467C67.0003 77.6087 67.0003 84.2697 67.0003 90.9317C67.0003 91.2644 67.0003 91.5982 67.0003 91.9309C65.4833 91.9199 64.3163 91.2544 63.5003 89.9324C63.1673 85.9354 62.8333 81.9384 62.5003 77.9414C61.4613 76.7323 60.2943 75.7331 59.0003 74.9437C59.0003 74.2772 58.6673 73.9444 58.0003 73.9444C57.4203 69.7986 58.0863 66.1343 60.0003 62.9527Z" fill="#F2E7F1"/>
<path fill-rule="evenodd" clip-rule="evenodd" d="M140 76.9422C141.447 77.5757 142.113 78.7418 142 80.4396C141.972 81.5088 141.639 82.3411 141 82.9377C140.159 81.0601 139.825 79.0616 140 76.9422Z" fill="#B79C90"/>
<g opacity="0.1">
<path fill-rule="evenodd" clip-rule="evenodd" d="M256 101.923C256.271 103.802 255.604 105.134 254 105.92C254.214 104.278 253.88 102.779 253 101.424C248.652 100.851 244.319 100.185 240 99.4253C235.81 96.7373 232.476 93.24 230 88.9332C227.757 87.9599 225.424 87.6262 223 87.9339C222.293 91.2175 221.96 94.548 222 97.9264C221.333 97.9264 220.667 97.9264 220 97.9264C220 95.5952 220 93.2629 220 90.9317C220 90.5989 220 90.2652 220 89.9324C220.667 89.9324 221 89.5997 221 88.9332C221.992 86.9787 222.992 84.9802 224 82.9377C226.17 81.3529 228.504 80.0199 231 78.9407C231.667 78.9407 232 78.6079 232 77.9414C237.065 78.2222 242.065 77.8895 247 76.9422C248.859 78.6329 250.859 80.1318 253 81.4388C258.329 87.5332 259.329 94.3611 256 101.923Z" fill="#4B108D"/>
</g>
<path fill-rule="evenodd" clip-rule="evenodd" d="M220 89.9324C220 90.2652 220 90.5989 220 90.9317C219.362 93.0031 218.362 95.0016 217 96.9272C205.977 103.994 194.977 111.155 184 118.411C183.052 118.894 182.052 119.06 181 118.911C181 104.921 181 90.9317 181 76.9422C194 76.9422 207 76.9422 220 76.9422C220 81.2719 220 85.6027 220 89.9324Z" fill="#99D0FD"/>
<path fill-rule="evenodd" clip-rule="evenodd" d="M154 57.9565C154 58.2892 154 58.623 154 58.9557C154 73.9444 154 88.9332 154 103.922C151.642 103.675 149.642 104.341 148 105.92C147.511 104.427 146.845 103.094 146 101.923C145.667 101.923 145.333 101.923 145 101.923C146.265 100.945 147.599 99.9459 149 98.9257C149.989 95.3214 150.323 91.6571 150 87.9339C149.42 83.6272 149.086 79.2974 149 74.9437C149.547 78.0164 150.547 81.0141 152 83.9369C152.667 75.1196 153.333 66.4591 154 57.9565Z" fill="#A3DCF8"/>
<path fill-rule="evenodd" clip-rule="evenodd" d="M167 58.9557C167.961 60.7194 168.295 62.7179 168 64.9512C180.667 64.9512 193.333 64.9512 206 64.9512C206 65.2839 206 65.6177 206 65.9504C206 66.2832 206 66.6169 206 66.9497C193.667 66.9497 181.333 66.9497 169 66.9497C169 79.9399 169 92.9302 169 105.92C168.667 105.92 168.333 105.92 168 105.92C168 105.254 167.667 104.921 167 104.921C167 89.5997 167 74.2772 167 58.9557Z" fill="#B4DAFB"/>
<path fill-rule="evenodd" clip-rule="evenodd" d="M166 58.9557C166.333 58.9557 166.667 58.9557 167 58.9557C167 74.2772 167 89.5997 167 104.921C165.709 105.158 164.709 104.825 164 103.922C165.984 89.3039 166.65 74.3152 166 58.9557Z" fill="#719DC9"/>
<path fill-rule="evenodd" clip-rule="evenodd" d="M88.9996 95.9279C82.8076 97.3958 76.4736 97.7286 69.9996 96.9272C69.6666 96.9272 69.3326 96.9272 68.9996 96.9272C68.3326 96.9272 67.9996 96.5944 67.9996 95.9279C67.2656 94.7208 66.9326 93.3888 66.9996 91.9309C66.9996 91.5982 66.9996 91.2644 66.9996 90.9317C72.6296 87.6851 78.1296 84.0209 83.4996 79.9399C85.3766 82.2292 85.2096 84.2277 82.9996 85.9354C86.4256 87.6941 86.7586 89.8585 83.9996 92.4306C85.3326 92.7633 86.6666 93.0971 87.9996 93.4298C88.7516 94.1003 89.0856 94.9327 88.9996 95.9279Z" fill="#485B9A"/>
<g opacity="0.1">
<path fill-rule="evenodd" clip-rule="evenodd" d="M253.999 105.92C251.558 107.494 250.392 109.825 250.499 112.915C249.596 114.115 248.43 114.949 246.999 115.413C242.01 115.912 237.01 116.079 231.999 115.913C228.579 111.837 225.579 107.507 222.999 102.923C222.389 102.032 222.056 101.033 221.999 99.9249C221.999 99.2584 221.999 98.5929 221.999 97.9264C221.959 94.548 222.292 91.2175 222.999 87.9339C225.423 87.6262 227.756 87.9599 229.999 88.9332C232.475 93.24 235.809 96.7373 239.999 99.4253C244.318 100.185 248.651 100.851 252.999 101.424C253.879 102.779 254.213 104.278 253.999 105.92Z" fill="#4B108D"/>
</g>
<path fill-rule="evenodd" clip-rule="evenodd" d="M141 85.9354C143.405 88.9502 146.405 89.6157 150 87.9339C150.323 91.6571 149.989 95.3214 149 98.9257C147.599 99.9459 146.265 100.945 145 101.923C141.042 102.851 138.375 101.518 137 97.9264C136.212 99.1955 135.212 100.195 134 100.924C132.378 98.7848 130.378 97.119 128 95.9279C127.378 94.3071 126.378 92.9751 125 91.9309C125.238 90.0283 126.238 88.6953 128 87.9339C129.312 89.9114 130.979 91.5762 133 92.9302C134.814 90.1293 136.481 87.2984 138 84.4365C139.288 84.1977 140.288 84.6973 141 85.9354Z" fill="#F4EFD2"/>
<path fill-rule="evenodd" clip-rule="evenodd" d="M126 79.9399C125.359 80.9212 124.693 81.9205 124 82.9377C125.688 83.9579 127.021 85.2909 128 86.9347C128 87.2674 128 87.6012 128 87.9339C126.238 88.6954 125.238 90.0284 125 91.9309C123.3 91.805 121.8 91.1385 120.5 89.9324C119.728 90.0773 119.061 90.4101 118.5 90.9317C114.962 97.19 112.795 103.852 112 110.917C111.383 111.028 110.883 111.36 110.5 111.916C110.003 109.608 109.837 107.276 110 104.921C111.127 98.8088 112.46 92.8133 114 86.9347C115.187 84.4615 117.187 83.4623 120 83.9369C120 81.9384 120 79.9399 120 77.9414C121.344 76.4076 123.011 75.0756 125 73.9444C125.966 75.839 126.299 77.8375 126 79.9399Z" fill="#DA7657"/>
<path fill-rule="evenodd" clip-rule="evenodd" d="M220 90.9317C220 93.2629 220 95.5952 220 97.9264C220.295 105.009 219.962 112.004 219 118.911C207.84 125.871 196.507 132.699 185 139.395C182.346 142.72 181.346 146.551 182 150.887C181.667 150.887 181.333 150.887 181 150.887C181 140.228 181 129.57 181 118.911C182.052 119.06 183.052 118.894 184 118.411C194.977 111.155 205.977 103.994 217 96.9272C218.362 95.0016 219.362 93.0031 220 90.9317Z" fill="#A8D8FE"/>
<path fill-rule="evenodd" clip-rule="evenodd" d="M111 88.9332C110.811 94.3921 110.145 99.7211 109 104.921C109 107.919 109 110.917 109 113.914C108.174 118.393 107.674 123.057 107.5 127.904C106.743 129.718 105.91 131.382 105 132.9C104.815 129.337 105.481 126.006 107 122.908C106.791 121.415 106.124 120.249 105 119.41C106.196 118.757 106.196 118.257 105 117.911C103.916 119.076 103.083 120.408 102.5 121.908C102.017 120.961 101.851 119.962 102 118.911C99.333 118.911 96.667 118.911 94 118.911C93.333 115.913 92.667 112.915 92 109.917C86.55 110.001 81.55 109.336 77 107.919C74.593 112.221 73.426 116.883 73.5 121.908C73.167 118.244 72.833 114.581 72.5 110.917C72.328 117.425 71.828 123.754 71 129.902C71 119.577 71 109.251 71 98.9257C77.029 99.0006 83.029 98.6669 89 97.9264C88.582 98.6479 87.916 99.1475 87 99.4253C89.612 102.656 92.112 102.49 94.5 98.9257C96.078 99.9719 97.578 99.9719 99 98.9257C99.667 96.2607 100.333 93.5967 101 90.9317C102.841 90.2022 104.675 89.5357 106.5 88.9332C106.64 86.3921 107.306 84.0599 108.5 81.9384C109.198 84.4406 110.031 86.7718 111 88.9332Z" fill="#9EDDFC"/>
<path fill-rule="evenodd" clip-rule="evenodd" d="M89.0004 95.9279C90.3334 96.5944 90.3334 97.2599 89.0004 97.9264C83.0294 98.6669 77.0294 99.0006 71.0004 98.9257C71.0004 109.251 71.0004 119.577 71.0004 129.902C71.0004 131.234 71.0004 132.567 71.0004 133.899C70.0054 121.754 69.6714 109.429 70.0004 96.9272C76.4744 97.7286 82.8084 97.3958 89.0004 95.9279Z" fill="#86B9E4"/>
<path fill-rule="evenodd" clip-rule="evenodd" d="M112 85.9354C112.342 86.7728 113.008 87.1065 114 86.9347C112.46 92.8133 111.127 98.8088 110 104.921C109.667 104.921 109.333 104.921 109 104.921C110.145 99.7211 110.811 94.3921 111 88.9332C110.763 87.6431 111.096 86.6439 112 85.9354Z" fill="#BAC9D2"/>
<path fill-rule="evenodd" clip-rule="evenodd" d="M125 91.9309C126.378 92.9751 127.378 94.3071 128 95.9279C128.24 102.503 129.24 108.831 131 114.914C131 117.245 131 119.577 131 121.908C130.683 126.107 131.017 130.104 132 133.899C131.834 140.569 132 147.231 132.5 153.884C132.883 154.44 133.383 154.773 134 154.884C133.718 156.161 133.051 157.16 132 157.881C130.45 158.822 128.784 159.487 127 159.88C117.416 160.852 107.75 161.185 98 160.879C98 160.546 98 160.213 98 159.88C100.646 151.051 102.98 142.057 105 132.9C105.91 131.382 106.743 129.718 107.5 127.904C107.674 123.057 108.174 118.393 109 113.914C108.835 116.93 109.002 119.928 109.5 122.908C110.658 118.984 111.491 114.987 112 110.917C112.795 103.852 114.962 97.19 118.5 90.9317C119.061 90.4101 119.728 90.0773 120.5 89.9324C121.8 91.1385 123.3 91.805 125 91.9309Z" fill="#FBEFF8"/>
<path fill-rule="evenodd" clip-rule="evenodd" d="M173 69.9475C172.667 72.9452 174 74.2772 177 73.9445C177 72.6125 177 71.2795 177 69.9475C184.155 68.7933 191.488 68.6265 199 69.4478C198.12 70.8028 197.786 72.3017 198 73.9445C191.81 73.6217 185.81 73.9545 180 74.9437C180 75.2765 180 75.6102 180 75.943C179.333 101.094 178.667 126.408 178 151.886C177.207 151.455 176.373 151.121 175.5 150.887C172.299 152.7 172.299 154.699 175.5 156.882C182.502 155.021 189.669 154.354 197 154.884C196.921 156.313 197.254 157.646 198 158.881C189.025 159.878 180.025 160.212 171 159.88C170.667 129.562 171 99.2515 172 68.9482C172.607 69.0721 172.94 69.4049 173 69.9475Z" fill="#DE78BA"/>
<path fill-rule="evenodd" clip-rule="evenodd" d="M173 69.9474C174.333 69.9474 175.667 69.9474 177 69.9474C177 71.2794 177 72.6124 177 73.9444C174 74.2772 172.667 72.9452 173 69.9474Z" fill="#FCC3E9"/>
<g opacity="0.1">
<path fill-rule="evenodd" clip-rule="evenodd" d="M248 153.884C248.329 141.383 247.995 129.058 247 116.912C242 116.912 237 116.912 232 116.912C232 116.579 232 116.246 232 115.913C237.011 116.079 242.011 115.912 247 115.413C248.431 114.949 249.597 114.115 250.5 112.915C250.393 109.825 251.559 107.494 254 105.92C255.604 105.134 256.271 103.802 256 101.923C256.913 99.1255 258.913 97.7935 262 97.9264C263.772 103.64 265.105 109.47 266 115.413C265.772 119.279 265.272 123.11 264.5 126.905C261.638 134.956 257.971 142.617 253.5 149.887C252.243 152.132 250.41 153.464 248 153.884Z" fill="#4B108D"/>
</g>
<path fill-rule="evenodd" clip-rule="evenodd" d="M180 74.9437C193.667 74.9437 207.333 74.9437 221 74.9437C221 79.6072 221 84.2697 221 88.9332C221 89.5997 220.667 89.9324 220 89.9324C220 85.6027 220 81.2719 220 76.9422C207 76.9422 194 76.9422 181 76.9422C181 90.9317 181 104.921 181 118.911C181 129.57 181 140.228 181 150.887C181 151.219 181 151.553 181 151.886C180.667 151.886 180.333 151.886 180 151.886C180 126.572 180 101.257 180 75.9429C180 75.6102 180 75.2764 180 74.9437Z" fill="#BCBAEC"/>
<path fill-rule="evenodd" clip-rule="evenodd" d="M56 101.923C56.327 111.764 55.994 121.423 55 130.902C54.667 130.902 54.333 130.902 54 130.902C54 129.57 54 128.237 54 126.905C54.008 123.22 52.341 120.889 49 119.91C49.543 119.85 49.876 119.517 50 118.911C43.779 109.31 38.779 99.1505 35 88.4336C35.667 87.7671 36.333 87.7671 37 88.4336C42.071 91.5712 45.738 95.9009 48 101.424C50.646 101.92 53.313 102.087 56 101.923Z" fill="#81BEC5"/>
<path fill-rule="evenodd" clip-rule="evenodd" d="M58 73.9444C58.667 73.9444 59 74.2772 59 74.9437C60.115 76.7493 60.781 78.7478 61 80.9392C58.725 86.577 59.892 91.2394 64.5 94.9287C64.667 95.9279 64.833 96.9272 65 97.9264C63.946 101.225 63.446 104.556 63.5 107.919C64.5 109.585 65.5 111.249 66.5 112.915C66.673 107.072 67.173 101.409 68 95.9279C68 96.5944 68.333 96.9272 69 96.9272C69.329 109.429 68.995 121.754 68 133.899C67.173 128.752 66.673 123.423 66.5 117.911C64.833 116.579 63.167 115.246 61.5 113.914C61.379 110.375 60.213 107.377 58 104.921C58 94.5959 58 84.2697 58 73.9444Z" fill="#AACDDD"/>
<path fill-rule="evenodd" clip-rule="evenodd" d="M59 74.9437C60.294 75.7331 61.461 76.7324 62.5 77.9414C62.833 81.9384 63.167 85.9354 63.5 89.9324C64.316 91.2544 65.483 91.9199 67 91.9309C66.933 93.3888 67.266 94.7208 68 95.9279C67.173 101.409 66.673 107.072 66.5 112.915C65.5 111.249 64.5 109.585 63.5 107.919C63.446 104.556 63.946 101.225 65 97.9264C64.833 96.9272 64.667 95.9279 64.5 94.9287C59.892 91.2395 58.725 86.577 61 80.9392C60.781 78.7478 60.115 76.7493 59 74.9437Z" fill="#8BB1B9"/>
<path fill-rule="evenodd" clip-rule="evenodd" d="M128 95.9279C130.378 97.119 132.378 98.7848 134 100.924C134 102.59 134 104.255 134 105.92C133.383 106.031 132.883 106.364 132.5 106.92C132.105 109.625 131.605 112.289 131 114.914C129.24 108.831 128.24 102.503 128 95.9279Z" fill="#A7D8F6"/>
<path fill-rule="evenodd" clip-rule="evenodd" d="M145 101.923C145.333 101.923 145.667 101.923 146 101.923C146 102.59 146 103.255 146 103.922C145.667 103.922 145.333 103.922 145 103.922C143.11 103.719 141.61 104.385 140.5 105.92C138.808 113.858 137.475 121.852 136.5 129.902C135.193 131.593 133.693 132.925 132 133.899C131.017 130.104 130.683 126.107 131 121.908C131.992 116.705 132.992 111.376 134 105.92C134 104.255 134 102.59 134 100.924C135.212 100.195 136.212 99.1955 137 97.9264C138.375 101.518 141.042 102.851 145 101.923Z" fill="#D45086"/>
<path fill-rule="evenodd" clip-rule="evenodd" d="M105 132.9C102.98 142.057 100.646 151.051 98.0004 159.88C92.6674 159.88 87.3334 159.88 82.0004 159.88C79.4054 153.047 76.0724 146.719 72.0004 140.894C71.2814 138.632 70.9484 136.301 71.0004 133.899C71.0004 132.567 71.0004 131.234 71.0004 129.902C71.8284 123.754 72.3284 117.425 72.5004 110.917C72.8334 114.581 73.1674 118.244 73.5004 121.908C73.4264 116.883 74.5934 112.221 77.0004 107.919C81.5504 109.336 86.5504 110.001 92.0004 109.917C92.6674 112.915 93.3334 115.913 94.0004 118.911C96.6674 118.911 99.3334 118.911 102 118.911C101.851 119.962 102.017 120.961 102.5 121.908C103.083 120.408 103.916 119.076 105 117.911C106.196 118.257 106.196 118.757 105 119.41C106.124 120.249 106.791 121.415 107 122.908C105.481 126.006 104.815 129.337 105 132.9Z" fill="#97D5FD"/>
<path fill-rule="evenodd" clip-rule="evenodd" d="M134 105.92C132.992 111.376 131.992 116.705 131 121.908C131 119.577 131 117.245 131 114.914C131.605 112.289 132.105 109.625 132.5 106.92C132.883 106.364 133.383 106.031 134 105.92Z" fill="#C8B4DC"/>
<path fill-rule="evenodd" clip-rule="evenodd" d="M12 92.9302C12.667 92.9302 13.333 92.9302 14 92.9302C16.239 93.9714 18.405 95.3034 20.5 96.9272C22 99.2584 23.5 101.591 25 103.922C29.361 104.573 33.695 105.406 38 106.42C40.938 109.316 42.771 112.813 43.5 116.912C44.764 119.018 46.597 120.017 49 119.91C52.341 120.889 54.008 123.22 54 126.905C48.542 125.817 43.208 124.319 38 122.408C36.904 118.619 35.904 114.789 35 110.917C25.337 111.52 19.504 107.19 17.5 97.9264C15.688 96.1278 13.855 94.462 12 92.9302Z" fill="#8AB1B5"/>
<path fill-rule="evenodd" clip-rule="evenodd" d="M168 105.92C168.333 105.92 168.667 105.92 169 105.92C169 119.91 169 133.899 169 147.889C168.667 147.889 168.333 147.889 168 147.889C166.512 144.447 165.679 140.783 165.5 136.897C164.833 134.899 163.5 133.567 161.5 132.9C159.377 126.916 156.877 121.086 154 115.413C154.101 112.814 155.435 111.315 158 110.917C160.907 111.426 163.741 112.093 166.5 112.915C167.852 110.823 168.352 108.491 168 105.92Z" fill="#FEEDF1"/>
<path fill-rule="evenodd" clip-rule="evenodd" d="M55.9998 61.9535C57.5988 61.6857 58.9318 62.0194 59.9998 62.9527C58.0858 66.1343 57.4198 69.7986 57.9998 73.9445C57.9998 84.2697 57.9998 94.596 57.9998 104.921C57.8338 113.588 57.9998 122.248 58.4998 130.902C61.1668 133.567 63.8328 136.231 66.4998 138.896C66.8828 138.34 67.3828 138.007 67.9998 137.896C67.6428 141.774 66.3088 145.271 63.9998 148.389C64.4888 149.526 64.8218 150.692 64.9998 151.886C63.9248 150.825 62.9248 150.825 61.9998 151.886C60.3798 154.788 59.0468 157.785 57.9998 160.879C57.3328 160.879 56.6668 160.879 55.9998 160.879C57.6668 157.549 59.3328 154.217 60.9998 150.887C62.4238 148.264 62.0908 145.932 59.9998 143.892C59.0088 141.911 58.0088 139.913 56.9998 137.896C56.3328 138.896 55.6668 139.895 54.9998 140.894C53.7488 137.523 53.7488 134.192 54.9998 130.902C55.9938 121.423 56.3268 111.764 55.9998 101.923C55.9998 88.6005 55.9998 75.2765 55.9998 61.9535Z" fill="#4D6C94"/>
<path fill-rule="evenodd" clip-rule="evenodd" d="M57.9997 104.921C60.2127 107.377 61.3787 110.375 61.4997 113.914C63.1667 115.246 64.8327 116.579 66.4997 117.911C66.6727 123.423 67.1727 128.752 67.9997 133.899C67.9997 135.231 67.9997 136.564 67.9997 137.896C67.3827 138.007 66.8827 138.34 66.4997 138.896C63.8327 136.231 61.1667 133.567 58.4997 130.902C57.9997 122.248 57.8337 113.588 57.9997 104.921Z" fill="#7BBCC7"/>
<path fill-rule="evenodd" clip-rule="evenodd" d="M109 104.921C109.333 104.921 109.667 104.921 110 104.921C109.837 107.276 110.003 109.608 110.5 111.916C110.883 111.36 111.383 111.028 112 110.917C111.491 114.987 110.658 118.984 109.5 122.908C109.002 119.928 108.835 116.93 109 113.914C109 110.917 109 107.919 109 104.921Z" fill="#C0978E"/>
<path fill-rule="evenodd" clip-rule="evenodd" d="M12 92.9302C13.855 94.462 15.688 96.1278 17.5 97.9264C19.504 107.19 25.337 111.52 35 110.917C35.904 114.789 36.904 118.619 38 122.408C43.208 124.319 48.542 125.817 54 126.905C54 128.237 54 129.57 54 130.902C52.45 131.842 50.784 132.507 49 132.9C46.8 130.762 44.133 129.263 41 128.404C39.399 128.131 37.899 127.631 36.5 126.905C36.101 127.132 35.935 127.466 36 127.904C34.628 126.893 33.295 125.893 32 124.906C32.438 124.971 32.772 124.805 33 124.407C31.754 119.989 29.754 115.992 27 112.416C23.099 111.74 19.599 110.241 16.5 107.919C15.659 104.793 14.825 101.796 14 98.9257C13.272 96.6923 11.939 94.8607 10 93.4298C10.594 92.9661 11.261 92.7993 12 92.9302Z" fill="#A5CED2"/>
<path fill-rule="evenodd" clip-rule="evenodd" d="M14 98.9257C14.825 101.796 15.659 104.793 16.5 107.919C19.599 110.241 23.099 111.74 27 112.416C29.754 115.992 31.754 119.989 33 124.407C32.772 124.805 32.438 124.971 32 124.906C29.263 124.807 26.596 125.141 24 125.905C20.298 128.806 16.964 128.473 14 124.906C14 116.246 14 107.586 14 98.9257Z" fill="#F9E6ED"/>
<path fill-rule="evenodd" clip-rule="evenodd" d="M146 101.923C146.845 103.094 147.511 104.427 148 105.92C148 108.585 148 111.249 148 113.914C148 123.907 148 133.899 148 143.892C148 145.89 148 147.889 148 149.887C148 150.887 148 151.886 148 152.885C147.667 152.885 147.333 152.885 147 152.885C147.14 136.55 146.807 120.23 146 103.922C146 103.255 146 102.59 146 101.923Z" fill="#894F6E"/>
<path fill-rule="evenodd" clip-rule="evenodd" d="M223 102.923C225.58 107.507 228.58 111.837 232 115.913C232 116.246 232 116.579 232 116.912C231.232 117.675 230.732 118.674 230.5 119.91C230 132.896 229.833 145.886 230 158.881C221.333 158.881 212.667 158.881 204 158.881C204 157.549 204 156.216 204 154.884C211.984 154.978 219.817 154.978 227.5 154.884C228.751 151.007 227.585 149.675 224 150.887C223.333 138.736 222.667 126.745 222 114.914C221.683 110.715 222.017 106.718 223 102.923Z" fill="#DD79B8"/>
<path fill-rule="evenodd" clip-rule="evenodd" d="M69 96.9272C69.333 96.9272 69.667 96.9272 70 96.9272C69.671 109.429 70.005 121.754 71 133.899C70.948 136.301 71.281 138.632 72 140.894C70.863 139.606 69.53 138.607 68 137.896C68 136.564 68 135.231 68 133.899C68.995 121.754 69.329 109.429 69 96.9272Z" fill="#1A3973"/>
<path fill-rule="evenodd" clip-rule="evenodd" d="M154 103.922C157.333 103.922 160.667 103.922 164 103.922C164.709 104.825 165.709 105.158 167 104.921C167.667 104.921 168 105.254 168 105.92C168.352 108.491 167.852 110.823 166.5 112.915C163.741 112.093 160.907 111.426 158 110.917C155.435 111.315 154.101 112.814 154 115.413C156.877 121.086 159.377 126.916 161.5 132.9C163.5 133.567 164.833 134.899 165.5 136.897C165.679 140.783 166.512 144.447 168 147.889C166.297 146.73 165.631 147.396 166 149.887C163.712 146.309 161.712 142.646 160 138.896C160 138.229 159.667 137.896 159 137.896C158.921 133.098 157.088 129.101 153.5 125.905C152.137 121.476 150.304 117.479 148 113.914C148 111.249 148 108.585 148 105.92C149.642 104.341 151.642 103.675 154 103.922Z" fill="#FAE6D0"/>
<path fill-rule="evenodd" clip-rule="evenodd" d="M145 103.922C145.333 103.922 145.667 103.922 146 103.922C146.807 120.23 147.14 136.55 147 152.885C145.932 153.818 144.599 154.152 143 153.884C142.333 152.552 141.667 151.219 141 149.887C141.229 134.415 142.562 119.094 145 103.922Z" fill="#2F1C2F"/>
<path fill-rule="evenodd" clip-rule="evenodd" d="M145 103.922C142.562 119.094 141.229 134.415 141 149.887C140.435 151.806 139.435 153.472 138 154.884C136.667 154.884 135.333 154.884 134 154.884C133.383 154.773 132.883 154.44 132.5 153.884C132 147.231 131.834 140.569 132 133.899C133.693 132.925 135.193 131.593 136.5 129.902C137.475 121.852 138.808 113.858 140.5 105.92C141.61 104.385 143.11 103.719 145 103.922Z" fill="#543D53"/>
<path fill-rule="evenodd" clip-rule="evenodd" d="M148 113.914C150.304 117.479 152.137 121.476 153.5 125.905C157.088 129.101 158.921 133.098 159 137.896C155.169 139.558 151.502 141.557 148 143.892C148 133.899 148 123.907 148 113.914Z" fill="#EDC6E2"/>
<path fill-rule="evenodd" clip-rule="evenodd" d="M49 132.9C46.783 133.768 44.45 134.101 42 133.899C39 132.9 37 130.902 36 127.904C35.935 127.466 36.101 127.132 36.5 126.905C37.899 127.631 39.399 128.131 41 128.404C44.133 129.263 46.8 130.762 49 132.9Z" fill="#E3E5EC"/>
<path fill-rule="evenodd" clip-rule="evenodd" d="M32 124.906C33.295 125.893 34.628 126.893 36 127.904C37 130.902 39 132.9 42 133.899C44.198 134.564 46.531 135.23 49 135.898C49.743 136.579 50.409 137.246 51 137.896C46.83 139.624 42.497 140.124 38 139.395C37 138.896 36 138.396 35 137.896C31.754 133.321 28.087 129.324 24 125.905C26.596 125.141 29.263 124.807 32 124.906Z" fill="#5A9CB1"/>
<path fill-rule="evenodd" clip-rule="evenodd" d="M14 124.906C16.964 128.474 20.298 128.806 24 125.905C28.087 129.324 31.754 133.321 35 137.896C36 138.396 37 138.896 38 139.395C42.497 140.124 46.83 139.624 51 137.896C53.534 140.145 53.534 142.477 51 144.891C50 144.891 49 144.891 48 144.891C42.849 144.065 37.516 143.565 32 143.392C29.333 140.395 26.667 137.397 24 134.399C20.371 134.509 16.704 134.675 13 134.899C9.413 130.323 5.079 126.326 0 122.908C5.008 120.339 9.675 121.004 14 124.906Z" fill="#7EBCC5"/>
<path fill-rule="evenodd" clip-rule="evenodd" d="M54 130.902C54.333 130.902 54.667 130.902 55 130.902C53.749 134.192 53.749 137.523 55 140.894C55.667 139.895 56.333 138.896 57 137.896C58.009 139.913 59.009 141.911 60 143.892C58.406 143.472 56.906 142.807 55.5 141.893C53.905 142.749 53.072 144.081 53 145.89C50.428 150.026 48.095 154.357 46 158.881C46 159.547 45.667 159.88 45 159.88C46.719 154.778 48.719 149.781 51 144.891C53.534 142.477 53.534 140.145 51 137.896C50.409 137.246 49.743 136.579 49 135.898C46.531 135.23 44.198 134.564 42 133.899C44.45 134.101 46.783 133.768 49 132.9C50.784 132.507 52.45 131.842 54 130.902Z" fill="#467A9C"/>
<path fill-rule="evenodd" clip-rule="evenodd" d="M48 144.891C39.46 146.071 31.127 148.07 23 150.887C21.626 146.07 19.793 141.407 17.5 136.897C15.878 136.299 14.378 135.632 13 134.899C16.704 134.675 20.371 134.509 24 134.399C26.667 137.397 29.333 140.395 32 143.392C37.516 143.565 42.849 144.065 48 144.891Z" fill="#F4E7EF"/>
<path fill-rule="evenodd" clip-rule="evenodd" d="M159 137.896C159.667 137.896 160 138.229 160 138.896C160.635 143.707 161.635 148.371 163 152.885C158.654 153.051 154.321 152.884 150 152.386C149.434 151.391 148.767 150.559 148 149.887C148 147.889 148 145.89 148 143.892C151.502 141.557 155.169 139.558 159 137.896Z" fill="#E1ACD7"/>
<path fill-rule="evenodd" clip-rule="evenodd" d="M60.0001 143.892C62.0911 145.932 62.4241 148.264 61.0001 150.887C58.6461 150.549 56.3131 150.049 54.0001 149.388C53.1631 148.378 52.8301 147.211 53.0001 145.89C53.0721 144.081 53.9051 142.749 55.5001 141.893C56.9061 142.807 58.4061 143.472 60.0001 143.892Z" fill="#7EBBC7"/>
<path fill-rule="evenodd" clip-rule="evenodd" d="M72 140.894C76.072 146.719 79.405 153.047 82 159.88C81.562 160.885 80.896 160.885 80 159.88C77.04 153.637 74.373 147.307 72 140.894Z" fill="#44689B"/>
<path fill-rule="evenodd" clip-rule="evenodd" d="M68 137.896C69.53 138.607 70.863 139.606 72 140.894C74.373 147.307 77.04 153.637 80 159.88C76.667 159.88 73.333 159.88 70 159.88C68.319 157.179 66.653 154.515 65 151.886C64.822 150.692 64.489 149.526 64 148.389C66.309 145.271 67.643 141.773 68 137.896Z" fill="#94CDF8"/>
<path fill-rule="evenodd" clip-rule="evenodd" d="M48 144.891C49 144.891 50 144.891 51 144.891C48.719 149.781 46.719 154.778 45 159.88C45.065 160.318 44.899 160.651 44.5 160.879C44.192 160.072 43.692 159.405 43 158.881C41.104 159.655 39.437 160.654 38 161.878C33.681 162.579 30.014 161.413 27 158.381C25.833 158.214 24.667 158.048 23.5 157.881C20.234 158.845 16.901 159.511 13.5 159.88C11.2 159.886 9.034 159.386 7 158.381C12.025 155.209 17.358 152.711 23 150.887C31.127 148.07 39.46 146.071 48 144.891Z" fill="#79A1BB"/>
<path fill-rule="evenodd" clip-rule="evenodd" d="M220 97.9264C220.667 97.9264 221.333 97.9264 222 97.9264C222 98.5929 222 99.2584 222 99.9249C221.003 117.071 220.67 134.391 221 151.886C207.667 151.886 194.333 151.886 181 151.886C181 151.553 181 151.219 181 150.887C181.333 150.887 181.667 150.887 182 150.887C194.333 150.887 206.667 150.887 219 150.887C219 140.228 219 129.57 219 118.911C219.962 112.004 220.295 105.009 220 97.9264Z" fill="#B1C5F6"/>
<path fill-rule="evenodd" clip-rule="evenodd" d="M160 138.896C161.712 142.646 163.712 146.309 166 149.887C166.214 151.53 165.88 153.029 165 154.384C159.333 154.626 153.667 154.459 148 153.884C148 153.552 148 153.218 148 152.885C148 151.886 148 150.887 148 149.887C148.767 150.559 149.434 151.391 150 152.386C154.321 152.884 158.654 153.051 163 152.885C161.635 148.371 160.635 143.707 160 138.896Z" fill="#E0B3CA"/>
<path fill-rule="evenodd" clip-rule="evenodd" d="M222 99.9249C222.057 101.033 222.39 102.032 223 102.923C222.017 106.718 221.683 110.715 222 114.914C222 127.904 222 140.894 222 153.884C208.604 154.68 195.27 154.513 182 153.385C181.084 153.107 180.418 152.607 180 151.886C180.333 151.886 180.667 151.886 181 151.886C194.333 151.886 207.667 151.886 221 151.886C220.67 134.391 221.003 117.071 222 99.9249Z" fill="#C28AC3"/>
<path fill-rule="evenodd" clip-rule="evenodd" d="M53 145.89C52.83 147.211 53.163 148.378 54 149.388C56.313 150.049 58.646 150.549 61 150.887C59.333 154.217 57.667 157.549 56 160.879C52.667 160.213 49.333 159.547 46 158.881C48.095 154.357 50.428 150.026 53 145.89Z" fill="#78A0BB"/>
<path fill-rule="evenodd" clip-rule="evenodd" d="M168 147.889C168.333 147.889 168.667 147.889 169 147.889C169 151.886 169 155.883 169 159.88C162.007 161.166 155.007 161.166 148 159.88C148 159.547 148 159.213 148 158.881C148 157.215 148 155.55 148 153.884C153.667 154.459 159.333 154.626 165 154.384C165.88 153.029 166.214 151.53 166 149.887C165.631 147.396 166.297 146.73 168 147.889Z" fill="#FCE1BC"/>
<path fill-rule="evenodd" clip-rule="evenodd" d="M65 151.886C66.653 154.515 68.319 157.179 70 159.88C69.658 160.717 68.992 161.051 68 160.879C67.553 158.408 66.553 158.241 65 160.379C62.69 160.876 60.357 161.042 58 160.879C59.047 157.785 60.38 154.788 62 151.886C62.925 150.825 63.925 150.825 65 151.886Z" fill="#7594B8"/>
<path fill-rule="evenodd" clip-rule="evenodd" d="M141 149.887C141.667 151.219 142.333 152.552 143 153.884C143.067 155.342 142.734 156.674 142 157.881C140.667 158.214 139.333 158.548 138 158.881C138 157.549 138 156.216 138 154.884C139.435 153.472 140.435 151.806 141 149.887Z" fill="#BBB2B7"/>
<path fill-rule="evenodd" clip-rule="evenodd" d="M134 154.884C135.333 154.884 136.667 154.884 138 154.884C138 156.216 138 157.549 138 158.881C135.935 158.864 133.935 158.531 132 157.881C133.051 157.16 133.718 156.161 134 154.884Z" fill="#D78F7A"/>
<path fill-rule="evenodd" clip-rule="evenodd" d="M147 152.885C147.333 152.885 147.667 152.885 148 152.885C148 153.218 148 153.552 148 153.884C148 155.55 148 157.215 148 158.881C145.879 159.055 143.879 158.722 142 157.881C142.734 156.674 143.067 155.342 143 153.884C144.599 154.152 145.932 153.818 147 152.885Z" fill="#DD9077"/>
<path fill-rule="evenodd" clip-rule="evenodd" d="M132 157.881C133.935 158.531 135.935 158.864 138 158.881C139.333 158.548 140.667 158.214 142 157.881C143.879 158.722 145.879 159.055 148 158.881C148 159.213 148 159.547 148 159.88C141 161.212 134 161.212 127 159.88C128.784 159.487 130.45 158.822 132 157.881Z" fill="#432025"/>
<path fill-rule="evenodd" clip-rule="evenodd" d="M169 105.92C169.333 105.92 169.667 105.92 170 105.92C170 124.24 170 142.56 170 160.879C179.978 162.21 190.311 162.877 201 162.878C211.689 162.877 222.022 162.21 232 160.879C232.333 160.879 232.667 160.879 233 160.879C237.333 160.879 241.667 160.879 246 160.879C246.996 146.4 247.329 131.744 247 116.912C247.995 129.058 248.329 141.383 248 153.884C248 156.216 248 158.548 248 160.879C251.682 160.714 255.348 160.88 259 161.379C259.916 161.657 260.582 162.156 261 162.878C187.007 164.873 112.674 165.54 38 164.876C38 163.877 38 162.878 38 161.878C39.437 160.654 41.104 159.655 43 158.881C43.692 159.405 44.192 160.072 44.5 160.879C44.899 160.651 45.065 160.318 45 159.88C45.667 159.88 46 159.547 46 158.881C49.333 159.547 52.667 160.213 56 160.879C56.667 160.879 57.333 160.879 58 160.879C60.357 161.042 62.69 160.876 65 160.379C66.553 158.241 67.553 158.408 68 160.879C78 162.211 88 162.211 98 160.879C107.75 161.185 117.416 160.852 127 159.88C134 161.212 141 161.212 148 159.88C155.007 161.166 162.007 161.166 169 159.88C169 155.883 169 151.886 169 147.889C169 133.899 169 119.91 169 105.92Z" fill="#D9AED8"/>
<path fill-rule="evenodd" clip-rule="evenodd" d="M70 159.88C73.333 159.88 76.667 159.88 80 159.88C80.896 160.885 81.562 160.885 82 159.88C87.333 159.88 92.667 159.88 98 159.88C98 160.213 98 160.546 98 160.879C88 162.211 78 162.211 68 160.879C68.992 161.051 69.658 160.717 70 159.88Z" fill="#C2B8ED"/>
<path fill-rule="evenodd" clip-rule="evenodd" d="M219 118.911C219 129.57 219 140.228 219 150.887C206.667 150.887 194.333 150.887 182 150.887C181.346 146.551 182.346 142.72 185 139.395C196.507 132.699 207.84 125.871 219 118.911Z" fill="#95CFFD"/>
<path fill-rule="evenodd" clip-rule="evenodd" d="M224 121.908C227 121.576 228.333 122.908 228 125.905C226.667 125.905 225.333 125.905 224 125.905C224 124.573 224 123.24 224 121.908Z" fill="#F7BAE3"/>
<path fill-rule="evenodd" clip-rule="evenodd" d="M174 121.908C175 121.908 176 121.908 177 121.908C177 123.24 177 124.573 177 125.905C175.667 125.905 174.333 125.905 173 125.905C172.933 124.447 173.266 123.115 174 121.908Z" fill="#FDBAE7"/>
<path fill-rule="evenodd" clip-rule="evenodd" d="M232 116.912C237 116.912 242 116.912 247 116.912C247.329 131.744 246.996 146.4 246 160.879C246 148.888 246 136.897 246 124.906C241.667 124.906 237.333 124.906 233 124.906C233 136.897 233 148.888 233 160.879C232.667 160.879 232.333 160.879 232 160.879C232 146.223 232 131.568 232 116.912Z" fill="#5462A8"/>
<path fill-rule="evenodd" clip-rule="evenodd" d="M246 160.879C241.667 160.879 237.333 160.879 233 160.879C233 148.888 233 136.897 233 124.906C237.333 124.906 241.667 124.906 246 124.906C246 136.897 246 148.888 246 160.879Z" fill="#5E74C3"/>
<path fill-rule="evenodd" clip-rule="evenodd" d="M170 160.879C190.667 160.879 211.333 160.879 232 160.879C222.022 162.21 211.689 162.877 201 162.878C190.311 162.877 179.978 162.21 170 160.879Z" fill="#E7A6DA"/>
<path fill-rule="evenodd" clip-rule="evenodd" d="M261 162.878C261.904 163.586 262.237 164.585 262 165.875C187.165 166.208 112.498 165.874 38 164.876C112.674 165.54 187.007 164.873 261 162.878Z" fill="#F5D4F1"/>
</svg>
