<svg width="258" height="168" viewBox="0 0 258 168" fill="none" xmlns="http://www.w3.org/2000/svg">
<path opacity="0.3" fill-rule="evenodd" clip-rule="evenodd" d="M154.754 1.99852C162.612 1.85982 170.257 2.52602 177.686 3.99703C177.724 7.69599 177.558 11.693 177.187 15.9881C175.041 18.3028 172.549 18.636 169.709 16.9874C168.738 19.2284 168.405 21.56 168.712 23.9822C173.561 23.6629 178.214 23.9961 182.671 24.9815C178.351 24.9815 174.029 24.9815 169.709 24.9815C169.748 30.4214 169.084 35.7505 167.715 40.9696C164.392 40.4969 162.232 41.8289 161.235 44.9666C161.049 57.6992 160.551 70.3558 159.739 82.9384C159.074 82.9384 158.41 82.9384 157.745 82.9384C158.659 80.4353 158.659 78.104 157.745 75.9436C157.745 75.6109 157.745 75.2771 157.745 74.9444C157.745 70.2808 157.745 65.6183 157.745 60.9548C156.083 60.9548 154.422 60.9548 152.76 60.9548C152.76 47.9644 152.76 34.974 152.76 21.9837C156.697 21.7906 156.697 21.291 152.76 20.4848C158.077 19.4855 158.077 18.4863 152.76 17.487C159.407 16.4878 159.407 15.4885 152.76 14.4892C154.389 13.9961 156.051 13.8295 157.745 13.9896C157.745 12.6573 157.745 11.3249 157.745 9.99258C151.223 9.95481 151.223 9.2886 157.745 7.99406C156.172 7.19686 154.511 6.69723 152.76 6.49518C157.965 5.95328 157.965 5.1206 152.76 3.99703C153.501 3.31574 154.165 2.64953 154.754 1.99852Z" fill="#B47FF0"/>
<path opacity="0.3" fill-rule="evenodd" clip-rule="evenodd" d="M145.78 1.9985C149.55 4.14741 148.885 5.14667 143.786 4.99628C143.786 6.32859 143.786 7.661 143.786 8.99331C145.48 8.83323 147.142 8.99981 148.771 9.49294C140.795 10.4922 140.795 11.4915 148.771 12.4907C142.217 13.0185 142.217 13.8512 148.771 14.9889C142.217 16.1265 142.217 16.9592 148.771 17.487C146.534 17.5366 144.872 18.3693 143.786 19.9852C143.349 19.9198 143.016 20.0863 142.789 20.4848C143.619 22.6499 145.115 24.1488 147.275 24.9814C147.774 36.6348 147.94 48.2931 147.774 59.9555C146.777 59.9555 145.78 59.9555 144.783 59.9555C142.765 54.2737 138.777 50.6094 132.818 48.9636C119.084 43.9234 107.286 46.9212 97.4239 57.957C95.9682 61.2026 94.8057 64.5331 93.9343 67.9495C92.7468 72.8009 92.7468 77.7972 93.9343 82.9384C93.2693 82.9384 92.6053 82.9384 91.9402 82.9384C89.1645 70.2518 84.8434 58.2607 78.9788 46.9651C80.3368 41.682 78.3427 39.017 72.9967 38.9711C72.5231 42.8842 73.5201 46.2147 75.9878 48.9636C79.6379 60.2732 83.294 71.5988 86.9551 82.9384C84.5253 83.1942 82.1983 83.8607 79.9759 84.9369C79.2949 84.5742 78.6299 84.2415 77.9818 83.9377C72.9967 69.2816 68.0115 54.6254 63.0264 39.9703C63.0264 38.6383 63.0264 37.3053 63.0264 35.9733C65.3116 35.7175 67.4721 36.0502 69.5071 36.9725C71.9996 35.8064 74.4922 34.6413 76.9848 33.4751C75.5291 32.6647 75.1971 31.8314 75.9878 30.977C77.2829 31.5666 78.1134 32.5658 78.4803 33.9748C80.7506 33.3582 82.9111 32.6917 84.961 31.9763C91.34 32.2331 97.6542 31.7334 103.905 30.4774C110.247 28.6317 113.238 24.4682 112.878 17.9866C113.598 18.4038 114.096 19.07 114.373 19.9852C115.055 18.1275 116.052 16.4621 117.365 14.9889C125.473 7.67189 134.945 3.34181 145.78 1.9985Z" fill="#B47FF0"/>
<path opacity="0.3" fill-rule="evenodd" clip-rule="evenodd" d="M177.684 3.99704C189.075 7.21845 199.211 12.8809 208.094 20.9844C210.205 27.4836 211.867 27.4836 213.079 20.9844C216.424 20.7322 218.75 19.0668 220.058 15.9881C220.179 18.2136 221.009 20.0455 222.551 21.4841C221.637 21.858 220.806 22.3576 220.058 22.9829C219.808 24.9145 219.309 26.7462 218.563 28.4789C218.895 28.8116 219.228 29.1454 219.56 29.4781C218.159 30.7462 216.498 31.2458 214.574 30.977C216.739 36.8257 218.401 42.8212 219.56 48.9637C216.76 50.1718 214.101 51.5048 211.583 52.9607C210.535 52.8118 209.537 52.9777 208.592 53.4603C206.588 57.0267 204.262 60.1913 201.613 62.9533C204.125 56.4261 207.116 50.0978 210.586 43.9674C205.269 42.9841 199.952 43.15 194.634 44.467C191.961 48.6789 189.967 53.1755 188.652 57.957C187.987 57.6242 187.323 57.2905 186.658 56.9577C186.823 52.6149 186.657 48.2852 186.159 43.9674C184.899 41.8619 183.071 40.8627 180.675 40.9696C180.01 37.6391 179.346 34.3075 178.681 30.977C179.28 29.5781 180.277 28.5788 181.672 27.9792C182.574 27.2708 182.906 26.2715 182.67 24.9815C178.213 23.9961 173.56 23.6629 168.711 23.9822C168.404 21.56 168.737 19.2284 169.708 16.9874C172.548 18.636 175.04 18.3028 177.186 15.9881C177.557 11.693 177.723 7.69599 177.684 3.99704Z" fill="#B47FF0"/>
<path fill-rule="evenodd" clip-rule="evenodd" d="M154.753 1.99852C154.164 2.64953 153.5 3.31574 152.759 3.99703C157.965 5.1206 157.965 5.95328 152.759 6.49518C154.51 6.69723 156.171 7.19686 157.745 7.99407C151.223 9.2886 151.223 9.95481 157.745 9.99258C157.745 11.3249 157.745 12.6573 157.745 13.9896C156.051 13.8295 154.389 13.9961 152.759 14.4892C159.407 15.4885 159.407 16.4878 152.759 17.487C158.077 18.4863 158.077 19.4855 152.759 20.4848C156.697 21.291 156.697 21.7906 152.759 21.9837C151.43 21.9837 150.1 21.9837 148.771 21.9837C144.834 21.7906 144.834 21.291 148.771 20.4848C147.142 19.9917 145.48 19.8251 143.786 19.9852C144.872 18.3693 146.534 17.5366 148.771 17.487C142.218 16.9592 142.218 16.1265 148.771 14.9889C142.218 13.8512 142.218 13.0185 148.771 12.4907C140.795 11.4915 140.795 10.4922 148.771 9.49295C147.142 8.99982 145.48 8.83324 143.786 8.99332C143.786 7.66101 143.786 6.3286 143.786 4.99629C148.885 5.14668 149.55 4.14742 145.78 1.99852C147.475 1.87251 148.971 1.2064 150.267 0C151.669 0.913122 153.164 1.57933 154.753 1.99852Z" fill="#657DB2"/>
<path fill-rule="evenodd" clip-rule="evenodd" d="M112.878 17.9866C113.238 24.4682 110.247 28.6317 103.905 30.4774C97.6547 31.7334 91.3405 32.2331 84.9615 31.9762C80.0222 31.0829 75.8686 28.7506 72.4986 24.9814C71.2753 20.8932 72.1058 17.3958 74.9912 14.4892C84.9585 9.28859 95.2618 8.62248 105.899 12.4907C108.412 14.1866 110.738 16.0186 112.878 17.9866Z" fill="#DFABD7"/>
<path fill-rule="evenodd" clip-rule="evenodd" d="M79.9765 16.9874C81.2079 17.2086 82.2049 17.8748 82.9676 18.9859C85.2767 16.0616 86.7723 16.3946 87.4542 19.9852C90.4114 16.1868 92.4055 16.853 93.4364 21.9837C93.6378 20.2294 94.1363 18.5639 94.932 16.9874C98.0876 17.0387 101.411 17.2052 104.902 17.487C101.67 17.7701 101.337 18.6028 103.905 19.9852C100.056 21.082 100.056 21.9146 103.905 22.4833C100.58 24.7725 97.7556 24.2729 95.4305 20.9844C93.7625 23.3992 91.9349 23.3992 89.9468 20.9844C88.8192 22.235 87.4901 23.2343 85.9587 23.9822C83.5569 23.5677 81.2308 22.9015 78.9795 21.9837C79.7861 20.414 80.1191 18.7485 79.9765 16.9874Z" fill="#EAC1E3"/>
<path fill-rule="evenodd" clip-rule="evenodd" d="M181.673 27.9792C180.278 28.5788 179.281 29.5781 178.682 30.977C177.734 32.395 177.402 34.0597 177.685 35.9733C175.359 35.9733 173.032 35.9733 170.706 35.9733C170.706 32.6428 170.706 29.3113 170.706 25.9807C174.843 25.4009 178.499 26.0667 181.673 27.9792Z" fill="#4394D5"/>
<path fill-rule="evenodd" clip-rule="evenodd" d="M182.67 24.9814C182.907 26.2715 182.575 27.2707 181.673 27.9792C178.499 26.0666 174.843 25.4008 170.706 25.9807C170.706 29.3112 170.706 32.6428 170.706 35.9733C173.032 35.9733 175.359 35.9733 177.685 35.9733C177.402 34.0597 177.734 32.3949 178.682 30.977C179.347 34.3075 180.011 37.639 180.676 40.9696C176.356 40.9696 172.035 40.9696 167.715 40.9696C169.084 35.7505 169.748 30.4214 169.709 24.9814C174.029 24.9814 178.35 24.9814 182.67 24.9814Z" fill="#74B5F0"/>
<path fill-rule="evenodd" clip-rule="evenodd" d="M148.771 21.9837C150.101 21.9837 151.431 21.9837 152.76 21.9837C152.76 34.974 152.76 47.9644 152.76 60.9547C151.431 60.9547 150.101 60.9547 148.771 60.9547C148.771 47.9644 148.771 34.974 148.771 21.9837Z" fill="#70B3EE"/>
<path fill-rule="evenodd" clip-rule="evenodd" d="M78.9794 46.9651C78.5078 48.3701 77.5108 49.0366 75.9883 48.9637C73.5206 46.2147 72.5236 42.8842 72.9972 38.9711C78.3433 39.017 80.3373 41.6821 78.9794 46.9651Z" fill="#F6DAC0"/>
<path fill-rule="evenodd" clip-rule="evenodd" d="M62.0297 39.9703C62.3308 42.5274 61.9978 44.8597 61.0326 46.9651C59.6633 47.122 58.3339 46.9552 57.0445 46.4655C57.3768 46.1328 57.7092 45.799 58.0415 45.4663C57.0445 45.1335 56.0475 44.7998 55.0505 44.467C56.2191 44.0483 57.2161 43.3828 58.0415 42.4685C56.3394 42.2736 54.6777 42.2736 53.0564 42.4685C59.8218 39.3898 59.4895 38.3905 52.0594 39.4707C57.1859 37.1085 56.8536 36.6088 51.0623 37.9718C51.5138 37.0145 52.1785 36.1812 53.0564 35.4737C52.1112 34.991 51.1142 34.8252 50.0653 34.974C49.5317 32.2381 50.5287 30.4054 53.0564 29.4781C52.0594 29.1454 51.0623 28.8116 50.0653 28.4789C51.9981 27.5715 52.9952 26.0727 53.0564 23.9822C54.3857 23.9822 55.7152 23.9822 57.0445 23.9822C58.7077 29.3152 60.3694 34.6453 62.0297 39.9703Z" fill="#698CC6"/>
<path fill-rule="evenodd" clip-rule="evenodd" d="M167.715 40.9696C172.035 40.9696 176.356 40.9696 180.676 40.9696C183.072 40.8627 184.899 41.8619 186.16 43.9674C186.657 48.2852 186.824 52.615 186.658 56.9577C185.089 57.3944 183.925 58.3937 183.168 59.9555C180.113 68.0115 176.623 75.6728 172.7 82.9385C168.38 82.9385 164.058 82.9385 159.738 82.9385C160.55 70.3558 161.048 57.6992 161.234 44.9666C162.231 41.829 164.391 40.497 167.715 40.9696Z" fill="#E3A2D0"/>
<path fill-rule="evenodd" clip-rule="evenodd" d="M164.723 42.9681C171.046 42.8022 177.36 42.9681 183.667 43.4677C185.439 45.6011 186.104 48.0992 185.661 50.9621C183.244 50.6544 180.918 50.9881 178.681 51.9614C183.906 53.0476 183.906 54.0468 178.681 54.9592C177.209 62.9472 175.38 71.6068 173.198 80.9399C169.479 81.8992 165.657 82.2319 161.732 81.9391C161.451 68.7709 162.448 55.7805 164.723 42.9681Z" fill="#EC9CD0"/>
<path fill-rule="evenodd" clip-rule="evenodd" d="M132.819 48.9637C132.742 50.2127 132.077 51.0451 130.825 51.4618C125.518 51.9604 120.2 52.1273 114.872 51.9614C114.589 53.875 114.921 55.5398 115.869 56.9577C116.137 58.5555 115.804 59.8876 114.872 60.9548C113.43 59.8336 112.433 58.3347 111.881 56.4581C110.884 55.7916 109.887 55.7916 108.89 56.4581C103.837 60.4741 100.514 65.6373 98.9198 71.9466C97.3944 72.5132 95.8988 73.1787 94.4332 73.9451C93.9396 71.9736 93.7731 69.9751 93.9347 67.9496C94.8061 64.5331 95.9686 61.2026 97.4243 57.957C107.286 46.9212 119.085 43.9234 132.819 48.9637Z" fill="#9ECEF7"/>
<path fill-rule="evenodd" clip-rule="evenodd" d="M201.614 62.9532C198.045 63.1371 194.721 62.4706 191.643 60.9547C190.84 59.7276 189.843 58.7284 188.652 57.9569C189.967 53.1755 191.961 48.6788 194.635 44.467C199.953 43.1499 205.27 42.9841 210.587 43.9673C207.116 50.0978 204.125 56.4261 201.614 62.9532Z" fill="#DF99D8"/>
<path opacity="0.3" fill-rule="evenodd" clip-rule="evenodd" d="M219.56 48.9637C223.912 48.8538 227.9 50.0199 231.524 52.4611C233.665 55.5738 236.157 58.4047 239.002 60.9548C241.208 67.5619 240.71 73.8902 237.506 79.9407C235.894 80.4783 234.232 80.811 232.521 80.9399C231.859 84.1506 229.865 86.3149 226.539 87.4351C222.964 88.5423 219.308 89.0419 215.572 88.934C211.645 86.9894 207.988 84.6582 204.604 81.9392C207.583 82.6966 210.574 83.529 213.578 84.4373C214.412 85.4476 214.744 86.6137 214.575 87.9347C219.556 88.1506 224.209 87.1513 228.533 84.937C227.929 80.789 225.768 77.4575 222.053 74.9444C218.809 67.9366 216.815 60.609 216.07 52.9607C214.661 52.0484 213.165 52.0484 211.584 52.9607C214.101 51.5048 216.76 50.1718 219.56 48.9637Z" fill="#B47FF0"/>
<path fill-rule="evenodd" clip-rule="evenodd" d="M143.786 19.9851C145.48 19.8251 147.142 19.9916 148.771 20.4848C144.834 21.291 144.834 21.7906 148.771 21.9837C148.771 34.974 148.771 47.9644 148.771 60.9547C147.442 60.9547 146.112 60.9547 144.783 60.9547C144.783 68.2823 144.783 75.6108 144.783 82.9384C144.118 82.9384 143.454 82.9384 142.789 82.9384C142.789 81.6064 142.789 80.2734 142.789 78.9414C142.789 77.2756 142.789 75.6108 142.789 73.9451C142.367 60.4301 135.223 53.4353 121.353 52.9607C117.77 52.1782 115.942 53.5103 115.869 56.9577C114.921 55.5397 114.589 53.875 114.872 51.9614C120.2 52.1273 125.517 51.9604 130.825 51.4618C132.077 51.0451 132.742 50.2127 132.819 48.9636C138.777 50.6094 142.765 54.2737 144.783 59.9555C145.78 59.9555 146.777 59.9555 147.774 59.9555C147.941 48.2931 147.774 36.6348 147.276 24.9814C145.115 24.1487 143.62 22.6499 142.789 20.4848C143.016 20.0863 143.349 19.9198 143.786 19.9851Z" fill="#C8DFF3"/>
<path opacity="0.3" fill-rule="evenodd" clip-rule="evenodd" d="M204.605 81.9392C202.793 78.2689 202.129 74.2719 202.611 69.9481C204.17 67.318 203.838 64.9868 201.614 62.9533C204.263 60.1913 206.589 57.0267 208.593 53.4603C209.539 52.9777 210.536 52.8118 211.585 52.9607C213.166 52.0484 214.661 52.0484 216.071 52.9607C216.816 60.609 218.81 67.9366 222.053 74.9444C225.769 77.4575 227.93 80.789 228.534 84.9369C224.21 87.1513 219.557 88.1506 214.576 87.9347C214.745 86.6137 214.413 85.4476 213.579 84.4373C210.575 83.529 207.583 82.6966 204.605 81.9392Z" fill="#B47FF0"/>
<path fill-rule="evenodd" clip-rule="evenodd" d="M142.789 73.9451C141.982 72.1544 141.484 70.1559 141.293 67.9496C138.303 69.5144 135.147 70.6795 131.822 71.447C128.957 74.3578 127.628 77.8552 127.833 81.9392C132.487 81.9392 137.139 81.9392 141.792 81.9392C141.556 80.6491 141.888 79.6499 142.789 78.9414C142.789 80.2734 142.789 81.6064 142.789 82.9384C137.472 82.9384 132.154 82.9384 126.836 82.9384C124.091 73.8692 120.435 65.2086 115.869 56.9577C115.942 53.5103 117.769 52.1783 121.353 52.9607C135.222 53.4353 142.367 60.4302 142.789 73.9451Z" fill="#F8EDD0"/>
<path fill-rule="evenodd" clip-rule="evenodd" d="M186.659 56.9577C187.324 57.2905 187.988 57.6242 188.653 57.957C189.843 58.7284 190.84 59.7277 191.644 60.9548C188.456 69.0547 184.967 77.0488 181.175 84.9369C180.762 85.3936 180.264 85.7274 179.679 85.9362C177.301 84.7761 174.974 83.7768 172.7 82.9384C176.624 75.6728 180.113 68.0115 183.169 59.9555C183.926 58.3937 185.089 57.3944 186.659 56.9577Z" fill="#B4E1EF"/>
<path fill-rule="evenodd" clip-rule="evenodd" d="M148.771 60.9547C150.1 60.9547 151.43 60.9547 152.759 60.9547C154.421 60.9547 156.083 60.9547 157.745 60.9547C157.745 65.6183 157.745 70.2808 157.745 74.9444C151.151 73.5614 147.828 76.2254 147.774 82.9384C146.777 82.9384 145.78 82.9384 144.783 82.9384C144.783 75.6109 144.783 68.2823 144.783 60.9547C146.112 60.9547 147.442 60.9547 148.771 60.9547Z" fill="#5465A4"/>
<path fill-rule="evenodd" clip-rule="evenodd" d="M114.872 60.9548C117.471 68.4362 120.462 75.7648 123.845 82.9384C116.201 82.9384 108.558 82.9384 100.914 82.9384C99.4987 79.4261 98.8337 75.7628 98.9195 71.9466C100.514 65.6373 103.837 60.4741 108.89 56.4581C109.887 55.7916 110.884 55.7916 111.881 56.4581C112.432 58.3347 113.429 59.8336 114.872 60.9548Z" fill="#FAF5FB"/>
<path fill-rule="evenodd" clip-rule="evenodd" d="M62.0293 39.9703C62.3613 39.9703 62.6943 39.9703 63.0263 39.9703C68.0114 54.6255 72.9966 69.2816 77.9817 83.9377C77.9817 85.9362 76.9847 86.9355 74.9906 86.9355C69.7772 73.8182 65.125 60.4951 61.0322 46.9651C61.9974 44.8597 62.3304 42.5274 62.0293 39.9703Z" fill="#71B5EE"/>
<path fill-rule="evenodd" clip-rule="evenodd" d="M78.9794 46.9651C84.8439 58.2608 89.165 70.2519 91.9408 82.9384C90.2787 82.9384 88.6177 82.9384 86.9556 82.9384C83.2945 71.5989 79.6384 60.2733 75.9883 48.9637C77.5107 49.0366 78.5078 48.3701 78.9794 46.9651Z" fill="#E1AAD5"/>
<path fill-rule="evenodd" clip-rule="evenodd" d="M115.869 56.9577C120.435 65.2086 124.091 73.8692 126.836 82.9384C125.839 82.9384 124.842 82.9384 123.845 82.9384C120.462 75.7648 117.471 68.4362 114.872 60.9548C115.803 59.8875 116.136 58.5555 115.869 56.9577Z" fill="#C4DCF0"/>
<path fill-rule="evenodd" clip-rule="evenodd" d="M93.9345 67.9496C93.773 69.9751 93.9395 71.9736 94.4331 73.9451C95.8987 73.1787 97.3942 72.5132 98.9197 71.9466C98.8339 75.7628 99.499 79.426 100.914 82.9384C98.5877 82.9384 96.2606 82.9384 93.9345 82.9384C92.7471 77.7972 92.7471 72.801 93.9345 67.9496Z" fill="#BFDFFA"/>
<path fill-rule="evenodd" clip-rule="evenodd" d="M142.79 73.9451C142.79 75.6109 142.79 77.2756 142.79 78.9414C141.888 79.6499 141.556 80.6491 141.793 81.9392C137.139 81.9392 132.487 81.9392 127.834 81.9392C127.629 77.8552 128.958 74.3578 131.822 71.447C135.147 70.6795 138.304 69.5144 141.294 67.9496C141.484 70.1559 141.983 72.1544 142.79 73.9451Z" fill="#FAE4B7"/>
<path fill-rule="evenodd" clip-rule="evenodd" d="M157.744 74.9443C157.744 75.2771 157.744 75.6109 157.744 75.9436C156.719 76.3693 155.39 76.3693 153.756 75.9436C153.756 76.9429 153.756 77.9421 153.756 78.9414C152.427 78.9414 151.097 78.9414 149.768 78.9414C150.425 81.8942 150.757 84.892 150.765 87.9347C148.439 88.2675 147.109 89.6005 146.777 91.9317C146.112 93.5975 145.448 95.2623 144.783 96.928C143.454 94.263 143.454 91.599 144.783 88.934C146.303 87.2192 147.3 85.2207 147.774 82.9384C147.828 76.2254 151.151 73.5614 157.744 74.9443Z" fill="#221419"/>
<path fill-rule="evenodd" clip-rule="evenodd" d="M60.0359 69.9481C64.6032 76.1045 68.9234 82.4328 72.9972 88.934C71.1627 91.1014 68.8356 92.4334 66.018 92.931C65.2483 91.7379 64.2513 90.7386 63.0269 89.9332C60.1153 85.0099 56.7919 80.3464 53.0566 75.9436C56.4341 75.0963 58.7605 73.0977 60.0359 69.9481Z" fill="#8AC5F7"/>
<path fill-rule="evenodd" clip-rule="evenodd" d="M157.745 75.9436C158.659 78.104 158.659 80.4353 157.745 82.9384C156.909 83.2802 156.576 83.9457 156.748 84.937C155.8 86.3549 155.468 88.0197 155.751 89.9332C153.743 90.0412 152.082 89.3757 150.766 87.9347C150.758 84.892 150.426 81.8942 149.769 78.9414C151.098 78.9414 152.428 78.9414 153.757 78.9414C153.757 77.9422 153.757 76.9429 153.757 75.9436C155.391 76.3693 156.72 76.3693 157.745 75.9436Z" fill="#CC7661"/>
<path fill-rule="evenodd" clip-rule="evenodd" d="M202.611 69.9481C202.128 74.2719 202.792 78.2689 204.605 81.9392C203.612 81.8532 202.781 82.187 202.112 82.9384C201.189 85.1288 200.026 87.1273 198.623 88.934C197.083 93.3297 195.422 97.6595 193.638 101.924C193.347 98.6618 194.012 95.664 195.632 92.931C195.3 92.2645 194.967 91.599 194.635 90.9325C192.612 92.2755 190.618 93.6075 188.653 94.9295C187.656 94.263 186.658 93.5975 185.661 92.931C185.474 91.3292 185.973 89.9962 187.157 88.934C188.299 90.1171 189.462 90.1171 190.647 88.934C191.644 88.2675 192.641 87.602 193.638 86.9355C196.043 86.7416 197.04 85.4096 196.629 82.9384C198.388 78.4198 200.382 74.09 202.611 69.9481Z" fill="#EFE2E5"/>
<path fill-rule="evenodd" clip-rule="evenodd" d="M194.635 81.9392C195.3 82.2719 195.964 82.6057 196.629 82.9384C197.04 85.4096 196.043 86.7416 193.638 86.9355C192.209 84.919 192.542 83.2532 194.635 81.9392Z" fill="#1C1418"/>
<path opacity="0.3" fill-rule="evenodd" clip-rule="evenodd" d="M237.507 79.9407C240.226 84.9989 243.716 89.6614 247.976 93.9303C250.396 97.9673 252.058 102.298 252.961 106.921C254.037 108.813 255.367 109.146 256.949 107.92C257.431 108.867 257.596 109.866 257.448 110.918C256.451 110.918 255.454 110.918 254.457 110.918C254.619 117.959 254.121 124.954 252.961 131.902C249.835 137.575 246.512 143.238 242.991 148.889C241.84 150.132 240.51 151.131 239.003 151.887C237.309 155.306 235.149 158.303 232.522 160.881C227.083 156.677 220.768 154.344 213.578 153.886C218.039 153.865 221.695 152.032 224.546 148.39C226.872 148.057 229.199 147.723 231.525 147.391C232.662 145.084 234.324 143.253 236.51 141.895C235.845 141.562 235.181 141.228 234.516 140.895C231.501 142.916 228.178 143.915 224.546 143.893C223.331 143.233 222.002 142.566 220.557 141.895C221.619 137.999 224.112 135.667 228.035 134.9C228.83 132.182 229.992 129.684 231.525 127.405C228.386 127.345 226.06 128.844 224.546 131.902C222.286 132.715 219.959 133.215 217.566 133.401C216.404 136.266 214.743 138.764 212.581 140.895C212.249 140.563 211.916 140.229 211.584 139.896C214.581 135.387 216.908 130.557 218.563 125.407C217.898 124.74 217.234 124.74 216.569 125.407C214.829 129.318 211.837 131.482 207.596 131.902C207.861 127.216 207.363 122.553 206.101 117.912C204.888 120.373 204.224 123.038 204.106 125.907C202.415 126.77 201.252 128.102 200.617 129.904C201.932 131.934 201.932 133.933 200.617 135.899C198.573 129.878 197.576 123.549 197.626 116.913C202.683 111.114 207.003 104.784 210.587 97.9273C212.443 95.4072 214.437 92.909 216.569 90.4329C216.015 90.0502 215.683 89.5505 215.572 88.934C219.308 89.0419 222.964 88.5423 226.54 87.4351C229.866 86.3149 231.86 84.1505 232.522 80.9399C234.233 80.811 235.895 80.4783 237.507 79.9407Z" fill="#B47FF0"/>
<path fill-rule="evenodd" clip-rule="evenodd" d="M249.471 75.9436C251.545 77.4895 253.871 78.8225 256.451 79.9407C254.94 81.9861 254.109 84.3184 253.958 86.9355C251.743 84.3934 249.582 84.3934 247.477 86.9355C247.324 85.5275 247.157 83.8618 246.979 81.9392C246.057 81.3926 245.226 80.7271 244.486 79.9407C246.027 78.9894 247.689 78.6566 249.471 78.9414C249.471 77.9422 249.471 76.9429 249.471 75.9436Z" fill="#EDE1EB"/>
<path fill-rule="evenodd" clip-rule="evenodd" d="M86.9558 82.9384C88.6179 82.9384 90.2789 82.9384 91.941 82.9384C92.606 82.9384 93.27 82.9384 93.935 82.9384C96.2611 82.9384 98.5882 82.9384 100.914 82.9384C108.558 82.9384 116.202 82.9384 123.846 82.9384C124.843 82.9384 125.84 82.9384 126.837 82.9384C132.154 82.9384 137.472 82.9384 142.789 82.9384C143.455 82.9384 144.119 82.9384 144.784 82.9384C145.781 82.9384 146.778 82.9384 147.775 82.9384C147.301 85.2207 146.304 87.2193 144.784 88.934C143.787 88.934 142.789 88.934 141.792 88.934C141.792 91.599 141.792 94.263 141.792 96.928C140.154 96.948 138.825 96.2815 137.804 94.9295C137.199 95.0534 136.867 95.3862 136.807 95.9288C132.616 96.2525 128.794 95.2533 125.341 92.931C124.594 93.5565 123.762 94.0562 122.849 94.4299C123.593 97.6585 123.094 100.822 121.353 103.923C116.197 107.336 113.039 106.003 111.882 99.9258C112.445 98.0222 113.442 96.3575 114.873 94.9295C111.275 91.9947 109.448 92.994 109.389 97.9273C108.754 96.1256 107.591 94.7936 105.899 93.9303C102.116 96.2166 98.1275 96.5493 93.935 94.9295C91.7236 97.5406 90.0616 100.538 88.9499 103.923C84.7454 106.911 81.2558 106.244 78.4811 101.924C77.8161 103.256 77.152 104.589 76.487 105.921C76.1141 105.006 75.6156 104.173 74.9915 103.423C76.2138 97.8264 75.7153 97.6595 73.4959 102.924C72.8309 104.256 72.1669 104.256 71.5019 102.924C65.2335 108.123 62.4089 114.452 63.0271 121.91C61.3874 117.179 60.7228 112.183 61.033 106.921C62.5595 102.716 64.5536 98.7187 67.0152 94.9295C66.6533 94.247 66.3213 93.5805 66.0182 92.931C68.8358 92.4334 71.1629 91.1014 72.9974 88.934C74.3264 88.934 74.9915 88.2675 74.9915 86.9355C76.9855 86.9355 77.9826 85.9362 77.9826 83.9377C78.6306 84.2415 79.2956 84.5742 79.9766 84.9369C82.199 83.8607 84.5261 83.1942 86.9558 82.9384Z" fill="#86D2E3"/>
<path fill-rule="evenodd" clip-rule="evenodd" d="M188.652 74.9444C189.603 76.9769 190.6 78.9754 191.643 80.9399C190.673 83.3861 190.341 86.0511 190.646 88.934C189.462 90.1171 188.298 90.1171 187.157 88.934C185.972 89.9962 185.474 91.3292 185.661 92.931C185.329 92.931 184.996 92.931 184.664 92.931C184.664 91.599 184.664 90.266 184.664 88.934C186.972 86.5138 187.304 83.6829 185.661 80.4403C186.019 78.146 187.016 76.3143 188.652 74.9444Z" fill="#E08A6F"/>
<path fill-rule="evenodd" clip-rule="evenodd" d="M204.605 81.9392C207.989 84.6582 211.645 86.9894 215.573 88.934C215.683 89.5505 216.015 90.0502 216.57 90.4329C214.437 92.909 212.443 95.4072 210.587 97.9273C208.062 93.0749 204.074 90.0772 198.623 88.934C200.026 87.1273 201.189 85.1288 202.113 82.9385C202.782 82.187 203.612 81.8533 204.605 81.9392Z" fill="#8AC7F8"/>
<path fill-rule="evenodd" clip-rule="evenodd" d="M191.643 80.9399C192.488 82.0641 193.485 82.0641 194.634 80.9399C194.634 81.2727 194.634 81.6064 194.634 81.9392C192.541 83.2532 192.208 84.919 193.637 86.9355C192.64 87.602 191.643 88.2675 190.646 88.934C190.341 86.0511 190.673 83.3861 191.643 80.9399Z" fill="#B69282"/>
<path fill-rule="evenodd" clip-rule="evenodd" d="M156.748 84.937C156.823 87.6409 157.155 90.306 157.745 92.931C156.847 92.1416 156.182 91.1423 155.751 89.9332C155.468 88.0197 155.8 86.3549 156.748 84.937Z" fill="#2B2633"/>
<path fill-rule="evenodd" clip-rule="evenodd" d="M166.718 87.9347C169.949 89.1388 173.107 90.4708 176.189 91.9318C178.845 90.5218 181.669 89.5225 184.664 88.934C184.664 90.266 184.664 91.599 184.664 92.931C182.946 95.2093 182.282 97.8743 182.67 100.925C185.968 100.36 187.962 98.362 188.652 94.9295C190.618 93.6075 192.612 92.2755 194.635 90.9325C194.967 91.599 195.3 92.2645 195.632 92.931C194.011 95.664 193.346 98.6618 193.638 101.924C193.809 102.916 193.476 103.581 192.64 103.923C189.286 104.983 185.963 105.982 182.67 106.921C179.221 105.26 175.897 103.594 172.7 101.924C173.697 101.924 174.694 101.924 175.691 101.924C175.691 100.925 175.691 99.9258 175.691 98.9266C174.017 98.7117 173.02 99.3782 172.7 100.925C171.397 99.2034 171.397 97.3707 172.7 95.4292C169.525 94.6757 166.866 93.1768 164.724 90.9325C166.267 90.6117 166.932 89.6125 166.718 87.9347Z" fill="#F0EDD3"/>
<path fill-rule="evenodd" clip-rule="evenodd" d="M150.766 87.9347C152.082 89.3757 153.743 90.0412 155.751 89.9332C156.181 91.1423 156.846 92.1416 157.745 92.931C158.077 93.5975 158.41 94.263 158.742 94.9295C159.034 98.1811 158.369 101.179 156.748 103.923C155.543 104.656 154.214 104.989 152.76 104.922C152.76 105.921 152.76 106.921 152.76 107.92C155.034 108.343 156.696 107.676 157.745 105.921C158.693 107.339 159.025 109.004 158.742 110.918C155.621 112.44 152.298 113.105 148.772 112.916C147.228 112.595 146.563 111.596 146.777 109.918C146.777 103.923 146.777 97.9273 146.777 91.9318C147.109 89.6005 148.44 88.2675 150.766 87.9347Z" fill="#F5A7EF"/>
<path fill-rule="evenodd" clip-rule="evenodd" d="M198.623 88.934C204.074 90.0771 208.062 93.0749 210.587 97.9273C207.003 104.784 202.683 111.114 197.626 116.913C197.626 116.247 197.294 115.914 196.629 115.914C196.718 113.264 196.054 110.933 194.635 108.919C194.742 106.907 194.078 105.242 192.641 103.923C193.476 103.581 193.809 102.916 193.638 101.924C195.422 97.6595 197.083 93.3297 198.623 88.934Z" fill="#69B7F4"/>
<path fill-rule="evenodd" clip-rule="evenodd" d="M136.808 95.9288C138.113 98.8776 140.44 100.21 143.787 99.9258C143.787 102.924 143.787 105.921 143.787 108.919C136.446 108.693 129.135 109.026 121.852 109.918C118.536 109.372 115.212 108.872 111.882 108.42C113.089 107.527 113.089 106.695 111.882 105.921C109.687 107.2 107.527 107.2 105.401 105.921C104.92 106.869 104.754 107.868 104.903 108.919C102.244 108.919 99.5857 108.919 96.9266 108.919C96.9266 109.918 96.9266 110.918 96.9266 111.917C93.5865 111.752 90.2634 111.919 86.9563 112.417C85.0211 112.72 83.36 113.553 81.9711 114.915C80.8515 113.871 79.5224 113.206 77.983 112.916C75.8743 113.495 73.8803 114.327 72.0008 115.414C70.8612 119.307 67.8702 121.473 63.0276 121.91C62.4094 114.452 65.234 108.123 71.5023 102.924C72.1674 104.256 72.8314 104.256 73.4964 102.924C75.7158 97.6595 76.2143 97.8264 74.9919 103.423C75.6161 104.173 76.1146 105.006 76.4875 105.921C77.1525 104.589 77.8165 103.256 78.4815 101.924C81.2563 106.244 84.7459 106.911 88.9504 103.923C90.062 100.538 91.7241 97.5406 93.9355 94.9295C98.128 96.5493 102.116 96.2166 105.9 93.9303C107.592 94.7936 108.754 96.1256 109.389 97.9273C109.448 92.994 111.276 91.9947 114.873 94.9295C113.442 96.3575 112.445 98.0222 111.882 99.9258C113.04 106.003 116.197 107.336 121.354 103.923C123.095 100.822 123.593 97.6585 122.849 94.4299C123.763 94.0562 124.594 93.5566 125.342 92.931C128.795 95.2533 132.616 96.2525 136.808 95.9288Z" fill="#79CADD"/>
<path fill-rule="evenodd" clip-rule="evenodd" d="M191.644 60.9547C194.722 62.4706 198.046 63.1371 201.614 62.9533C203.838 64.9867 204.17 67.318 202.611 69.9481C200.382 74.09 198.388 78.4198 196.629 82.9384C195.964 82.6057 195.3 82.2719 194.635 81.9392C194.635 81.6064 194.635 81.2727 194.635 80.9399C195.32 75.6219 193.326 73.6233 188.653 74.9444C187.017 76.3143 186.02 78.146 185.662 80.4403C187.305 83.6829 186.973 86.5138 184.665 88.934C181.67 89.5225 178.845 90.5218 176.19 91.9317C173.107 90.4708 169.95 89.1388 166.718 87.9347C165.245 84.6352 163.914 84.4693 162.73 87.4351C163.091 88.868 163.755 90.0342 164.724 90.9325C166.867 93.1768 169.526 94.6757 172.7 95.4291C171.397 97.3707 171.397 99.2034 172.7 100.925C172.7 101.258 172.7 101.592 172.7 101.924C175.898 103.594 179.222 105.26 182.671 106.921C182.671 107.253 182.671 107.587 182.671 107.92C181.19 109.354 179.861 109.187 178.682 107.42C179.015 107.087 179.348 106.754 179.68 106.421C177.227 104.79 174.901 104.79 172.7 106.421C173.908 108.264 175.237 109.097 176.688 108.919C172.027 109.696 167.374 110.362 162.73 110.918C162.15 109.488 161.319 108.156 160.237 106.921C160.062 102.736 159.563 98.7387 158.742 94.9295C158.41 94.263 158.077 93.5975 157.745 92.931C157.155 90.306 156.823 87.6409 156.748 84.9369C156.576 83.9457 156.909 83.2802 157.745 82.9384C158.41 82.9384 159.074 82.9384 159.739 82.9384C164.059 82.9384 168.38 82.9384 172.7 82.9384C174.975 83.7768 177.302 84.7761 179.68 85.9362C180.264 85.7274 180.762 85.3936 181.175 84.9369C184.967 77.0488 188.456 69.0547 191.644 60.9547Z" fill="#89CDDC"/>
<path fill-rule="evenodd" clip-rule="evenodd" d="M166.718 87.9347C166.932 89.6125 166.267 90.6117 164.724 90.9325C163.754 90.0341 163.09 88.868 162.729 87.4351C163.914 84.4693 165.244 84.6351 166.718 87.9347Z" fill="#DBBA9D"/>
<path fill-rule="evenodd" clip-rule="evenodd" d="M188.652 74.9443C193.325 73.6233 195.319 75.6218 194.635 80.9399C193.486 82.0641 192.489 82.0641 191.643 80.9399C190.601 78.9753 189.604 76.9768 188.652 74.9443Z" fill="#291B18"/>
<path fill-rule="evenodd" clip-rule="evenodd" d="M184.665 92.931C184.997 92.931 185.33 92.931 185.662 92.931C186.659 93.5975 187.656 94.263 188.653 94.9295C187.963 98.362 185.969 100.36 182.671 100.925C182.283 97.8743 182.947 95.2093 184.665 92.931Z" fill="#D35D87"/>
<path fill-rule="evenodd" clip-rule="evenodd" d="M146.777 91.9318C146.777 97.9273 146.777 103.923 146.777 109.918C144.853 106.048 144.188 101.718 144.783 96.9281C145.448 95.2623 146.112 93.5975 146.777 91.9318Z" fill="#DBB1E9"/>
<path fill-rule="evenodd" clip-rule="evenodd" d="M172.7 101.924C172.7 101.592 172.7 101.258 172.7 100.925C173.02 99.3782 174.017 98.7117 175.691 98.9266C175.691 99.9258 175.691 100.925 175.691 101.924C174.694 101.924 173.697 101.924 172.7 101.924Z" fill="#D88E71"/>
<path fill-rule="evenodd" clip-rule="evenodd" d="M158.741 94.9295C159.563 98.7387 160.061 102.736 160.237 106.921C161.318 108.156 162.149 109.488 162.729 110.918C161.4 110.918 160.07 110.918 158.741 110.918C159.024 109.004 158.692 107.339 157.744 105.921C157.916 104.93 157.583 104.265 156.747 103.923C158.368 101.179 159.033 98.1811 158.741 94.9295Z" fill="#B1C2D6"/>
<path fill-rule="evenodd" clip-rule="evenodd" d="M156.748 103.923C157.583 104.265 157.916 104.93 157.745 105.921C156.696 107.676 155.034 108.343 152.76 107.92C152.76 106.921 152.76 105.921 152.76 104.922C154.214 104.989 155.543 104.656 156.748 103.923Z" fill="#4E3459"/>
<path fill-rule="evenodd" clip-rule="evenodd" d="M144.783 88.934C143.454 91.599 143.454 94.263 144.783 96.9281C144.187 101.719 144.852 106.048 146.777 109.918C146.562 111.596 147.227 112.595 148.771 112.916C148.771 114.248 148.771 115.581 148.771 116.913C127.354 118.575 105.752 119.574 83.9638 119.911C83.1283 120.253 82.7953 120.918 82.9668 121.91C81.9837 126.376 81.6517 131.04 81.9697 135.899C76.7243 136.75 71.4072 136.75 66.0172 135.899C66.0172 137.565 66.0172 139.23 66.0172 140.895C64.3781 140.682 62.8826 141.015 61.5306 141.895C60.6188 138.212 59.9542 138.545 59.5365 142.894C59.1209 141.639 58.2901 140.972 57.044 140.895C57.044 140.229 57.044 139.563 57.044 138.897C57.0797 135.938 56.0826 133.607 54.0529 131.902C49.5908 126.29 46.7659 119.962 45.5781 112.916C49.1524 114.831 51.645 117.662 53.0559 121.41C55.1057 121.721 57.0998 122.22 59.038 122.909C60.1243 119.269 60.1243 115.606 59.038 111.917C58.9739 109.861 59.6386 108.197 61.0321 106.921C60.7218 112.183 61.3864 117.179 63.0261 121.91C67.8687 121.473 70.8598 119.307 71.9994 115.414C73.8788 114.327 75.8729 113.495 77.9816 112.916C79.521 113.206 80.8501 113.871 81.9697 114.915C83.3586 113.553 85.0196 112.72 86.9549 112.417C90.262 111.919 93.5851 111.752 96.9252 111.917C96.9252 110.918 96.9252 109.918 96.9252 108.919C99.5843 108.919 102.242 108.919 104.901 108.919C104.753 107.868 104.918 106.869 105.4 105.921C107.526 107.2 109.685 107.2 111.881 105.921C113.088 106.695 113.088 107.527 111.881 108.42C115.211 108.872 118.535 109.372 121.851 109.918C129.133 109.026 136.444 108.693 143.786 108.919C143.786 105.921 143.786 102.924 143.786 99.9258C140.439 100.21 138.111 98.8776 136.806 95.9288C136.866 95.3862 137.198 95.0534 137.803 94.9295C138.824 96.2815 140.153 96.948 141.792 96.9281C141.792 94.263 141.792 91.599 141.792 88.934C142.789 88.934 143.786 88.934 144.783 88.934Z" fill="#77C2D6"/>
<path fill-rule="evenodd" clip-rule="evenodd" d="M180.677 120.91C180.212 117.251 180.877 113.92 182.671 110.918C183.902 111.138 184.899 111.805 185.662 112.916C186.327 111.917 186.991 110.918 187.656 109.918C188.507 111.365 189.504 112.697 190.647 113.915C187.728 114.899 184.736 115.231 181.674 114.915C181.968 117.148 181.635 119.147 180.677 120.91Z" fill="#C382B3"/>
<path opacity="0.3" fill-rule="evenodd" clip-rule="evenodd" d="M61.033 46.9651C65.1258 60.4951 69.7779 73.8182 74.9914 86.9354C74.9914 88.2675 74.3264 88.934 72.9973 88.934C68.9235 82.4328 64.6033 76.1045 60.0359 69.9481C58.4329 65.8141 55.4418 64.3152 51.0627 65.4514C48.1947 69.5683 48.8594 73.0657 53.0567 75.9436C56.792 80.3463 60.1154 85.0099 63.027 89.9332C64.2514 90.7386 65.2484 91.7379 66.0181 92.931C66.3212 93.5805 66.6532 94.247 67.0152 94.9295C64.5535 98.7187 62.5594 102.716 61.033 106.921C59.6395 108.197 58.9748 109.861 59.0389 111.917C60.1252 115.606 60.1252 119.269 59.0389 122.909C57.1007 122.22 55.1066 121.721 53.0567 121.41C51.6458 117.662 49.1533 114.831 45.579 112.916C46.7668 119.962 49.5917 126.29 54.0538 131.902C53.7795 134.158 52.7825 134.492 51.0627 132.901C49.8062 130.348 48.4768 127.85 47.0746 125.407C44.206 124.281 41.2149 123.614 38.1013 123.408C36.2032 119.84 33.3783 117.342 29.6265 115.914C27.9479 116.097 27.7818 116.763 29.128 117.912C30.6368 119.927 31.4676 122.258 31.6206 124.907C34.1748 127.318 37.1659 128.984 40.5939 129.904C41.2539 132.215 41.7524 134.546 42.0894 136.898C40.8022 136.662 39.8052 136.994 39.0983 137.898C38.766 137.898 38.4336 137.898 38.1013 137.898C36.8629 138.44 35.5334 138.774 34.1132 138.897C31.3709 137.996 28.7122 136.829 26.1369 135.399C24.3833 134.602 22.7216 134.769 21.1518 135.899C23.999 137.92 26.3254 140.418 28.131 143.394C31.4544 143.726 34.7779 144.06 38.1013 144.393C39.957 147.416 42.2833 149.914 45.0805 151.887C38.4271 153.722 32.1125 156.387 26.1369 159.881C29.9085 161.151 33.5642 160.818 37.1043 158.882C39.383 159.515 41.0447 160.847 42.0894 162.879C37.0604 162.552 32.0752 162.885 27.134 163.878C26.8016 164.545 26.4692 165.21 26.1369 165.877C95.926 166.876 165.718 167.209 235.513 166.876C165.557 167.874 95.4325 168.208 25.1399 167.875C25.289 166.824 25.1227 165.825 24.6414 164.878C11.3019 154.136 3.65809 140.146 1.70969 122.909C-2.04483 99.9917 2.94033 79.3411 16.6651 60.9547C21.8417 55.6067 27.3254 50.7773 33.1161 46.4655C38.2334 43.3168 43.7171 41.1514 49.5671 39.9703C50.594 39.6346 51.0925 38.9681 51.0627 37.9718C56.8539 36.6088 57.1862 37.1084 52.0597 39.4707C59.4899 38.3905 59.8222 39.3897 53.0567 42.4685C54.678 42.2736 56.3398 42.2736 58.0419 42.4685C57.2164 43.3828 56.2194 44.0483 55.0508 44.467C56.0478 44.7997 57.0449 45.1335 58.0419 45.4662C57.7096 45.799 57.3772 46.1327 57.0449 46.4655C58.3342 46.9551 59.6637 47.122 61.033 46.9651Z" fill="#B47FF0"/>
<path fill-rule="evenodd" clip-rule="evenodd" d="M63.0269 89.9333C63.2043 91.1274 63.5364 92.2935 64.0239 93.4307C62.3369 96.3635 61.6729 99.5281 62.0298 102.924C58.2525 105.446 54.0983 107.444 49.567 108.919C43.3926 109.053 37.2443 108.054 31.1219 105.921C28.9527 103.263 27.6233 100.099 27.1338 96.4284C27.4661 95.5961 27.7985 94.7627 28.1308 93.9303C29.0449 94.5568 30.0419 94.8906 31.1219 94.9295C30.678 97.7924 31.3428 100.291 33.116 102.424C40.9378 106.606 48.914 106.939 57.0447 103.423C63.2402 96.7502 61.9102 92.0867 53.0566 89.4336C44.9733 87.6919 37.6617 89.1908 31.1219 93.9303C29.2954 93.2908 28.963 92.2915 30.1249 90.9325C33.1409 87.9237 36.7967 86.258 41.0922 85.9362C42.2608 86.3549 43.2579 87.0204 44.0833 87.9347C46.0774 85.2697 48.0714 85.2697 50.0655 87.9347C54.2789 86.6747 57.9347 87.6739 61.0328 90.9325C61.7138 90.5698 62.3788 90.237 63.0269 89.9333Z" fill="#F8DAEE"/>
<path fill-rule="evenodd" clip-rule="evenodd" d="M31.1216 94.9295C31.1216 94.5968 31.1216 94.263 31.1216 93.9302C37.6614 89.1908 44.973 87.6919 53.0562 89.4336C61.9099 92.0866 63.2399 96.7502 57.0444 103.423C48.9137 106.939 40.9374 106.606 33.1156 102.424C31.3424 100.291 30.6777 97.7924 31.1216 94.9295Z" fill="#E3B0D9"/>
<path fill-rule="evenodd" clip-rule="evenodd" d="M60.0359 69.9481C58.7606 73.0977 56.4341 75.0963 53.0567 75.9436C48.8594 73.0658 48.1947 69.5684 51.0626 65.4514C55.4418 64.3153 58.4329 65.8142 60.0359 69.9481Z" fill="#5160A4"/>
<path fill-rule="evenodd" clip-rule="evenodd" d="M148.771 116.913C149.768 117.246 150.433 117.912 150.765 118.912C128.671 119.908 106.403 120.242 83.9639 119.911C105.752 119.574 127.354 118.575 148.771 116.913Z" fill="#7EB8DD"/>
<path fill-rule="evenodd" clip-rule="evenodd" d="M182.67 107.92C182.67 108.919 182.67 109.918 182.67 110.918C180.876 113.92 180.211 117.251 180.676 120.91C180.676 123.242 180.676 125.574 180.676 127.905C180.051 133.546 179.552 139.208 179.18 144.892C176.964 142.568 175.469 139.904 174.694 136.898C174.694 128.572 174.694 120.244 174.694 111.917C173.365 111.917 172.035 111.917 170.706 111.917C167.829 112.223 165.17 111.89 162.729 110.918C167.374 110.362 172.027 109.696 176.688 108.919C175.236 109.097 173.907 108.264 172.7 106.421C174.9 104.79 177.226 104.79 179.679 106.421C179.347 106.754 179.014 107.088 178.682 107.42C179.86 109.187 181.19 109.354 182.67 107.92Z" fill="#80C0D7"/>
<path fill-rule="evenodd" clip-rule="evenodd" d="M192.64 103.923C194.078 105.242 194.742 106.907 194.634 108.919C194.8 112.93 194.633 116.927 194.136 120.91C192.547 124.275 190.055 126.607 186.658 127.905C184.996 127.905 183.335 127.905 181.673 127.905C181.341 127.905 181.008 127.905 180.676 127.905C180.676 125.574 180.676 123.242 180.676 120.91C181.634 119.147 181.967 117.148 181.673 114.915C184.736 115.231 187.727 114.899 190.646 113.915C189.503 112.697 188.506 111.365 187.655 109.918C186.99 110.918 186.326 111.917 185.661 112.916C184.898 111.805 183.901 111.138 182.67 110.918C182.67 109.918 182.67 108.919 182.67 107.92C182.67 107.587 182.67 107.253 182.67 106.921C185.963 105.982 189.286 104.983 192.64 103.923Z" fill="#D54A84"/>
<path fill-rule="evenodd" clip-rule="evenodd" d="M158.742 110.918C160.071 110.918 161.401 110.918 162.73 110.918C165.171 111.89 167.83 112.223 170.706 111.917C171.413 112.82 172.41 113.153 173.697 112.916C173.697 120.91 173.697 128.904 173.697 136.898C172.7 136.898 171.703 136.898 170.706 136.898C169.717 137.07 169.053 136.736 168.712 135.899C168.6 130.789 167.935 125.793 166.718 120.91C161.837 118.966 156.519 118.299 150.766 118.912C150.434 117.912 149.769 117.246 148.771 116.913C148.771 115.581 148.771 114.248 148.771 112.916C152.298 113.105 155.621 112.44 158.742 110.918Z" fill="#4C3D58"/>
<path fill-rule="evenodd" clip-rule="evenodd" d="M136.807 120.91C136.142 121.577 135.478 122.242 134.813 122.909C128.499 122.909 122.184 122.909 115.869 122.909C115.869 126.239 115.869 129.571 115.869 132.901C114.551 132.731 113.388 133.064 112.38 133.901C112.203 130.047 111.705 126.383 110.884 122.909C103.719 122.584 96.7393 122.918 89.9466 123.908C88.9565 132.052 88.6245 140.379 88.9495 148.889C87.0651 148.687 85.5696 149.352 84.4629 150.888C83.9644 140.901 83.7989 130.909 83.9644 120.91C101.579 120.91 119.192 120.91 136.807 120.91Z" fill="#4B5EA0"/>
<path fill-rule="evenodd" clip-rule="evenodd" d="M170.706 111.917C172.035 111.917 173.365 111.917 174.694 111.917C174.694 120.244 174.694 128.572 174.694 136.898C174.362 136.898 174.029 136.898 173.697 136.898C173.697 128.904 173.697 120.91 173.697 112.916C172.41 113.153 171.413 112.82 170.706 111.917Z" fill="#697C95"/>
<path fill-rule="evenodd" clip-rule="evenodd" d="M54.053 131.902C56.0827 133.607 57.0798 135.938 57.0441 138.897C54.0193 138.278 51.0282 137.445 48.0708 136.399C46.1168 133.535 44.4551 130.537 43.0857 127.405C40.641 127.116 38.3147 126.45 36.1065 125.407C34.8846 121.69 32.5582 119.192 29.1272 117.912C27.7811 116.763 27.9472 116.097 29.6258 115.914C33.3775 117.342 36.2025 119.84 38.1005 123.408C41.2141 123.614 44.2052 124.281 47.0738 125.407C48.476 127.85 49.8054 130.348 51.0619 132.901C52.7817 134.492 53.7787 134.158 54.053 131.902Z" fill="#8DB2B5"/>
<path fill-rule="evenodd" clip-rule="evenodd" d="M150.766 118.912C156.519 118.299 161.837 118.966 166.718 120.91C165.721 120.91 164.724 120.91 163.727 120.91C154.754 120.91 145.78 120.91 136.807 120.91C119.193 120.91 101.579 120.91 83.9646 120.91C83.7991 130.909 83.9646 140.901 84.4631 150.888C85.5698 149.352 87.0654 148.687 88.9497 148.889C88.6247 140.379 88.9567 132.052 89.9468 123.908C89.9468 135.899 89.9468 147.89 89.9468 159.881C92.9379 159.881 95.9289 159.881 98.92 159.881C98.588 160.548 98.255 161.213 97.923 161.88C92.9379 161.88 87.9527 161.88 82.9676 161.88C82.9676 148.557 82.9676 135.233 82.9676 121.909C82.7961 120.918 83.1291 120.253 83.9646 119.911C106.404 120.242 128.671 119.908 150.766 118.912Z" fill="#6179AA"/>
<path fill-rule="evenodd" clip-rule="evenodd" d="M194.634 108.919C196.054 110.933 196.718 113.264 196.629 115.914C196.629 128.238 196.629 140.563 196.629 152.887C194.634 152.887 192.64 152.887 190.646 152.887C189.981 152.554 189.317 152.22 188.652 151.887C187.856 143.914 187.192 135.92 186.658 127.905C190.055 126.607 192.548 124.275 194.136 120.91C194.633 116.927 194.8 112.93 194.634 108.919Z" fill="#54435A"/>
<path fill-rule="evenodd" clip-rule="evenodd" d="M181.673 127.905C183.335 127.905 184.996 127.905 186.659 127.905C187.192 135.92 187.856 143.914 188.653 151.887C186.367 152.143 184.207 151.81 182.172 150.888C181.673 143.235 181.508 135.573 181.673 127.905Z" fill="#2B1C2D"/>
<path fill-rule="evenodd" clip-rule="evenodd" d="M29.1279 117.912C32.5589 119.192 34.8853 121.69 36.1071 125.407C38.3154 126.45 40.6417 127.116 43.0863 127.405C44.4558 130.537 46.1175 133.535 48.0715 136.399C51.0289 137.445 54.02 138.278 57.0448 138.897C57.0448 139.563 57.0448 140.229 57.0448 140.895C51.7414 144.142 47.0885 143.31 43.0863 138.397C41.797 137.908 40.4676 137.741 39.0982 137.898C39.8051 136.994 40.8022 136.662 42.0893 136.898C41.7523 134.546 41.2538 132.215 40.5938 129.904C37.1658 128.984 34.1747 127.318 31.6205 124.907C31.4676 122.258 30.6367 119.927 29.1279 117.912Z" fill="#B0D0D3"/>
<path fill-rule="evenodd" clip-rule="evenodd" d="M81.9699 135.899C82.1354 140.575 81.9689 145.237 81.4714 149.889C79.9888 150.641 79.8223 151.474 80.9729 152.387C78.8861 158.935 74.898 160.767 69.0085 157.883C64.134 159.77 61.4756 158.105 61.0323 152.887C58.8035 153.181 56.8095 152.848 55.0501 151.887C56.7582 150.753 57.4229 149.087 57.0442 146.891C53.0664 147.58 49.0783 147.747 45.0798 147.391C42.6555 144.213 40.3291 141.048 38.1006 137.898C38.4329 137.898 38.7653 137.898 39.0976 137.898C40.4669 137.741 41.7964 137.908 43.0857 138.397C47.0879 143.31 51.7408 144.142 57.0442 140.895C58.2902 140.972 59.1211 141.639 59.5367 142.894C59.9544 138.545 60.619 138.212 61.5308 141.895C62.8828 141.015 64.3783 140.682 66.0174 140.895C66.0174 139.23 66.0174 137.565 66.0174 135.899C71.4074 136.749 76.7245 136.749 81.9699 135.899Z" fill="#6FB6CF"/>
<path fill-rule="evenodd" clip-rule="evenodd" d="M224.546 143.893C220.797 143.168 218.138 144.5 216.57 147.89C213.551 148.051 210.726 147.385 208.095 145.892C205.451 147.71 202.958 149.709 200.617 151.887C200.742 146.347 200.742 141.017 200.617 135.899C201.932 133.933 201.932 131.934 200.617 129.904C201.252 128.102 202.415 126.77 204.107 125.907C204.224 123.038 204.888 120.373 206.101 117.912C207.363 122.553 207.862 127.216 207.596 131.902C211.838 131.482 214.829 129.318 216.57 125.407C217.235 124.74 217.899 124.74 218.564 125.407C216.909 130.557 214.582 135.387 211.585 139.896C211.917 140.229 212.25 140.563 212.582 140.895C214.743 138.764 216.404 136.266 217.567 133.401C219.96 133.215 222.287 132.715 224.546 131.902C226.06 128.844 228.386 127.345 231.525 127.405C229.993 129.684 228.83 132.182 228.036 134.9C224.112 135.667 221.62 137.999 220.558 141.895C222.002 142.566 223.332 143.233 224.546 143.893Z" fill="#91BFC5"/>
<path fill-rule="evenodd" clip-rule="evenodd" d="M110.884 122.909C111.704 126.383 112.203 130.047 112.379 133.901C113.387 133.064 114.551 132.731 115.869 132.901C115.869 138.897 115.869 144.892 115.869 150.888C114.652 151.416 113.489 152.082 112.379 152.887C112.189 155.093 111.69 157.091 110.884 158.882C110.884 146.891 110.884 134.9 110.884 122.909Z" fill="#6973AA"/>
<path fill-rule="evenodd" clip-rule="evenodd" d="M170.706 136.898C171.703 136.898 172.7 136.898 173.697 136.898C174.029 136.898 174.362 136.898 174.694 136.898C174.694 138.564 174.694 140.229 174.694 141.895C173.49 142.628 172.161 142.961 170.706 142.894C170.706 140.895 170.706 138.897 170.706 136.898Z" fill="#C88C7E"/>
<path fill-rule="evenodd" clip-rule="evenodd" d="M110.884 122.909C110.884 134.9 110.884 146.891 110.884 158.882C107.097 159.864 103.109 160.198 98.9196 159.881C95.9285 159.881 92.9374 159.881 89.9463 159.881C89.9463 147.89 89.9463 135.899 89.9463 123.908C96.7391 122.918 103.718 122.584 110.884 122.909Z" fill="#D6D0CC"/>
<path fill-rule="evenodd" clip-rule="evenodd" d="M134.813 122.909C136.787 134.855 137.451 147.179 136.807 159.881C132.154 159.881 127.501 159.881 122.848 159.881C120.522 159.881 118.195 159.881 115.869 159.881C115.869 156.884 115.869 153.886 115.869 150.888C115.869 144.892 115.869 138.897 115.869 132.901C115.869 129.571 115.869 126.239 115.869 122.909C122.183 122.909 128.499 122.909 134.813 122.909Z" fill="#CB9EDD"/>
<path fill-rule="evenodd" clip-rule="evenodd" d="M90.9434 123.908C97.2576 123.908 103.573 123.908 109.887 123.908C109.887 135.566 109.887 147.224 109.887 158.882C103.573 158.882 97.2576 158.882 90.9434 158.882C90.9434 147.224 90.9434 135.566 90.9434 123.908Z" fill="#FBE7BD"/>
<path fill-rule="evenodd" clip-rule="evenodd" d="M116.866 123.908C123.204 123.884 129.519 124.218 135.81 124.907C135.81 135.899 135.81 146.891 135.81 157.883C129.496 157.883 123.18 157.883 116.866 157.883C116.866 146.558 116.866 135.233 116.866 123.908Z" fill="#E29BDB"/>
<path fill-rule="evenodd" clip-rule="evenodd" d="M38.1009 137.898C40.3294 141.048 42.6558 144.213 45.0801 147.391C49.0786 147.747 53.0667 147.58 57.0444 146.891C57.4232 149.087 56.7585 150.753 55.0504 151.887C51.9471 151.539 48.6237 151.539 45.0801 151.887C42.2829 149.914 39.9566 147.416 38.1009 144.393C34.7775 144.06 31.454 143.726 28.1306 143.394C26.325 140.418 23.9986 137.92 21.1514 135.899C22.7212 134.769 24.3829 134.602 26.1365 135.399C28.7117 136.829 31.3705 137.996 34.1128 138.897C35.533 138.774 36.8625 138.44 38.1009 137.898Z" fill="#88BAC5"/>
<path fill-rule="evenodd" clip-rule="evenodd" d="M174.694 141.895C175.62 142.709 176.617 143.541 177.685 144.393C175.382 144.889 173.056 145.055 170.706 144.892C170.706 144.226 170.706 143.56 170.706 142.894C172.161 142.961 173.49 142.628 174.694 141.895Z" fill="#181116"/>
<path fill-rule="evenodd" clip-rule="evenodd" d="M180.676 127.905C181.008 127.905 181.341 127.905 181.673 127.905C181.508 135.573 181.673 143.235 182.172 150.888C184.207 151.81 186.367 152.143 188.653 151.887C189.318 152.22 189.982 152.554 190.647 152.887C190.647 155.218 190.647 157.55 190.647 159.881C190.306 160.719 189.642 161.052 188.653 160.881C188.653 158.216 188.653 155.552 188.653 152.887C187.324 152.887 185.994 152.887 184.664 152.887C184.664 155.218 184.664 157.55 184.664 159.881C182.592 160.352 180.598 161.017 178.682 161.88C177.945 162.011 177.28 161.844 176.688 161.38C178.774 160.428 179.106 159.096 177.685 157.383C178.682 156.384 179.679 155.385 180.676 154.385C179.385 151.629 177.724 149.131 175.691 146.891C172.998 148.549 171.336 147.882 170.706 144.892C173.056 145.055 175.382 144.889 177.685 144.393C176.617 143.541 175.62 142.709 174.694 141.895C174.694 140.229 174.694 138.564 174.694 136.898C175.469 139.904 176.964 142.568 179.181 144.892C179.553 139.208 180.051 133.546 180.676 127.905Z" fill="#77A3B8"/>
<path fill-rule="evenodd" clip-rule="evenodd" d="M170.706 144.892C171.336 147.882 172.998 148.549 175.691 146.891C177.724 149.131 179.385 151.629 180.676 154.385C179.679 155.385 178.682 156.384 177.685 157.383C179.106 159.096 178.774 160.428 176.688 161.38C177.28 161.844 177.945 162.011 178.682 161.88C178.682 162.213 178.682 162.546 178.682 162.879C175.691 162.879 172.7 162.879 169.709 162.879C169.387 156.694 169.719 150.698 170.706 144.892Z" fill="#6CACCE"/>
<path fill-rule="evenodd" clip-rule="evenodd" d="M196.629 115.914C197.294 115.914 197.626 116.247 197.626 116.913C197.576 123.549 198.573 129.878 200.617 135.899C200.742 141.017 200.742 146.347 200.617 151.887C200.486 152.763 200.819 153.429 201.614 153.886C206.701 151.692 211.686 149.694 216.57 147.89C218.138 144.5 220.797 143.168 224.546 143.893C228.178 143.915 231.501 142.916 234.516 140.895C235.181 141.228 235.845 141.562 236.51 141.895C234.325 143.253 232.663 145.084 231.525 147.391C229.199 147.723 226.872 148.057 224.546 148.39C221.695 152.032 218.039 153.865 213.578 153.886C209.478 155.77 205.158 156.77 200.617 156.884C199.33 156.647 198.333 156.979 197.626 157.883C196.678 156.465 196.346 154.8 196.629 152.887C196.629 140.563 196.629 128.238 196.629 115.914Z" fill="#7CB6C6"/>
<path fill-rule="evenodd" clip-rule="evenodd" d="M216.57 147.89C211.687 149.694 206.701 151.692 201.615 153.886C200.819 153.429 200.487 152.763 200.617 151.887C202.959 149.709 205.451 147.71 208.095 145.892C210.726 147.385 213.551 148.051 216.57 147.89Z" fill="#41809F"/>
<path fill-rule="evenodd" clip-rule="evenodd" d="M82.9674 121.91C82.9674 135.233 82.9674 148.557 82.9674 161.88C82.9674 162.213 82.9674 162.546 82.9674 162.879C77.6393 163.045 72.3221 162.878 67.0149 162.379C66.4915 161.688 65.8265 161.188 65.0209 160.881C63.6729 162.276 62.0109 162.942 60.0357 162.879C57.3019 161.766 54.4769 160.767 51.561 159.881C48.6531 161.584 45.496 162.583 42.0892 162.879C41.0445 160.847 39.3828 159.515 37.104 158.882C33.564 160.818 29.9083 161.151 26.1367 159.881C32.1123 156.387 38.4269 153.722 45.0803 151.887C48.6239 151.539 51.9473 151.539 55.0506 151.887C56.8099 152.848 58.804 153.181 61.0328 152.887C61.476 158.105 64.1345 159.77 69.009 157.883C74.8985 160.767 78.8866 158.935 80.9734 152.387C79.8228 151.474 79.9893 150.641 81.4719 149.889C81.9694 145.237 82.1359 140.575 81.9704 135.899C81.6523 131.04 81.9844 126.376 82.9674 121.91Z" fill="#79A4C0"/>
<path fill-rule="evenodd" clip-rule="evenodd" d="M213.579 153.886C220.768 154.344 227.083 156.677 232.522 160.881C232.19 160.881 231.857 160.881 231.525 160.881C229.148 160.938 226.821 160.604 224.546 159.881C222.552 160.548 220.558 161.213 218.564 161.88C216.686 161.356 214.859 160.69 213.08 159.881C211.443 160.359 210.279 161.358 209.59 162.879C208.261 162.879 206.931 162.879 205.602 162.879C203.594 161.197 201.933 159.199 200.617 156.884C205.158 156.77 209.478 155.77 213.579 153.886Z" fill="#7DA1BB"/>
<path fill-rule="evenodd" clip-rule="evenodd" d="M188.652 160.881C187.058 161.148 185.729 160.815 184.664 159.881C184.664 157.55 184.664 155.218 184.664 152.887C185.993 152.887 187.323 152.887 188.652 152.887C188.652 155.552 188.652 158.216 188.652 160.881Z" fill="#E38F79"/>
<path fill-rule="evenodd" clip-rule="evenodd" d="M161.733 122.909C163.707 134.855 164.371 147.179 163.727 159.881C156.747 159.881 149.768 159.881 142.789 159.881C141.797 147.735 141.464 135.41 141.792 122.909C148.439 122.909 155.085 122.909 161.733 122.909Z" fill="#A591CA"/>
<path fill-rule="evenodd" clip-rule="evenodd" d="M142.789 123.908C149.436 123.908 156.082 123.908 162.73 123.908C162.73 135.566 162.73 147.224 162.73 158.882C156.082 158.882 149.436 158.882 142.789 158.882C142.789 147.224 142.789 135.566 142.789 123.908Z" fill="#ECA3D4"/>
<path fill-rule="evenodd" clip-rule="evenodd" d="M163.727 120.91C164.724 120.91 165.721 120.91 166.718 120.91C167.935 125.793 168.6 130.789 168.712 135.899C167.632 135.938 166.635 136.272 165.721 136.898C164.567 140.18 164.401 143.511 165.222 146.891C166.219 146.224 167.216 145.559 168.213 144.892C168.711 150.545 168.877 156.208 168.712 161.88C159.4 162.046 150.094 161.88 140.795 161.38C141.708 161.102 142.372 160.603 142.789 159.881C149.768 159.881 156.747 159.881 163.727 159.881C164.371 147.179 163.707 134.855 161.733 122.909C162.398 122.242 163.062 121.577 163.727 120.91Z" fill="#525F9F"/>
<path fill-rule="evenodd" clip-rule="evenodd" d="M190.646 152.887C192.641 152.887 194.635 152.887 196.629 152.887C196.346 154.8 196.678 156.465 197.626 157.883C197.018 158.773 196.685 159.772 196.629 160.881C194.514 161.055 192.52 160.722 190.646 159.881C190.646 157.55 190.646 155.218 190.646 152.887Z" fill="#D0917F"/>
<path fill-rule="evenodd" clip-rule="evenodd" d="M200.617 156.884C201.933 159.199 203.594 161.197 205.602 162.879C202.611 162.879 199.62 162.879 196.629 162.879C196.629 162.213 196.629 161.547 196.629 160.881C196.686 159.772 197.018 158.773 197.626 157.883C198.333 156.979 199.33 156.647 200.617 156.884Z" fill="#F0DEEC"/>
<path fill-rule="evenodd" clip-rule="evenodd" d="M115.869 150.888C115.869 153.886 115.869 156.884 115.869 159.881C118.195 159.881 120.523 159.881 122.849 159.881C122.432 160.603 121.768 161.102 120.855 161.38C113.218 161.88 105.574 162.046 97.9229 161.88C98.2549 161.213 98.5879 160.548 98.9199 159.881C103.109 160.198 107.098 159.864 110.884 158.882C111.691 157.091 112.189 155.093 112.38 152.887C113.489 152.082 114.652 151.416 115.869 150.888Z" fill="#535B9B"/>
<path fill-rule="evenodd" clip-rule="evenodd" d="M136.806 120.91C145.78 120.91 154.753 120.91 163.726 120.91C163.061 121.577 162.397 122.242 161.732 122.909C155.085 122.909 148.439 122.909 141.792 122.909C141.464 135.41 141.797 147.735 142.789 159.881C142.372 160.603 141.708 161.102 140.795 161.38C150.094 161.88 159.4 162.046 168.711 161.88C168.877 156.208 168.71 150.545 168.213 144.892C167.216 145.559 166.219 146.224 165.222 146.891C164.4 143.511 164.567 140.18 165.72 136.898C166.635 136.272 167.632 135.938 168.711 135.899C169.052 136.736 169.716 137.07 170.705 136.898C170.705 138.897 170.705 140.895 170.705 142.894C170.705 143.56 170.705 144.226 170.705 144.892C169.718 150.698 169.386 156.694 169.708 162.879C140.795 162.879 111.881 162.879 82.9668 162.879C82.9668 162.546 82.9668 162.213 82.9668 161.88C87.9519 161.88 92.9371 161.88 97.9222 161.88C105.573 162.046 113.218 161.88 120.854 161.38C121.767 161.102 122.431 160.603 122.848 159.881C127.501 159.881 132.153 159.881 136.806 159.881C137.451 147.179 136.786 134.855 134.812 122.909C135.477 122.242 136.141 121.577 136.806 120.91Z" fill="#6C72AC"/>
<path fill-rule="evenodd" clip-rule="evenodd" d="M184.664 159.881C185.729 160.815 187.058 161.148 188.652 160.881C189.641 161.052 190.305 160.719 190.646 159.881C192.519 160.722 194.513 161.055 196.628 160.881C196.628 161.547 196.628 162.213 196.628 162.879C190.646 162.879 184.664 162.879 178.682 162.879C178.682 162.546 178.682 162.213 178.682 161.88C180.597 161.017 182.591 160.352 184.664 159.881Z" fill="#4E363D"/>
<path fill-rule="evenodd" clip-rule="evenodd" d="M231.525 160.881C232.19 161.547 232.854 162.213 233.519 162.879C225.542 162.879 217.566 162.879 209.59 162.879C210.279 161.358 211.442 160.359 213.079 159.881C214.858 160.69 216.686 161.356 218.563 161.88C220.557 161.213 222.551 160.548 224.545 159.881C226.821 160.604 229.148 160.938 231.525 160.881Z" fill="#E7D5EB"/>
<path fill-rule="evenodd" clip-rule="evenodd" d="M82.9674 162.879C111.881 162.879 140.795 162.879 169.709 162.879C172.7 162.879 175.691 162.879 178.682 162.879C184.664 162.879 190.647 162.879 196.629 162.879C199.62 162.879 202.611 162.879 205.602 162.879C206.931 162.879 208.261 162.879 209.59 162.879C217.566 162.879 225.543 162.879 233.519 162.879C235.118 163.666 235.783 164.998 235.513 166.876C165.718 167.209 95.9258 166.876 26.1367 165.877C26.469 165.21 26.8014 164.545 27.1337 163.878C32.075 162.885 37.0602 162.552 42.0892 162.879C45.496 162.583 48.6531 161.584 51.561 159.881C54.4769 160.767 57.3019 161.766 60.0357 162.879C62.0109 162.942 63.6729 162.276 65.0209 160.881C65.8265 161.188 66.4915 161.688 67.0149 162.379C72.3221 162.878 77.6393 163.045 82.9674 162.879Z" fill="#D8AFD7"/>
<path fill-rule="evenodd" clip-rule="evenodd" d="M29.1279 163.878C97.2619 163.546 165.392 163.878 233.519 164.878C165.059 166.044 96.5959 166.21 28.1309 165.377C28.6852 164.995 29.0175 164.495 29.1279 163.878Z" fill="#E2AADB"/>
</svg>
