<svg width="100" height="58" viewBox="0 0 100 58" fill="none" xmlns="http://www.w3.org/2000/svg">
<path fill-rule="evenodd" clip-rule="evenodd" d="M67.7673 3.96454C68.0977 4.08843 68.428 4.21232 68.7584 4.33621C68.7322 4.7342 68.5256 4.98198 68.139 5.07955C67.8938 4.917 67.6874 4.71051 67.5195 4.4601C67.6872 4.33327 67.7698 4.16809 67.7673 3.96454Z" fill="#FCD677"/>
<path fill-rule="evenodd" clip-rule="evenodd" d="M44.6005 0C45.1424 0.541675 45.6379 1.11984 46.0871 1.73447C46.1709 2.02674 46.2741 2.31581 46.3969 2.6017C46.5144 3.67639 46.6383 4.7501 46.7685 5.82286C46.9451 6.77434 47.3373 7.62101 47.9455 8.36262C47.8629 8.44525 47.7804 8.44525 47.6977 8.36262C47.2798 7.95477 46.9082 7.52115 46.5827 7.06177C46.2392 6.34988 45.9707 5.60654 45.7774 4.83174C45.6344 3.80464 45.4072 2.81352 45.096 1.85836C45.0294 1.22965 44.8228 0.651491 44.4766 0.123891C44.4766 0.0412928 44.5178 0 44.6005 0Z" fill="#C1F041"/>
<path fill-rule="evenodd" clip-rule="evenodd" d="M67.7679 3.96448C67.7704 4.16803 67.6878 4.33321 67.5201 4.46004C67.688 4.71045 67.8944 4.91694 68.1396 5.07949C68.2902 5.32482 68.3934 5.5726 68.4493 5.82284C68.2795 6.31046 67.9697 6.47562 67.5201 6.3184C67.5966 6.10417 67.7205 5.91833 67.8918 5.76089C67.5826 5.55443 67.2935 5.3273 67.0246 5.07949C66.8709 4.44738 67.1187 4.07571 67.7679 3.96448Z" fill="#FDB437"/>
<path fill-rule="evenodd" clip-rule="evenodd" d="M66.2812 5.07955C66.5101 4.94663 66.7579 4.94663 67.0246 5.07955C67.2936 5.32736 67.5826 5.55448 67.8918 5.76095C67.7205 5.91839 67.5966 6.10422 67.5202 6.31846C67.2815 6.22649 67.0545 6.1026 66.8388 5.94678C66.7893 5.97508 66.7688 6.01639 66.7768 6.07068C66.5199 5.79623 66.4786 5.48651 66.6529 5.1415C66.5355 5.08168 66.4116 5.06103 66.2812 5.07955Z" fill="#FDD579"/>
<path fill-rule="evenodd" clip-rule="evenodd" d="M66.2799 5.0795C66.4102 5.06098 66.5341 5.08164 66.6515 5.14145C66.4772 5.48646 66.5185 5.79619 66.7754 6.07063C66.9755 6.4843 67.1408 6.91792 67.271 7.37148C67.1543 7.83966 66.8653 8.10814 66.4038 8.17677C66.4505 7.95897 66.5331 7.75245 66.6515 7.55732C66.6362 7.48212 66.5949 7.44086 66.5277 7.43343C66.2975 6.9085 66.0911 6.37167 65.9082 5.82285C65.9682 5.5378 66.0921 5.29002 66.2799 5.0795Z" fill="#FDB136"/>
<path fill-rule="evenodd" clip-rule="evenodd" d="M65.662 7.18573C65.9347 7.3178 66.2239 7.40043 66.5293 7.43351C66.5965 7.44094 66.6378 7.4822 66.6532 7.5574C66.5347 7.75253 66.4521 7.95906 66.4054 8.17686C66.0385 8.07489 65.6669 7.99226 65.2904 7.92907C65.1146 7.81125 64.9081 7.77 64.6709 7.80518C64.9415 7.71028 65.2306 7.62765 65.5381 7.5574C65.6479 7.45519 65.6892 7.3313 65.662 7.18573Z" fill="#FCD67F"/>
<path fill-rule="evenodd" clip-rule="evenodd" d="M35.556 10.1591C35.8371 10.3419 36.1262 10.5278 36.4232 10.7166C37.6669 11.8414 38.5341 13.2042 39.025 14.805C40.0682 15.0689 40.9769 15.5644 41.7506 16.2917C41.0788 16.1296 40.4181 15.9025 39.7683 15.6103C39.2824 15.3111 38.8488 14.9394 38.4674 14.4952C37.9728 13.5085 37.4772 12.5173 36.9808 11.5219C36.1439 11.0724 35.2973 10.6388 34.441 10.221C34.1725 9.95254 33.9042 9.6842 33.6357 9.41573C33.5886 9.01085 33.692 8.63918 33.9454 8.30071C33.5428 8.26255 33.1299 8.24186 32.7065 8.23876C32.3698 8.06346 32.2872 7.81568 32.4587 7.49542C31.545 7.12511 31.4831 6.65024 32.2729 6.07068C32.572 6.33407 32.923 6.49922 33.326 6.56624C33.673 6.9954 33.5904 7.34638 33.0782 7.61931C33.4884 7.59268 33.9013 7.59268 34.3171 7.61931C34.4904 7.75088 34.6143 7.91603 34.6888 8.11487C34.4779 8.57154 34.2714 9.02584 34.0693 9.47767C34.5189 9.78665 35.0145 10.0139 35.556 10.1591Z" fill="#4BAADD"/>
<path fill-rule="evenodd" clip-rule="evenodd" d="M55.6268 9.29176C55.6193 9.35904 55.5781 9.40029 55.5029 9.41565C55.1044 9.23762 54.7328 9.0311 54.3879 8.7962C54.2806 8.38117 54.4664 8.13339 54.9454 8.05286C55.1725 8.46541 55.3997 8.87834 55.6268 9.29176Z" fill="#B0E223"/>
<path fill-rule="evenodd" clip-rule="evenodd" d="M65.6624 7.18566C65.6895 7.33123 65.6483 7.45512 65.5385 7.55733C65.231 7.62758 64.9418 7.71021 64.6713 7.80511C64.5078 8.92843 64.2395 10.0434 63.866 11.1502C63.7042 11.5368 63.477 11.8671 63.1846 12.1413C63.2754 11.266 63.42 10.3988 63.6182 9.53958C63.7993 8.66108 64.1916 7.89704 64.7952 7.24761C65.0813 7.18603 65.3704 7.16547 65.6624 7.18566Z" fill="#FBAC3E"/>
<path fill-rule="evenodd" clip-rule="evenodd" d="M17.8386 8.6724C18.427 9.39431 18.9226 10.1789 19.3252 11.0263C19.2426 11.0263 19.1601 11.0263 19.0775 11.0263C18.9262 10.9609 18.7817 10.8783 18.6438 10.7785C18.2894 10.1513 17.9384 9.53183 17.5908 8.92018C17.4018 8.55384 17.4845 8.4712 17.8386 8.6724Z" fill="#FCAB22"/>
<path fill-rule="evenodd" clip-rule="evenodd" d="M72.9712 10.6546C73.3402 10.941 73.6707 11.2715 73.9623 11.6457C73.2726 11.9387 72.6325 12.3104 72.042 12.7607C72.2116 12.0074 72.5213 11.3054 72.9712 10.6546Z" fill="#B0E223"/>
<path fill-rule="evenodd" clip-rule="evenodd" d="M92.4211 9.41564C91.786 10.2779 91.0427 11.042 90.1911 11.7076C89.0316 12.1731 87.834 12.5034 86.5982 12.6987C86.1027 12.9465 85.6071 13.1943 85.1115 13.4421C84.1719 14.4103 84.048 14.3483 84.7399 13.2562C85.4583 12.6628 86.243 12.1672 87.0938 11.7696C88.1299 11.438 89.1624 11.087 90.1911 10.7165C91.0304 10.411 91.7531 9.93598 92.3591 9.29175C92.4086 9.32 92.4291 9.36137 92.4211 9.41564Z" fill="#EF5E76"/>
<path fill-rule="evenodd" clip-rule="evenodd" d="M19.0781 11.0262C19.1608 11.0262 19.2433 11.0262 19.3259 11.0262C20.0254 11.191 20.7275 11.3561 21.4321 11.5217C22.3042 11.7309 23.0888 12.1025 23.786 12.6368C23.6822 12.6791 23.6408 12.7616 23.6621 12.8845C23.5201 12.6399 23.3136 12.454 23.0426 12.327C22.3117 12.1089 21.5683 11.9436 20.8126 11.8315C20.1594 11.6911 19.5812 11.4226 19.0781 11.0262Z" fill="#F9C534"/>
<path fill-rule="evenodd" clip-rule="evenodd" d="M23.7856 12.6369C24.0273 12.7876 24.2131 12.994 24.3431 13.2564C24.6057 13.8438 24.9155 14.4014 25.2723 14.9289C25.1896 15.0115 25.1071 15.0115 25.0245 14.9289C24.3405 14.4095 23.8863 13.7281 23.6617 12.8847C23.6404 12.7618 23.6818 12.6793 23.7856 12.6369Z" fill="#FDAB23"/>
<path fill-rule="evenodd" clip-rule="evenodd" d="M32.3344 13.2563C32.417 13.2563 32.4996 13.2563 32.5822 13.2563C32.6234 13.2563 32.6648 13.2563 32.7061 13.2563C33.0304 13.4982 33.3196 13.7872 33.5733 14.1236C33.4571 14.254 33.3125 14.3367 33.1397 14.3714C32.9272 14.2346 32.7414 14.0693 32.5822 13.8758C32.4035 13.7123 32.321 13.5059 32.3344 13.2563Z" fill="#FC3C72"/>
<path fill-rule="evenodd" clip-rule="evenodd" d="M63.1851 12.1414C62.62 13.0375 61.9181 13.8221 61.079 14.4953C61.0956 14.2733 61.0543 14.0669 60.9551 13.8758C61.6936 13.2991 62.4369 12.7209 63.1851 12.1414Z" fill="#FBD888"/>
<path fill-rule="evenodd" clip-rule="evenodd" d="M46.9543 14.3714C46.747 14.0816 46.4992 13.8338 46.2109 13.628C46.2549 13.5014 46.3376 13.4188 46.4587 13.3802C46.6823 13.2057 46.9301 13.1437 47.2021 13.1944C47.4538 13.838 47.7841 14.4368 48.1932 14.9908C48.1725 15.0321 48.1519 15.0735 48.1312 15.1147C47.7841 14.7869 47.3919 14.5391 46.9543 14.3714Z" fill="#9330CA"/>
<path fill-rule="evenodd" clip-rule="evenodd" d="M54.3866 15.3625C54.311 15.2521 54.2698 15.1282 54.2627 14.9909C54.539 14.7387 54.8487 14.5323 55.1919 14.3714C55.3531 14.4455 55.4564 14.5694 55.5016 14.7431C55.2352 14.9474 54.9875 15.1745 54.7583 15.4245C54.6248 15.4827 54.5009 15.462 54.3866 15.3625Z" fill="#FD5579"/>
<path fill-rule="evenodd" clip-rule="evenodd" d="M8.30068 14.3714C9.14475 14.2861 9.66101 14.6578 9.84932 15.4864C10.0077 17.0695 9.53278 18.4323 8.42458 19.5748C8.52864 19.7278 8.65253 19.8517 8.79625 19.9464C8.60372 20.0942 8.3972 20.2388 8.17679 20.3801C8.3407 20.4812 8.42321 20.6257 8.42458 20.8137C8.11869 20.6812 7.82965 20.5161 7.55734 20.3181C6.12628 21.2613 4.59833 21.9633 2.97338 22.4243C2.43879 22.4809 1.90185 22.5223 1.3628 22.5481C0.880467 22.5732 0.426209 22.4905 0 22.3004C0.132266 22.1846 0.297462 22.1433 0.495563 22.1765C1.39142 22.1923 2.25865 22.0479 3.09727 21.7429C4.44743 21.214 5.64496 20.4706 6.6901 19.5128C6.43353 19.1029 6.227 18.6693 6.07065 18.212C6.24794 18.2592 6.35114 18.3831 6.38038 18.5836C6.43229 18.4384 6.5148 18.3146 6.62816 18.212C6.64972 17.5697 6.71166 16.9503 6.81399 16.3536C6.66334 17.2917 6.89044 18.1177 7.49539 18.8314C8.53831 17.9016 8.95124 16.7452 8.7343 15.3625C8.56953 14.928 8.2598 14.7216 7.80512 14.743C8.00037 14.6634 8.16564 14.5395 8.30068 14.3714Z" fill="#FB728C"/>
<path fill-rule="evenodd" clip-rule="evenodd" d="M44.5993 17.0969C44.6406 17.0969 44.682 17.0969 44.7232 17.0969C44.8148 17.0807 44.8974 17.1014 44.971 17.1589C44.8947 17.4288 44.7501 17.6559 44.5374 17.8402C44.4517 17.7752 44.3897 17.6926 44.3516 17.5925C44.4916 17.4535 44.5742 17.2882 44.5993 17.0969Z" fill="#FC3E72"/>
<path fill-rule="evenodd" clip-rule="evenodd" d="M61.5719 16.8491C62.702 16.9842 63.6931 17.4178 64.5452 18.15C64.4248 18.4115 64.3216 18.68 64.2355 18.9553C64.166 19.0199 64.0834 19.0612 63.9877 19.0792C63.1376 18.5203 62.2084 18.1486 61.2002 17.9641C61.2504 17.5658 61.3743 17.1942 61.5719 16.8491Z" fill="#52B3D2"/>
<path fill-rule="evenodd" clip-rule="evenodd" d="M60.9528 13.8757C61.052 14.0668 61.0933 14.2732 61.0767 14.4952C60.4631 14.8809 59.8643 15.2938 59.2803 15.7341C59.2015 17.0818 58.8711 18.3619 58.2892 19.5747C58.152 19.7249 58.0901 19.6836 58.1033 19.4508C58.1033 19.2857 58.1033 19.1204 58.1033 18.9552C58.2717 17.9106 58.5402 16.8781 58.9086 15.858C59.4421 15.0441 60.1235 14.3834 60.9528 13.8757Z" fill="#FAAD3F"/>
<path fill-rule="evenodd" clip-rule="evenodd" d="M8.30021 14.3713C8.16516 14.5394 7.99989 14.6633 7.80464 14.7429C7.57284 14.7874 7.38701 14.9113 7.24713 15.1146C7.01571 15.4993 6.87113 15.9122 6.81352 16.3535C6.71118 16.9502 6.64924 17.5696 6.62768 18.2119C6.51432 18.3145 6.43181 18.4384 6.3799 18.5836C6.35066 18.383 6.24746 18.2591 6.07017 18.2119C5.89326 17.8646 5.81062 17.4929 5.82239 17.0969C5.91308 15.5195 6.73906 14.611 8.30021 14.3713Z" fill="#E34761"/>
<path fill-rule="evenodd" clip-rule="evenodd" d="M50.6703 17.4686C51.2343 17.566 51.6474 17.8757 51.9092 18.3978C51.7179 18.5449 51.5114 18.5861 51.2897 18.5217C51.1871 18.2749 51.022 18.0891 50.7942 17.9642C50.6784 17.8319 50.6371 17.6667 50.6703 17.4686Z" fill="#FC386F"/>
<path fill-rule="evenodd" clip-rule="evenodd" d="M25.3975 20.442C26.1788 20.9155 26.9634 21.3904 27.7514 21.8668C29.0348 23.0084 30.3976 24.0202 31.8398 24.9021C31.7572 24.9021 31.7159 24.9433 31.7159 25.026C29.5073 23.9836 27.3186 22.9099 25.1497 21.8048C24.4676 21.3563 23.7242 21.026 22.9197 20.8137C20.7225 19.8196 18.4512 19.6751 16.1057 20.3801C15.5607 20.5548 15.0239 20.7406 14.4951 20.9376C14.4951 20.8963 14.4951 20.8549 14.4951 20.8137C16.103 20.1328 17.7549 19.534 19.4508 19.0173C21.572 18.9193 23.5543 19.3941 25.3975 20.442Z" fill="#FC7F98"/>
<path fill-rule="evenodd" clip-rule="evenodd" d="M79.1655 19.327C79.3133 19.3852 79.3959 19.5091 79.4133 19.6986C79.372 19.8225 79.3306 19.9464 79.2894 20.0703C79.1697 19.8354 79.1284 19.5876 79.1655 19.327Z" fill="#FD467A"/>
<path fill-rule="evenodd" clip-rule="evenodd" d="M30.3525 19.8225C30.645 19.8441 30.9341 19.8853 31.2198 19.9464C31.2198 20.0703 31.2198 20.1942 31.2198 20.3181C30.9341 20.257 30.645 20.2157 30.3525 20.1942C30.3525 20.0703 30.3525 19.9464 30.3525 19.8225Z" fill="#6FBED7"/>
<path fill-rule="evenodd" clip-rule="evenodd" d="M66.0329 19.8226C66.3366 20.0344 66.3366 20.2822 66.0329 20.5659C65.9328 20.5278 65.8502 20.4658 65.7852 20.3801C65.9756 20.2426 66.0581 20.0567 66.0329 19.8226Z" fill="#3D74CC"/>
<path fill-rule="evenodd" clip-rule="evenodd" d="M73.0961 21.1853C72.9979 20.7703 72.8328 20.4812 72.6006 20.3181C72.7721 20.1569 72.9579 20.1569 73.1581 20.3181C73.3406 19.4455 73.7123 19.3629 74.2731 20.0703C74.3621 19.7316 74.5479 19.6491 74.8306 19.8225C75.0817 20.3429 74.9166 20.632 74.3351 20.6897C74.1899 20.6378 74.066 20.5553 73.9634 20.442C73.9221 20.5039 73.8807 20.5659 73.8395 20.6278C74.0554 21.5296 73.8077 21.7154 73.0961 21.1853Z" fill="#9858F0"/>
<path fill-rule="evenodd" clip-rule="evenodd" d="M83.8729 19.5747C84.2381 19.5404 84.5891 19.5817 84.926 19.6986C84.9876 20.0264 85.0082 20.3569 84.9879 20.6898C85.0355 21.289 84.9529 21.8671 84.7402 22.4242C84.4198 22.5456 84.0894 22.5869 83.749 22.5481C83.8452 21.5601 83.8865 20.569 83.8729 19.5747Z" fill="#2D4EC9"/>
<path fill-rule="evenodd" clip-rule="evenodd" d="M43.3616 20.3181C43.6619 20.28 43.9509 20.3213 44.2288 20.442C44.1016 20.6308 43.9157 20.7135 43.6713 20.6898C43.3149 20.6976 43.2115 20.5737 43.3616 20.3181Z" fill="#FDCB3C"/>
<path fill-rule="evenodd" clip-rule="evenodd" d="M36.0496 17.9642C36.3116 18.8416 36.5801 19.7501 36.8549 20.6898C36.9846 20.9701 37.129 21.2385 37.2885 21.4951C36.9511 21.774 36.5589 21.9598 36.1115 22.0526C35.8723 21.6819 35.6451 21.3103 35.4301 20.9376C35.1658 20.2403 35.0006 19.5177 34.9346 18.7695C35.0731 18.204 35.4448 17.9356 36.0496 17.9642Z" fill="#FD4E74"/>
<path fill-rule="evenodd" clip-rule="evenodd" d="M8.79524 19.9464C10.459 20.8638 12.2347 21.1529 14.1225 20.8136C14.2464 20.8136 14.3703 20.8136 14.4942 20.8136C14.4942 20.8549 14.4942 20.8963 14.4942 20.9375C13.1553 21.2961 11.7925 21.4613 10.4058 21.4331C9.69592 21.3754 9.03521 21.1688 8.42356 20.8136C8.4222 20.6257 8.33969 20.4811 8.17578 20.38C8.39618 20.2388 8.60271 20.0942 8.79524 19.9464Z" fill="#DD4E5D"/>
<path fill-rule="evenodd" clip-rule="evenodd" d="M46.3355 21.6809C46.4333 21.716 46.5159 21.7779 46.5833 21.8667C46.3892 22.2063 46.1 22.3509 45.7161 22.3004C45.6889 22.1548 45.7302 22.0309 45.84 21.9287C46.029 21.8675 46.1942 21.7849 46.3355 21.6809Z" fill="#2D6BC9"/>
<path fill-rule="evenodd" clip-rule="evenodd" d="M50.6716 22.4242C50.5504 22.3857 50.4678 22.303 50.4238 22.1764C50.5812 22.0788 50.7051 21.9549 50.7955 21.8047C50.9772 21.7066 51.1424 21.7066 51.2911 21.8047C51.4622 22.2564 51.6687 22.6901 51.9105 23.1056C51.4624 22.9729 51.0495 22.7458 50.6716 22.4242Z" fill="#B2E329"/>
<path fill-rule="evenodd" clip-rule="evenodd" d="M72.5996 20.3181C72.8318 20.4813 72.9969 20.7703 73.0951 21.1853C73.1084 21.4831 72.9845 21.7102 72.7235 21.8667C72.1426 21.9028 71.5644 21.9028 70.989 21.8667C70.6722 22.225 70.4037 22.6174 70.1837 23.0437C69.5607 23.7565 68.8379 23.8598 68.0156 23.3534C68.0569 23.3122 68.0983 23.2708 68.1395 23.2295C68.6791 23.2815 69.2159 23.2609 69.7501 23.1676C70.0471 22.6365 70.4187 22.1616 70.8651 21.7429C71.4271 21.572 72.0053 21.5101 72.5996 21.557C72.5362 21.1191 72.5362 20.7061 72.5996 20.3181Z" fill="#A36AEC"/>
<path fill-rule="evenodd" clip-rule="evenodd" d="M56.6184 24.7781C56.0587 24.8554 55.5217 24.8554 55.0078 24.7781C55.1813 23.8377 55.2845 22.8879 55.3175 21.9286C55.9599 22.614 56.4555 23.3987 56.8042 24.2825C56.8642 24.4923 56.8022 24.6575 56.6184 24.7781Z" fill="#FDC416"/>
<path fill-rule="evenodd" clip-rule="evenodd" d="M97.9962 26.6365C98.2897 26.4891 98.5375 26.2826 98.7396 26.0171C99.3239 25.2922 99.3858 24.5075 98.9254 23.6631C98.1732 22.7195 97.2027 22.1825 96.014 22.0526C95.8382 21.9347 95.6318 21.8935 95.3945 21.9287C95.3945 21.8874 95.3945 21.846 95.3945 21.8048C97.3158 21.3089 98.782 21.9283 99.7927 23.6631C100.359 25.381 99.7607 26.3721 97.9962 26.6365Z" fill="#51B7EE"/>
<path fill-rule="evenodd" clip-rule="evenodd" d="M95.3945 21.9286C95.6318 21.8935 95.8382 21.9347 96.014 22.0525C94.9596 22.3525 94.0923 22.9306 93.4123 23.787C93.2485 23.8081 93.1039 23.7668 92.9787 23.6631C92.8407 24.1532 92.7375 24.1532 92.6689 23.6631C93.4141 22.8358 94.3228 22.2576 95.3945 21.9286Z" fill="#3382AC"/>
<path fill-rule="evenodd" clip-rule="evenodd" d="M59.3418 23.1675C59.4652 23.1569 59.5684 23.1983 59.6515 23.2914C59.7127 23.4939 59.7333 23.7004 59.7135 23.9109C59.5896 23.9109 59.4657 23.9109 59.3418 23.9109C59.3418 23.6631 59.3418 23.4153 59.3418 23.1675Z" fill="#FD5A85"/>
<path fill-rule="evenodd" clip-rule="evenodd" d="M64.4225 23.6631C64.5876 23.6631 64.7529 23.6631 64.918 23.6631C64.918 23.787 64.918 23.9109 64.918 24.0348C64.6578 24.032 64.4308 24.1146 64.2366 24.2826C64.1747 24.2413 64.1127 24.2 64.0508 24.1587C64.1776 23.9912 64.3015 23.8261 64.4225 23.6631Z" fill="#982BE0"/>
<path fill-rule="evenodd" clip-rule="evenodd" d="M78.1743 23.9109C78.4041 23.8826 78.5073 23.9652 78.484 24.1586C78.2692 24.4003 78.0007 24.5242 77.6787 24.5303C77.6787 24.4064 77.6787 24.2825 77.6787 24.1586C77.9116 24.1922 78.0768 24.1096 78.1743 23.9109Z" fill="#2E6BCA"/>
<path fill-rule="evenodd" clip-rule="evenodd" d="M98.7403 26.017C98.5382 26.2825 98.2904 26.489 97.997 26.6365C97.7049 26.6567 97.4159 26.6361 97.1297 26.5745C96.1229 26.0932 95.4621 25.3085 95.1475 24.2206C95.3084 24.0563 95.4735 23.891 95.643 23.725C95.7648 23.6518 95.8474 23.6932 95.8908 23.8489C96.2427 25.3474 97.1925 26.07 98.7403 26.017Z" fill="#3891BF"/>
<path fill-rule="evenodd" clip-rule="evenodd" d="M18.0874 25.026C18.9247 24.8308 19.2964 25.1612 19.2024 26.0171C18.6858 25.9964 18.1902 26.079 17.7157 26.2649C17.6881 26.0367 17.6467 25.8096 17.5918 25.5835C17.6744 25.317 17.8396 25.1311 18.0874 25.026Z" fill="#FCC51C"/>
<path fill-rule="evenodd" clip-rule="evenodd" d="M92.6699 23.6632C92.7384 24.1533 92.8416 24.1533 92.9796 23.6632C93.1048 23.7669 93.2494 23.8082 93.4132 23.7871C93.0537 24.2158 92.7233 24.6701 92.4221 25.1499C92.6678 25.4576 92.9362 25.7467 93.2274 26.0171C93.7981 26.662 94.0045 27.4053 93.8468 28.2472C93.4511 29.198 92.7697 29.5697 91.8026 29.3622C92.2846 29.4517 92.6149 29.2866 92.7938 28.8666C93.3588 27.8055 93.1523 26.8763 92.1743 26.0791C92.0917 25.9964 92.0092 25.9964 91.9265 26.0791C91.773 26.4958 91.6904 26.9295 91.6787 27.3799C91.5809 27.2425 91.5189 27.0774 91.4929 26.8844C91.4528 27.1407 91.3494 27.1819 91.1832 27.0083C91.0987 27.1003 91.016 27.1828 90.9354 27.256C90.9017 26.7207 90.9842 26.2045 91.1832 25.7074C91.0875 25.5561 90.9636 25.4322 90.8115 25.3357C90.1685 25.0934 89.5077 25.0108 88.8292 25.088C87.8437 25.4151 86.9765 25.9314 86.2275 26.6366C86.2275 26.5953 86.2275 26.5539 86.2275 26.5127C87.0424 25.5471 88.0748 24.9276 89.3248 24.6543C90.0519 24.6271 90.7747 24.6685 91.4929 24.7782C91.946 24.4697 92.3382 24.0981 92.6699 23.6632Z" fill="#48B0E6"/>
<path fill-rule="evenodd" clip-rule="evenodd" d="M47.8203 25.6454C48.1191 25.6694 48.243 25.8346 48.192 26.1409C48.0681 26.1409 47.9442 26.1409 47.8203 26.1409C47.8203 25.9758 47.8203 25.8105 47.8203 25.6454Z" fill="#FFE08A"/>
<path fill-rule="evenodd" clip-rule="evenodd" d="M69.1299 26.0171C69.9059 26.0312 69.9059 26.1551 69.1299 26.3888C69.1299 26.2649 69.1299 26.141 69.1299 26.0171Z" fill="#80A3DB"/>
<path fill-rule="evenodd" clip-rule="evenodd" d="M92.7928 28.8666C92.4428 28.9185 92.1744 28.7946 91.9875 28.4949C91.7956 28.1466 91.6924 27.7749 91.6777 27.3799C91.6894 26.9295 91.772 26.4958 91.9255 26.0791C92.0082 25.9964 92.0907 25.9964 92.1733 26.0791C93.1513 26.8763 93.3578 27.8055 92.7928 28.8666Z" fill="#F3F8FA"/>
<path fill-rule="evenodd" clip-rule="evenodd" d="M51.2906 27.5037C51.1694 27.7901 50.9629 27.9965 50.6711 28.1231C50.6299 28.1231 50.5885 28.1231 50.5472 28.1231C50.1139 27.5866 49.6183 27.1117 49.0605 26.6984C49.2257 26.5332 49.391 26.368 49.5561 26.2028C49.8396 26.151 50.0874 26.2337 50.2995 26.4506C50.6971 26.7449 51.0274 27.0958 51.2906 27.5037Z" fill="#234AC8"/>
<path fill-rule="evenodd" clip-rule="evenodd" d="M63.5547 26.7604C63.7584 26.7339 63.9442 26.7753 64.1122 26.8843C64.1568 27.1223 64.2601 27.3288 64.4219 27.5037C64.25 27.8232 64.0641 27.8232 63.8644 27.5037C63.7254 27.2675 63.6222 27.0197 63.5547 26.7604Z" fill="#FDC931"/>
<path fill-rule="evenodd" clip-rule="evenodd" d="M56.9875 27.3799C57.4939 27.3449 57.5559 27.4276 57.1733 27.6276C57.0457 27.586 56.9837 27.5034 56.9875 27.3799Z" fill="#447CCF"/>
<path fill-rule="evenodd" clip-rule="evenodd" d="M23.7857 27.5037C24.1149 27.8462 24.404 28.2385 24.653 28.6807C24.1714 28.5561 23.7585 28.2877 23.4141 27.8754C23.5181 27.7224 23.642 27.5985 23.7857 27.5037Z" fill="#983CCB"/>
<path fill-rule="evenodd" clip-rule="evenodd" d="M51.2894 27.5037C51.4916 27.544 51.6155 27.6679 51.661 27.8754C51.4553 28.1637 51.2075 28.4115 50.9177 28.6187C50.7559 28.4989 50.6733 28.3337 50.6699 28.1232C50.9617 27.9966 51.1682 27.7902 51.2894 27.5037Z" fill="#3C6ECC"/>
<path fill-rule="evenodd" clip-rule="evenodd" d="M56.1226 27.7515C56.253 27.7331 56.3769 27.7536 56.4943 27.8135C56.4088 28.1475 56.223 28.416 55.9368 28.6188C55.8511 28.5537 55.7891 28.4711 55.751 28.371C55.9075 28.1816 56.0313 27.9752 56.1226 27.7515Z" fill="#FCC621"/>
<path fill-rule="evenodd" clip-rule="evenodd" d="M59.7156 28.1232C59.8395 28.1232 59.9634 28.1232 60.0873 28.1232C60.1255 28.4235 60.0841 28.7126 59.9634 28.9905C59.7564 28.7414 59.6738 28.4524 59.7156 28.1232Z" fill="#9B31E1"/>
<path fill-rule="evenodd" clip-rule="evenodd" d="M66.281 27.5037C66.7245 27.8204 67.2201 28.0268 67.7677 28.1232C67.6132 28.349 67.5305 28.5968 67.5199 28.8665C66.9329 28.9604 66.4373 28.7953 66.0332 28.371C66.1666 28.0948 66.2493 27.8056 66.281 27.5037Z" fill="#FA567A"/>
<path fill-rule="evenodd" clip-rule="evenodd" d="M86.2264 26.5126C86.2264 26.5538 86.2264 26.5952 86.2264 26.6365C85.375 27.6132 84.3839 28.3979 83.253 28.9904C82.6266 29.1622 81.9864 29.2449 81.3327 29.2382C79.7285 29.1119 78.1386 28.8848 76.5629 28.5568C75.0325 28.1499 73.7729 28.5423 72.7842 29.7337C72.1125 31.1486 71.1007 32.243 69.7489 33.0168C69.0121 33.3046 68.2481 33.4491 67.4569 33.4504C66.4089 33.293 65.3558 33.1691 64.2977 33.0788C63.6252 33.0813 62.9645 33.1639 62.3154 33.3266C62.3154 33.2853 62.3154 33.2439 62.3154 33.2027C62.6458 33.0788 62.9761 32.9549 63.3066 32.831C63.928 32.6511 64.5681 32.5685 65.2269 32.5832C66.3266 32.667 67.421 32.7909 68.51 32.9549C69.4217 33.0435 70.1857 32.7544 70.802 32.0877C71.2975 31.2617 71.7931 30.4358 72.2886 29.6098C72.5157 29.3827 72.7429 29.1555 72.97 28.9284C74.2393 28.249 75.6021 27.9393 77.0584 27.9993C78.9982 28.1293 80.9391 28.1499 82.8813 28.0612C83.2294 27.9643 83.5599 27.861 83.8724 27.7515C84.7153 27.4335 85.4999 27.0205 86.2264 26.5126Z" fill="#46A4D5"/>
<path fill-rule="evenodd" clip-rule="evenodd" d="M91.678 27.3798C91.6927 27.7748 91.7959 28.1465 91.9878 28.4949C92.1747 28.7945 92.4431 28.9184 92.7931 28.8665C92.6142 29.2865 92.2839 29.4517 91.8019 29.3621C91.614 29.3607 91.4694 29.2782 91.3683 29.1143C91.0741 28.5314 90.9296 27.912 90.9347 27.2559C91.0154 27.1827 91.098 27.1002 91.1825 27.0082C91.3487 27.1819 91.4521 27.1406 91.4922 26.8843C91.5182 27.0773 91.5802 27.2424 91.678 27.3798Z" fill="#1D6C96"/>
<path fill-rule="evenodd" clip-rule="evenodd" d="M6.81348 28.6187C6.82054 28.4814 6.86179 28.3575 6.93737 28.2471C7.18057 28.0662 7.40766 27.8597 7.61877 27.6276C7.85961 28.0749 8.14865 28.4878 8.486 28.8665C8.94093 29.2186 9.37455 29.5903 9.78686 29.9815C9.56001 30.3996 9.22972 30.6266 8.79573 30.6629C8.02315 30.0764 7.36244 29.395 6.81348 28.6187Z" fill="#ADE118"/>
<path fill-rule="evenodd" clip-rule="evenodd" d="M29.6091 28.7426C29.733 28.7426 29.8569 28.7426 29.9808 28.7426C29.9227 29.0904 29.7574 29.3796 29.4852 29.6098C29.444 29.5272 29.4026 29.4446 29.3613 29.362C29.4464 29.1542 29.5291 28.9477 29.6091 28.7426Z" fill="#FE5C86"/>
<path fill-rule="evenodd" clip-rule="evenodd" d="M32.3346 30.601C32.189 30.6281 32.0651 30.5869 31.9629 30.4771C32.1007 30.2393 32.2659 30.0328 32.4585 29.8576C32.8177 29.6775 32.9829 29.8014 32.954 30.2293C32.6526 30.2012 32.4462 30.3251 32.3346 30.601Z" fill="#3B72CC"/>
<path fill-rule="evenodd" clip-rule="evenodd" d="M29.114 30.2293C29.0756 30.433 28.9517 30.5569 28.7423 30.601C28.5846 30.5295 28.5846 30.447 28.7423 30.3532C28.8559 30.2755 28.9798 30.2341 29.114 30.2293Z" fill="#85A5DC"/>
<path fill-rule="evenodd" clip-rule="evenodd" d="M61.2016 30.2292C61.4614 30.4001 61.5027 30.6065 61.3255 30.8487C61.2077 30.6729 61.1664 30.4665 61.2016 30.2292Z" fill="#FCD24D"/>
<path fill-rule="evenodd" clip-rule="evenodd" d="M78.0506 30.2294C78.625 30.3555 78.9761 30.6859 79.1037 31.2205C78.9186 31.375 78.7328 31.375 78.5462 31.2205C78.3598 30.9722 78.1532 30.7451 77.9268 30.5391C77.9569 30.4273 77.9982 30.3241 78.0506 30.2294Z" fill="#FD4174"/>
<path fill-rule="evenodd" clip-rule="evenodd" d="M81.8909 30.9727C82.108 30.9625 82.2319 31.0657 82.2626 31.2824C82.0282 31.5135 81.7597 31.6993 81.4573 31.8399C81.3954 31.7986 81.3334 31.7573 81.2715 31.716C81.395 31.3871 81.6015 31.1393 81.8909 30.9727Z" fill="#B6E433"/>
<path fill-rule="evenodd" clip-rule="evenodd" d="M86.2264 30.9727C86.3503 30.9727 86.4742 30.9727 86.5981 30.9727C86.6362 31.273 86.5948 31.562 86.4742 31.8399C86.2671 31.5909 86.1845 31.3018 86.2264 30.9727Z" fill="#A13CE3"/>
<path fill-rule="evenodd" clip-rule="evenodd" d="M67.7672 31.5921C67.8911 31.5921 68.015 31.5921 68.1389 31.5921C68.1389 31.7572 68.1389 31.9225 68.1389 32.0877C67.8931 32.0732 67.6867 32.1558 67.5194 32.3354C67.4781 32.2735 67.4368 32.2116 67.3955 32.1496C67.4965 31.9461 67.6204 31.7602 67.7672 31.5921Z" fill="#9D35E2"/>
<path fill-rule="evenodd" clip-rule="evenodd" d="M57.9797 32.4594C58.0932 32.8261 57.9279 32.9912 57.4842 32.9549C57.4547 32.719 57.3308 32.5538 57.1125 32.4594C56.7828 32.2536 56.7828 32.047 57.1125 31.8399C57.4383 32.0015 57.7274 32.2079 57.9797 32.4594Z" fill="#FC386F"/>
<path fill-rule="evenodd" clip-rule="evenodd" d="M54.5107 32.5832C54.6453 32.5981 54.7279 32.6807 54.7585 32.831C54.7172 32.9136 54.6759 32.9961 54.6346 33.0788C54.5195 32.9314 54.4783 32.7663 54.5107 32.5832Z" fill="#FDD14A"/>
<path fill-rule="evenodd" clip-rule="evenodd" d="M24.5303 37.9106C24.7284 37.9438 24.8935 37.9024 25.0258 37.7867C25.2138 37.7853 25.3584 37.7028 25.4595 37.5389C25.6246 37.2085 25.7899 36.8782 25.955 36.5478C26.1483 35.5679 26.4374 34.618 26.8223 33.6983C26.9613 33.4351 27.1471 33.208 27.3798 33.0169C28.0819 32.9342 28.7838 32.9342 29.4859 33.0169C30.6995 33.6444 31.8971 34.3052 33.0787 34.9991C32.7483 35.0818 32.418 35.0818 32.0876 34.9991C30.9527 34.4111 29.8376 33.7917 28.7426 33.1408C28.6187 33.0581 28.4948 33.0581 28.3709 33.1408C28.0566 33.5008 27.7881 33.8931 27.5656 34.3177C27.1879 35.445 26.7749 36.56 26.3267 37.6628C26.2148 37.8116 26.0704 37.9149 25.8931 37.9725C25.4151 38.0728 24.9609 38.0522 24.5303 37.9106Z" fill="#47AFE7"/>
<path fill-rule="evenodd" clip-rule="evenodd" d="M16.8467 33.8222C16.6486 33.789 16.4834 33.8304 16.3511 33.9461C15.4131 34.1406 14.8351 34.7188 14.6166 35.6806C14.4252 35.7985 14.2187 35.8398 13.9972 35.8044C13.9854 35.4084 14.0681 35.0367 14.245 34.6894C14.894 33.7376 15.7613 33.4485 16.8467 33.8222Z" fill="#5BBFF2"/>
<path fill-rule="evenodd" clip-rule="evenodd" d="M16.8481 33.8222C17.353 34.4586 17.7659 35.1607 18.087 35.9283C18.0521 36.0867 17.9694 36.2105 17.8392 36.3C17.798 36.3 17.7566 36.3 17.7153 36.3C17.555 36.2021 17.4104 36.0782 17.2817 35.9283C16.9364 35.2793 16.6267 34.6186 16.3525 33.9461C16.4849 33.8304 16.65 33.789 16.8481 33.8222Z" fill="#429BC8"/>
<path fill-rule="evenodd" clip-rule="evenodd" d="M54.8824 34.4417C55.5508 34.7555 56.2116 35.1066 56.8647 35.4947C56.0905 35.7114 55.3059 35.732 54.5107 35.5567C54.66 35.1912 54.7839 34.8195 54.8824 34.4417Z" fill="#2B6AC9"/>
<path fill-rule="evenodd" clip-rule="evenodd" d="M65.414 34.4417C65.5486 34.4565 65.6312 34.5392 65.6618 34.6894C65.6206 34.7721 65.5792 34.8546 65.5379 34.9372C65.4228 34.7899 65.3816 34.6248 65.414 34.4417Z" fill="#F9D35A"/>
<path fill-rule="evenodd" clip-rule="evenodd" d="M77.1836 34.5655C77.3901 34.5655 77.5965 34.5655 77.803 34.5655C77.8271 34.9161 77.9097 35.2464 78.0508 35.5566C77.5368 35.4445 77.2478 35.1141 77.1836 34.5655Z" fill="#FDC82D"/>
<path fill-rule="evenodd" clip-rule="evenodd" d="M72.6001 35.6805C72.1472 35.5369 71.693 35.3923 71.2373 35.2469C71.6554 34.9767 72.1097 34.7908 72.6001 34.6894C73.013 34.6067 73.4261 34.5242 73.839 34.4416C73.7672 34.9756 73.7258 35.5124 73.7151 36.0522C73.3313 35.9635 72.9596 35.8396 72.6001 35.6805Z" fill="#2CACF9"/>
<path fill-rule="evenodd" clip-rule="evenodd" d="M82.5118 34.1938C82.3862 34.8516 82.0351 35.4298 81.4587 35.9283C81.2011 35.6195 80.9738 35.2892 80.7773 34.9372C81.3978 34.7589 81.976 34.5111 82.5118 34.1938Z" fill="#FA5A7C"/>
<path fill-rule="evenodd" clip-rule="evenodd" d="M21.1839 32.831C21.1427 32.9136 21.1013 32.9961 21.06 33.0788C20.9366 33.0681 20.8334 33.1095 20.7503 33.2026C20.2632 34.0674 19.7883 34.9346 19.3256 35.8044C18.8928 36.1413 18.3972 36.3065 17.8389 36.2999C17.9691 36.2105 18.0517 36.0866 18.0866 35.9282C18.21 35.9389 18.3132 35.8975 18.3964 35.8044C18.9041 34.7752 19.503 33.8046 20.1928 32.8929C20.5206 32.8313 20.851 32.8107 21.1839 32.831Z" fill="#5CBEF0"/>
<path fill-rule="evenodd" clip-rule="evenodd" d="M35.9279 35.4327C36.1356 35.5174 36.2182 35.6826 36.1757 35.9283C35.8743 35.9002 35.6679 36.0241 35.5562 36.3C35.4107 36.3271 35.2868 36.2859 35.1846 36.1761C35.3112 35.8017 35.559 35.5539 35.9279 35.4327Z" fill="#B5E334"/>
<path fill-rule="evenodd" clip-rule="evenodd" d="M40.3877 34.8133C40.6052 34.8842 40.8117 34.9875 41.0072 35.123C41.2516 35.1843 41.4994 35.205 41.7505 35.185C41.6772 35.5104 41.6359 35.8408 41.6266 36.1761C41.0709 36.2388 40.596 36.0735 40.2019 35.6805C40.1852 35.3805 40.2471 35.0914 40.3877 34.8133Z" fill="#FB4D73"/>
<path fill-rule="evenodd" clip-rule="evenodd" d="M49.9284 36.1761C49.8101 35.8978 49.7275 35.6088 49.6807 35.3088C50.025 35.3362 50.3554 35.295 50.6718 35.1849C50.9334 34.979 51.0779 35.0204 51.1054 35.3088C50.7907 35.582 50.5223 35.8917 50.3001 36.238C50.1667 36.2962 50.0428 36.2756 49.9284 36.1761Z" fill="#B2E32A"/>
<path fill-rule="evenodd" clip-rule="evenodd" d="M43.239 34.0699C43.3475 34.0537 43.4302 34.0949 43.4868 34.1938C43.4025 34.3623 43.3199 34.5274 43.239 34.6894C43.1155 34.6931 43.0328 34.6311 42.9912 34.5035C43.0504 34.3421 43.1331 34.1976 43.239 34.0699Z" fill="#A445E4"/>
<path fill-rule="evenodd" clip-rule="evenodd" d="M45.3435 33.2027C45.7012 33.5189 46.1141 33.7253 46.5824 33.8222C46.5062 34.4448 46.4029 35.0643 46.2727 35.6805C45.6116 35.1639 45.0127 34.5857 44.4763 33.946C44.5101 33.7043 44.4276 33.5185 44.2285 33.3885C44.2905 33.3266 44.3524 33.2646 44.4144 33.2027C44.5522 33.3527 44.6968 33.3527 44.848 33.2027C45.022 33.5212 45.1872 33.5212 45.3435 33.2027Z" fill="#FD718D"/>
<path fill-rule="evenodd" clip-rule="evenodd" d="M32.9531 30.9727C33.4977 31.0614 33.9107 31.3506 34.192 31.84C34.002 31.9931 33.7956 32.055 33.5726 32.0258C33.2798 31.7153 33.0733 31.3643 32.9531 30.9727Z" fill="#FD386F"/>
<path fill-rule="evenodd" clip-rule="evenodd" d="M52.7758 31.0966C53.0774 31.2024 53.0567 31.3263 52.7139 31.4683C52.6556 31.3349 52.6763 31.211 52.7758 31.0966Z" fill="#5A8AD1"/>
<path fill-rule="evenodd" clip-rule="evenodd" d="M42.1214 28.8665C42.6243 29.6645 43.0992 30.4904 43.5462 31.3443C44.0868 32.0294 44.6857 32.6489 45.3426 33.2027C45.1862 33.5212 45.0211 33.5212 44.847 33.2027C44.6959 33.3527 44.5513 33.3527 44.4134 33.2027C44.3514 33.2646 44.2895 33.3266 44.2276 33.3885C44.4266 33.5185 44.5092 33.7043 44.4753 33.946C43.9388 33.5127 43.4639 33.0171 43.0506 32.4593C42.4674 31.4582 41.9512 30.4258 41.502 29.3621C41.7813 29.4507 42.0084 29.6158 42.1834 29.8576C42.2607 29.6143 42.1987 29.4078 41.9975 29.2382C42.0752 29.1246 42.1166 29.0007 42.1214 28.8665Z" fill="#FB849C"/>
<path fill-rule="evenodd" clip-rule="evenodd" d="M38.2816 29.7337C38.4051 29.73 38.4877 29.792 38.5293 29.9196C39.2292 31.5057 38.9402 31.6296 37.6621 30.2912C37.8558 30.0762 38.0623 29.8903 38.2816 29.7337Z" fill="#FDC72A"/>
<path fill-rule="evenodd" clip-rule="evenodd" d="M53.6441 29.7337C53.7677 29.73 53.8503 29.792 53.8919 29.9196C53.7965 30.1395 53.6519 30.3253 53.4583 30.4771C53.3726 30.412 53.3106 30.3294 53.2725 30.2293C53.3993 30.0618 53.5232 29.8967 53.6441 29.7337Z" fill="#FD4778"/>
<path fill-rule="evenodd" clip-rule="evenodd" d="M46.9544 28.371C47.3796 28.3248 47.6688 28.4899 47.8216 28.8665C47.8216 29.0317 47.8216 29.197 47.8216 29.3621C47.305 29.3414 46.8094 29.4241 46.3349 29.6099C46.0187 28.9211 46.2251 28.508 46.9544 28.371Z" fill="#FCC31A"/>
<path fill-rule="evenodd" clip-rule="evenodd" d="M32.2104 26.7603C32.3339 26.7566 32.4166 26.8185 32.4582 26.9461C32.3696 27.2689 32.2045 27.5373 31.9626 27.7514C31.8493 27.6488 31.7668 27.5249 31.7148 27.3797C31.9691 27.2421 32.1343 27.0357 32.2104 26.7603Z" fill="#FCCB39"/>
<path fill-rule="evenodd" clip-rule="evenodd" d="M31.7148 25.0259C31.7148 24.9432 31.7561 24.902 31.8387 24.902C31.9214 24.902 32.0039 24.902 32.0865 24.902C32.342 25.0601 32.6311 25.1634 32.9538 25.2117C34.76 25.1817 36.5357 25.3881 38.2811 25.8312C39.7542 26.4998 41.0344 27.429 42.1217 28.6187C42.1217 28.7013 42.1217 28.7838 42.1217 28.8665C42.1168 29.0007 42.0755 29.1245 41.9978 29.2381C42.199 29.4078 42.2609 29.6143 42.1836 29.8576C42.0087 29.6158 41.7816 29.4506 41.5022 29.362C40.8908 27.4914 39.6107 26.3971 37.6616 26.0789C35.6051 26.1058 33.6229 25.7547 31.7148 25.0259Z" fill="#F36A82"/>
<path fill-rule="evenodd" clip-rule="evenodd" d="M63.0592 36.0522C63.1826 36.0415 63.2858 36.0829 63.3689 36.1761C63.4301 36.3785 63.4507 36.585 63.4308 36.7955C63.3455 36.9534 63.2422 36.9534 63.1211 36.7955C63.0598 36.5511 63.0391 36.3033 63.0592 36.0522Z" fill="#9A32E1"/>
<path fill-rule="evenodd" clip-rule="evenodd" d="M21.1844 32.8311C21.6804 32.8894 22.0726 33.1372 22.3614 33.5744C22.8793 34.528 23.3955 35.4779 23.91 36.4239C24.1448 36.9892 24.5165 37.4435 25.0251 37.7867C24.8927 37.9024 24.7276 37.9438 24.5295 37.9106C24.171 37.7394 23.8612 37.4916 23.6003 37.1672C22.8769 36.0512 22.2162 34.8949 21.6181 33.6983C21.403 33.5046 21.2171 33.2981 21.0605 33.0788C21.1018 32.9962 21.1432 32.9137 21.1844 32.8311Z" fill="#3B96C5"/>
<path fill-rule="evenodd" clip-rule="evenodd" d="M51.909 36.5478C52.0329 36.5478 52.1568 36.5478 52.2807 36.5478C52.3007 36.7989 52.28 37.0467 52.2187 37.2911C51.969 37.1109 51.8658 36.8631 51.909 36.5478Z" fill="#5D8AD7"/>
<path fill-rule="evenodd" clip-rule="evenodd" d="M84.7398 37.7866C84.9475 37.8712 85.0301 38.0365 84.9876 38.2822C83.9467 38.6334 83.8642 38.4681 84.7398 37.7866Z" fill="#9B36E1"/>
<path fill-rule="evenodd" clip-rule="evenodd" d="M44.3533 38.1584C44.4768 38.1546 44.5594 38.2166 44.601 38.3442C44.5542 38.5468 44.4717 38.7326 44.3533 38.9017C44.2294 38.8604 44.1467 38.7778 44.1055 38.6539C44.2455 38.5149 44.3281 38.3496 44.3533 38.1584Z" fill="#5480D1"/>
<path fill-rule="evenodd" clip-rule="evenodd" d="M38.4049 40.0167C38.4049 40.1819 38.4049 40.3471 38.4049 40.5123C37.3583 40.6954 36.3258 40.6129 35.3076 40.2645C35.3329 39.8906 35.3741 39.5189 35.4315 39.1495C36.3858 39.4699 37.377 39.5937 38.4049 39.5211C38.4049 39.6863 38.4049 39.8516 38.4049 40.0167Z" fill="#2E4FC9"/>
<path fill-rule="evenodd" clip-rule="evenodd" d="M75.8208 38.0344C76.1663 38.3412 76.5793 38.4651 77.0598 38.4061C76.9186 38.7163 76.836 39.0466 76.812 39.3972C76.5084 39.4222 76.2194 39.381 75.9447 39.2733C75.2015 38.9387 75.1601 38.5258 75.8208 38.0344Z" fill="#FB5679"/>
<path fill-rule="evenodd" clip-rule="evenodd" d="M8.91932 40.7601C8.94038 40.9239 8.89913 41.0685 8.79543 41.1937C8.96367 41.3094 9.12894 41.4127 9.29099 41.5034C8.54765 41.3795 7.8043 41.2557 7.06096 41.1318C6.52253 41.1112 5.98571 41.1319 5.45038 41.1937C5.21474 41.3549 4.96695 41.4375 4.70703 41.4415C4.91864 41.1884 5.16642 40.9819 5.45038 40.822C6.60231 40.4348 7.75871 40.4141 8.91932 40.7601Z" fill="#A168DF"/>
<path fill-rule="evenodd" clip-rule="evenodd" d="M10.5313 41.5034C10.1184 41.5034 9.70537 41.5034 9.29244 41.5034C9.13039 41.4127 8.96512 41.3094 8.79688 41.1937C8.90057 41.0684 8.94183 40.9238 8.92077 40.7601C9.88736 40.7848 10.8372 40.7229 11.7703 40.5742C11.3696 40.9147 10.9565 41.2244 10.5313 41.5034Z" fill="#A568FC"/>
<path fill-rule="evenodd" clip-rule="evenodd" d="M49.4322 40.6361C49.5557 40.6324 49.6384 40.6944 49.68 40.822C49.5819 41.0648 49.4167 41.2506 49.1844 41.3795C49.1432 41.3175 49.1018 41.2556 49.0605 41.1937C49.1615 40.9901 49.2854 40.8043 49.4322 40.6361Z" fill="#941FE0"/>
<path fill-rule="evenodd" clip-rule="evenodd" d="M80.0332 39.8928C80.3575 40.0718 80.6673 40.2782 80.9624 40.5123C81.6039 41.5481 82.2439 42.5806 82.8827 43.6095C82.8827 43.6922 82.8414 43.7334 82.7588 43.7334C82.4819 43.6432 82.2548 43.4781 82.0774 43.2379C81.3746 42.0691 80.6932 40.9541 80.0332 39.8928Z" fill="#914EF0"/>
<path fill-rule="evenodd" clip-rule="evenodd" d="M43.9791 41.8751C44.2089 41.8468 44.3121 41.9295 44.2888 42.1229C44.0926 42.2915 43.8654 42.3741 43.6074 42.3706C43.6074 42.2468 43.6074 42.1229 43.6074 41.999C43.7674 42.0283 43.8913 41.9871 43.9791 41.8751Z" fill="#FDCA39"/>
<path fill-rule="evenodd" clip-rule="evenodd" d="M54.7578 42.1229C54.7898 42.4312 54.6659 42.6378 54.3861 42.7423C54.2644 42.8217 54.1405 42.9042 54.0144 42.9901C53.8802 42.8829 53.8597 42.759 53.9525 42.6184C54.1471 42.3182 54.4154 42.1531 54.7578 42.1229Z" fill="#B0E21D"/>
<path fill-rule="evenodd" clip-rule="evenodd" d="M73.8392 42.2468C74.2013 42.3289 74.284 42.5354 74.087 42.8662C73.8743 42.7215 73.7916 42.515 73.8392 42.2468Z" fill="#F4D678"/>
<path fill-rule="evenodd" clip-rule="evenodd" d="M30.9727 43.3618C30.8098 43.4827 30.6446 43.6066 30.4771 43.7335C30.3052 43.5341 30.1813 43.307 30.1055 43.0521C30.5381 42.7553 31.013 42.5283 31.5302 42.3707C31.3889 42.7049 31.203 43.0353 30.9727 43.3618Z" fill="#B3E32C"/>
<path fill-rule="evenodd" clip-rule="evenodd" d="M87.3418 42.1229C87.2564 42.2725 87.2359 42.4377 87.2799 42.6185C87.1909 42.5007 87.0877 42.4801 86.9701 42.5565C87.0904 42.74 87.2556 42.8433 87.4657 42.8663C86.7058 43.3499 85.921 43.8042 85.1118 44.2291C85.0801 43.9471 84.9148 43.8025 84.6162 43.7954C84.9242 43.7081 84.9242 43.6049 84.6162 43.4857C85.4816 42.9705 86.3901 42.5162 87.3418 42.1229Z" fill="#B26FF4"/>
<path fill-rule="evenodd" clip-rule="evenodd" d="M57.8555 40.8839C58.4337 40.8839 59.0118 40.8839 59.59 40.8839C59.59 41.1729 59.59 41.4621 59.59 41.7511C58.9751 41.8446 58.3557 41.8858 57.7316 41.875C57.4838 41.875 57.2361 41.875 56.9883 41.875C56.9883 41.5446 56.9883 41.2143 56.9883 40.8839C57.2773 40.8839 57.5665 40.8839 57.8555 40.8839Z" fill="#52B3D2"/>
<path fill-rule="evenodd" clip-rule="evenodd" d="M67.52 41.3794C67.6678 41.4376 67.7504 41.5615 67.7678 41.7511C67.7265 41.875 67.6851 41.9988 67.6439 42.1227C67.5242 41.8878 67.4829 41.6401 67.52 41.3794Z" fill="#FC487B"/>
<path fill-rule="evenodd" clip-rule="evenodd" d="M71.3597 40.8839C71.4836 40.8839 71.6075 40.8839 71.7314 40.8839C71.6495 41.2944 71.4224 41.6248 71.05 41.875C70.9354 41.8073 70.8322 41.7248 70.7402 41.6273C70.9496 41.3771 71.156 41.1293 71.3597 40.8839Z" fill="#B5E433"/>
<path fill-rule="evenodd" clip-rule="evenodd" d="M65.1648 41.7511C65.0822 41.7511 65.0409 41.7924 65.0409 41.875C63.9358 41.5209 62.9035 41.0254 61.9437 40.3883C61.7628 40.1451 61.5563 39.918 61.3242 39.7069C62.3368 40.1565 63.3692 40.6108 64.4215 41.0697C64.7019 41.27 64.9496 41.4971 65.1648 41.7511Z" fill="#FC869E"/>
<path fill-rule="evenodd" clip-rule="evenodd" d="M66.1575 39.1494C66.4062 39.3455 66.6953 39.4694 67.0247 39.5211C66.6943 39.5211 66.364 39.5211 66.0336 39.5211C66.0042 39.3611 66.0455 39.2373 66.1575 39.1494Z" fill="#91A6E4"/>
<path fill-rule="evenodd" clip-rule="evenodd" d="M55.1313 39.1494C55.3231 39.1892 55.4057 39.3131 55.3791 39.5211C55.0386 39.5332 54.9561 39.4093 55.1313 39.1494Z" fill="#D8AFED"/>
<path fill-rule="evenodd" clip-rule="evenodd" d="M68.2634 38.9017C68.4252 39.0215 68.5078 39.1868 68.5112 39.3973C68.3992 39.4851 68.3579 39.609 68.3873 39.7689C68.2634 39.7689 68.1395 39.7689 68.0156 39.7689C67.7176 39.6118 67.3872 39.5292 67.0245 39.5211C66.695 39.4695 66.406 39.3456 66.1572 39.1495C66.1572 38.9843 66.1572 38.8191 66.1572 38.6539C66.8762 38.6179 67.5781 38.7004 68.2634 38.9017Z" fill="#234AC8"/>
<path fill-rule="evenodd" clip-rule="evenodd" d="M57.7342 37.2911C58.1726 37.4204 58.5236 37.6681 58.7873 38.0345C58.8192 38.4053 58.6333 38.5704 58.2298 38.53C58.1566 38.1442 57.9501 37.8345 57.6104 37.6009C57.7035 37.5177 57.7449 37.4145 57.7342 37.2911Z" fill="#9E34E2"/>
<path fill-rule="evenodd" clip-rule="evenodd" d="M55.6269 37.6628C55.8374 37.643 56.0439 37.6636 56.2463 37.7248C55.8879 38.1455 55.475 38.4965 55.0074 38.7778C54.8128 38.4717 54.6889 38.1414 54.6357 37.7867C54.9932 37.8246 55.3236 37.7834 55.6269 37.6628Z" fill="#FCC627"/>
<path fill-rule="evenodd" clip-rule="evenodd" d="M69.0068 36.6716C69.1826 36.5538 69.389 36.5125 69.6263 36.5477C69.5949 36.836 69.6776 37.0838 69.8741 37.2911C69.8328 37.415 69.7502 37.4976 69.6263 37.5389C69.326 37.3072 69.1195 37.0181 69.0068 36.6716Z" fill="#FDC830"/>
<path fill-rule="evenodd" clip-rule="evenodd" d="M59.7143 35.6805C59.9151 35.7161 60.039 35.84 60.086 36.0522C59.8968 36.262 59.7317 36.4892 59.5904 36.7336C59.473 36.7935 59.3491 36.814 59.2188 36.7956C59.2663 36.3748 59.4316 36.0032 59.7143 35.6805Z" fill="#F9C72A"/>
<path fill-rule="evenodd" clip-rule="evenodd" d="M84.6162 43.4857C84.9242 43.6048 84.9242 43.708 84.6162 43.7954C84.9148 43.8024 85.08 43.947 85.1117 44.229C84.6117 44.5488 84.1162 44.5488 83.625 44.229C83.433 44.1124 83.2266 44.0299 83.0056 43.9812C82.923 43.8986 82.8404 43.8161 82.7578 43.7334C82.8404 43.7334 82.8817 43.6922 82.8817 43.6095C83.4687 43.774 84.0469 43.7326 84.6162 43.4857Z" fill="#7C50BE"/>
<path fill-rule="evenodd" clip-rule="evenodd" d="M62.5635 44.3529C62.7286 44.3529 62.8939 44.3529 63.059 44.3529C63.0805 44.6848 63.2044 44.974 63.4307 45.2201C63.3895 45.344 63.3068 45.4267 63.1829 45.4679C62.8194 45.1862 62.6129 44.8145 62.5635 44.3529Z" fill="#FCC934"/>
<path fill-rule="evenodd" clip-rule="evenodd" d="M89.9441 45.8395C89.9002 46.5712 89.7763 47.2733 89.5724 47.9457C89.4126 47.8765 89.3094 47.7526 89.2627 47.574C89.1828 46.3543 89.2035 45.1361 89.3246 43.9192C89.3697 42.4374 88.7503 42.0864 87.4663 42.8662C87.2561 42.8432 87.091 42.7399 86.9707 42.5564C87.0883 42.48 87.1915 42.5006 87.2804 42.6184C87.2364 42.4376 87.257 42.2723 87.3424 42.1228C87.6479 41.9823 87.9783 41.9616 88.3335 42.0609C89.0855 42.299 89.6018 42.7739 89.8821 43.4856C89.9441 44.2692 89.9646 45.0538 89.9441 45.8395Z" fill="#8B49EE"/>
<path fill-rule="evenodd" clip-rule="evenodd" d="M36.2988 44.6007C36.4819 44.5682 36.6471 44.6095 36.7944 44.7246C36.8593 44.9665 36.9832 45.1731 37.1661 45.344C37.1402 45.4166 37.0988 45.4786 37.0422 45.5299C36.5612 45.4386 36.3134 45.1288 36.2988 44.6007Z" fill="#FDC931"/>
<path fill-rule="evenodd" clip-rule="evenodd" d="M41.502 44.8484C41.8095 44.9925 41.9747 45.2403 41.9975 45.5917C41.8736 45.5917 41.7497 45.5917 41.6258 45.5917C41.5846 45.344 41.5432 45.0962 41.502 44.8484Z" fill="#FD4D7D"/>
<path fill-rule="evenodd" clip-rule="evenodd" d="M49.5549 43.7334C49.645 44.612 49.5005 45.4793 49.1213 46.3351C48.6738 46.1138 48.2814 45.8247 47.9443 45.4679C48.4383 44.9972 48.8926 44.5016 49.3071 43.9812C49.431 43.9399 49.5137 43.8573 49.5549 43.7334Z" fill="#FB4D73"/>
<path fill-rule="evenodd" clip-rule="evenodd" d="M53.8912 45.3441C54.0564 45.3441 54.2216 45.3441 54.3868 45.3441C54.3868 45.4679 54.3868 45.5918 54.3868 45.7157C54.1266 45.7129 53.8995 45.7955 53.7054 45.9635C53.6434 45.9223 53.5815 45.8809 53.5195 45.8396C53.6464 45.6721 53.7703 45.507 53.8912 45.3441Z" fill="#9629E0"/>
<path fill-rule="evenodd" clip-rule="evenodd" d="M59.0954 45.344C59.2257 45.3255 59.3496 45.3461 59.467 45.406C59.1181 45.8746 58.7258 46.3082 58.2901 46.7068C58.0431 46.4196 57.8987 46.0893 57.8564 45.7157C58.3255 45.738 58.7384 45.6141 59.0954 45.344Z" fill="#B3E42C"/>
<path fill-rule="evenodd" clip-rule="evenodd" d="M79.4118 45.5918C79.6011 45.5939 79.663 45.6765 79.5976 45.8396C79.3525 46.2292 79.0428 46.5596 78.6684 46.8307C78.3962 46.6005 78.231 46.3114 78.1729 45.9635C78.6169 45.9046 79.0298 45.7807 79.4118 45.5918Z" fill="#B2E229"/>
<path fill-rule="evenodd" clip-rule="evenodd" d="M71.4848 45.9634C71.6925 46.0481 71.7751 46.2133 71.7326 46.459C71.4868 46.4445 71.2804 46.5271 71.1131 46.7068C71.0719 46.6448 71.0305 46.5829 70.9893 46.5209C71.0938 46.2723 71.259 46.0865 71.4848 45.9634Z" fill="#9931DF"/>
<path fill-rule="evenodd" clip-rule="evenodd" d="M65.1669 41.7512C65.5809 42.331 65.9319 42.9504 66.2199 43.6095C66.7371 45.0563 67.2533 46.5016 67.7686 47.9457C67.7273 47.9457 67.6859 47.9457 67.6447 47.9457C67.6034 47.8218 67.5208 47.7392 67.3969 47.6979C66.2974 45.8864 65.5128 43.9455 65.043 41.8751C65.043 41.7924 65.0842 41.7512 65.1669 41.7512Z" fill="#EE6077"/>
<path fill-rule="evenodd" clip-rule="evenodd" d="M25.0259 48.3173C24.9432 48.3586 24.8607 48.4 24.7781 48.4412C24.4328 48.3202 24.0611 48.2789 23.6631 48.3173C24.0106 48.2159 24.3823 48.1539 24.7781 48.1315C24.9838 47.9471 25.1077 47.7201 25.1498 47.4501C25.7388 46.6324 26.3582 45.8271 27.0081 45.0342C27.3386 44.7865 27.6688 44.5387 27.9993 44.2909C28.1552 44.1692 28.3204 44.128 28.4948 44.167C27.7241 45.1442 27.0013 46.1561 26.3267 47.2023C25.9423 47.6501 25.5087 48.0217 25.0259 48.3173Z" fill="#A0CC22"/>
<path fill-rule="evenodd" clip-rule="evenodd" d="M42.2456 49.6802C42.1153 49.8977 41.9088 49.9804 41.6262 49.928C41.5063 49.5631 41.4857 49.1914 41.5642 48.8129C42.0283 48.0969 42.6685 47.6427 43.4846 47.4502C44.1761 47.4124 44.8369 47.2472 45.4668 46.9546C45.5933 47.0168 45.614 47.0993 45.5288 47.2024C45.2702 47.3627 45.0017 47.5073 44.7235 47.636C43.8903 47.8398 43.0643 48.0669 42.2456 48.3174C42.0991 48.7727 42.0991 49.2269 42.2456 49.6802Z" fill="#FDB546"/>
<path fill-rule="evenodd" clip-rule="evenodd" d="M89.9439 45.8395C89.9439 46.5829 89.9439 47.3262 89.9439 48.0696C90.4048 48.0616 90.859 47.9997 91.3067 47.8837C91.8815 47.5615 92.5009 47.3757 93.1651 47.3262C93.2697 47.6061 93.4762 47.73 93.7846 47.6979C93.1485 48.016 92.4878 48.2638 91.8023 48.4412C90.9363 48.7324 90.193 48.5672 89.5723 47.9457C89.7762 47.2733 89.9001 46.5712 89.9439 45.8395Z" fill="#A26AE1"/>
<path fill-rule="evenodd" clip-rule="evenodd" d="M62.3163 47.8218C62.597 47.7773 62.8241 47.86 62.9977 48.0696C63.0803 48.5239 63.0803 48.9781 62.9977 49.4324C62.7702 49.693 62.5019 49.7344 62.1924 49.5563C62.3092 48.9864 62.3506 48.4082 62.3163 47.8218Z" fill="#FE5A7B"/>
<path fill-rule="evenodd" clip-rule="evenodd" d="M32.9558 48.8129C32.9145 48.689 32.8319 48.6064 32.708 48.5651C32.7534 48.4171 32.8566 48.3345 33.0177 48.3173C33.2119 48.4853 33.439 48.568 33.6991 48.5651C33.6991 48.689 33.6991 48.8129 33.6991 48.9368C33.4433 48.9347 33.1955 48.8934 32.9558 48.8129Z" fill="#9F3BE2"/>
<path fill-rule="evenodd" clip-rule="evenodd" d="M54.5121 48.5651C54.5259 48.6416 54.5671 48.7035 54.636 48.751C55.2555 48.7922 55.8749 48.8336 56.4944 48.8749C56.5941 49.0127 56.6768 49.1572 56.7422 49.3085C56.4873 49.136 56.1982 49.0534 55.8749 49.0607C55.3086 49.3105 54.8131 49.2279 54.3882 48.8129C54.3669 48.69 54.4083 48.6075 54.5121 48.5651Z" fill="#A241F0"/>
<path fill-rule="evenodd" clip-rule="evenodd" d="M93.166 47.3262C93.6954 47.2743 94.191 47.3569 94.6527 47.574C94.7999 47.681 94.9445 47.8049 95.0863 47.9456C95.1479 48.4442 95.1273 48.9397 95.0244 49.4323C94.9417 49.7214 94.8592 50.0105 94.7766 50.2996C94.6163 50.2017 94.4717 50.0778 94.343 49.9279C94.2812 49.1826 94.3018 48.4392 94.4049 47.6979C94.1984 47.6979 93.992 47.6979 93.7855 47.6979C93.4771 47.7299 93.2706 47.606 93.166 47.3262Z" fill="#8C4AEE"/>
<path fill-rule="evenodd" clip-rule="evenodd" d="M23.6628 48.3174C24.0609 48.2789 24.4325 48.3202 24.7778 48.4412C24.3521 48.6867 23.8978 48.8725 23.415 48.9988C22.4894 49.2302 21.5809 49.4573 20.6894 49.6801C20.07 49.7628 19.4505 49.8453 18.8311 49.9279C18.8311 49.8867 18.8311 49.8453 18.8311 49.804C20.3082 48.9128 21.9188 48.4172 23.6628 48.3174Z" fill="#C4F343"/>
<path fill-rule="evenodd" clip-rule="evenodd" d="M50.7939 48.8129C50.7939 48.7717 50.7939 48.7303 50.7939 48.689C50.8786 48.4814 51.0438 48.3987 51.2895 48.4412C51.6871 49.544 51.5219 49.6679 50.7939 48.8129Z" fill="#FCC622"/>
<path fill-rule="evenodd" clip-rule="evenodd" d="M67.6436 47.9457C67.6848 47.9457 67.7262 47.9457 67.7674 47.9457C68.6539 48.4095 69.5624 48.8431 70.493 49.2466C70.8438 49.453 71.1328 49.7213 71.3603 50.0519C71.3603 50.0931 71.3603 50.1345 71.3603 50.1758C70.5788 49.9841 69.8354 49.6951 69.1302 49.3085C68.5605 48.9457 68.0649 48.4914 67.6436 47.9457Z" fill="#FC839B"/>
<path fill-rule="evenodd" clip-rule="evenodd" d="M27.7512 49.1846C27.8751 49.1846 27.999 49.1846 28.1229 49.1846C28.1235 49.6843 28.1648 50.1799 28.2468 50.6713C27.9286 50.789 27.6189 50.789 27.3176 50.6713C27.1519 50.2344 27.09 49.7802 27.1317 49.3085C27.369 49.3436 27.5754 49.3024 27.7512 49.1846Z" fill="#FD4F75"/>
<path fill-rule="evenodd" clip-rule="evenodd" d="M98.1205 50.4235C97.8135 50.5948 97.4831 50.7187 97.1294 50.7952C96.6576 50.8369 96.2034 50.775 95.7666 50.6093C96.0556 50.5681 96.3448 50.5267 96.6338 50.4854C96.7027 50.438 96.744 50.376 96.7577 50.2996C97.0155 50.1605 97.2839 50.0366 97.563 49.9279C97.8753 49.9678 98.0612 50.1331 98.1205 50.4235Z" fill="#AA6BFA"/>
<path fill-rule="evenodd" clip-rule="evenodd" d="M56.7424 49.3085C56.9405 49.4694 57.0024 49.6758 56.9282 49.9279C56.6082 50.3612 56.3192 50.8155 56.061 51.2907C55.9784 51.0429 55.9784 50.7952 56.061 50.5474C56.4537 50.2156 56.6808 49.8025 56.7424 49.3085Z" fill="#9440D8"/>
<path fill-rule="evenodd" clip-rule="evenodd" d="M95.0251 49.4324C94.9684 49.7909 95.051 50.1006 95.2729 50.3616C95.7731 50.4368 96.2686 50.4161 96.7596 50.2996C96.7458 50.376 96.7046 50.438 96.6357 50.4854C96.3467 50.5267 96.0575 50.5681 95.7685 50.6093C96.2053 50.775 96.6595 50.8369 97.1313 50.7952C96.2602 51.0573 95.4755 50.8921 94.7773 50.2996C94.86 50.0106 94.9425 49.7214 95.0251 49.4324Z" fill="#AC7AE1"/>
<path fill-rule="evenodd" clip-rule="evenodd" d="M42.2454 49.6802C42.6244 50.3136 42.9754 50.9745 43.2985 51.6624C43.4743 52.2041 43.3297 52.6171 42.8649 52.9013C42.6615 51.8323 42.2484 50.8412 41.626 49.928C41.9086 49.9804 42.1151 49.8977 42.2454 49.6802Z" fill="#FCD77A"/>
<path fill-rule="evenodd" clip-rule="evenodd" d="M71.3594 50.0518C71.6731 50.2004 71.8383 50.4481 71.855 50.7952C71.692 51.2045 71.5268 51.6174 71.3594 52.0341C71.3594 52.1992 71.3594 52.3645 71.3594 52.5296C70.9868 52.3626 70.8216 52.0735 70.8639 51.6624C71.026 51.1713 71.1912 50.6757 71.3594 50.1757C71.3594 50.1345 71.3594 50.0931 71.3594 50.0518Z" fill="#EC5C73"/>
<path fill-rule="evenodd" clip-rule="evenodd" d="M22.3003 41.1318C22.3918 41.1155 22.4744 41.1362 22.548 41.1937C22.791 41.5608 23.08 41.8911 23.4153 42.1848C22.6709 42.9044 22.1341 42.7391 21.8047 41.6893C21.9928 41.5219 22.1579 41.3361 22.3003 41.1318Z" fill="#8F27C9"/>
<path fill-rule="evenodd" clip-rule="evenodd" d="M17.2195 40.3884C17.5056 40.6086 17.4851 40.8564 17.1575 41.1317C17.0718 41.0667 17.0098 40.984 16.9717 40.8839C17.1117 40.7449 17.1943 40.5797 17.2195 40.3884Z" fill="#FC497B"/>
<path fill-rule="evenodd" clip-rule="evenodd" d="M18.8291 49.8041C18.8291 49.8453 18.8291 49.8867 18.8291 49.928C18.632 50.017 18.4461 50.1409 18.2716 50.2996C17.6934 51.1256 17.1153 51.9515 16.5371 52.7775C15.9852 53.4337 15.3451 53.9705 14.6168 54.388C14.4929 54.3054 14.369 54.2229 14.2451 54.1402C14.4331 54.1389 14.5776 54.0564 14.6787 53.8925C15.5348 52.2095 16.753 50.888 18.3335 49.928C18.4987 49.8867 18.6639 49.8453 18.8291 49.8041Z" fill="#9FCB1F"/>
<path fill-rule="evenodd" clip-rule="evenodd" d="M49.307 51.7862C49.2778 51.8602 49.2159 51.9014 49.1211 51.9101C48.9597 51.8509 48.8152 51.7682 48.6875 51.6623C48.9142 51.3489 49.1206 51.3901 49.307 51.7862Z" fill="#FC4C7D"/>
<path fill-rule="evenodd" clip-rule="evenodd" d="M73.3434 51.4147C73.426 51.5798 73.5499 51.7037 73.715 51.7863C73.6663 52.0074 73.5838 52.2138 73.4672 52.4058C73.2031 52.3991 73.038 52.2752 72.9717 52.0341C73.0027 51.7648 73.1265 51.5583 73.3434 51.4147Z" fill="#D8334C"/>
<path fill-rule="evenodd" clip-rule="evenodd" d="M58.1046 52.2819C57.3865 52.5583 56.8084 52.3931 56.3701 51.7863C56.3776 51.719 56.4188 51.6778 56.494 51.6624C56.9752 51.8286 57.4708 51.9319 57.9807 51.9721C58.0739 52.0553 58.1152 52.1585 58.1046 52.2819Z" fill="#9D37EE"/>
<path fill-rule="evenodd" clip-rule="evenodd" d="M73.3428 51.4146C73.126 51.5582 73.0021 51.7647 72.9711 52.0341C72.8885 52.1167 72.8059 52.1992 72.7233 52.2819C72.3265 52.4284 71.9341 52.5936 71.5463 52.7774C71.4187 52.7358 71.3568 52.6532 71.3605 52.5296C71.3605 52.3645 71.3605 52.1992 71.3605 52.0341C71.8121 51.8083 72.2663 51.5811 72.7233 51.3527C72.9571 51.256 73.1636 51.2767 73.3428 51.4146Z" fill="#FC8199"/>
<path fill-rule="evenodd" clip-rule="evenodd" d="M40.2632 52.4057C40.441 52.5897 40.4203 52.7549 40.2013 52.9013C40.0333 52.7923 39.8475 52.7509 39.6438 52.7774C39.2721 52.6948 38.9004 52.6123 38.5288 52.5296C38.3636 52.447 38.1983 52.3645 38.0332 52.2818C38.1338 52.0969 38.2989 52.0142 38.5288 52.0341C39.1161 52.1267 39.6942 52.2506 40.2632 52.4057Z" fill="#FD9C31"/>
<path fill-rule="evenodd" clip-rule="evenodd" d="M40.264 52.4058C41.095 52.7476 41.9623 52.9128 42.8657 52.9013C42.8096 53.02 42.7271 53.1233 42.6179 53.2111C41.5756 53.3192 40.5845 53.1748 39.6445 52.7774C39.8482 52.7509 40.034 52.7923 40.202 52.9013C40.4211 52.7549 40.4418 52.5897 40.264 52.4058Z" fill="#FAB53F"/>
<path fill-rule="evenodd" clip-rule="evenodd" d="M74.7067 53.0252C74.4739 53.198 74.35 53.4458 74.3351 53.7686C73.7602 54.056 73.182 54.345 72.6006 54.6358C72.7533 54.2808 72.7533 53.9918 72.6006 53.7686C73.1308 53.5034 73.6678 53.235 74.2112 52.9633C74.4052 52.8685 74.5703 52.8892 74.7067 53.0252Z" fill="#FC839B"/>
<path fill-rule="evenodd" clip-rule="evenodd" d="M11.1482 53.3969C11.1687 54.0589 11.148 54.7196 11.0862 55.3791C10.9974 55.3117 10.9355 55.2291 10.9004 55.1313C10.983 54.5531 11.0655 53.975 11.1482 53.3969Z" fill="#D0E394"/>
<path fill-rule="evenodd" clip-rule="evenodd" d="M72.9695 52.0341C73.0358 52.2751 73.2009 52.399 73.4651 52.4057C73.1437 52.8426 72.8547 53.2968 72.5978 53.7685C72.7506 53.9918 72.7506 54.2808 72.5978 54.6358C72.1735 54.6039 71.9257 54.3768 71.8545 53.9544C72.031 53.3328 72.3201 52.7753 72.7217 52.2818C72.8044 52.1992 72.8869 52.1167 72.9695 52.0341Z" fill="#EF5E75"/>
<path fill-rule="evenodd" clip-rule="evenodd" d="M38.0342 52.2818C38.1994 52.3644 38.3647 52.4469 38.5298 52.5296C38.3647 52.5296 38.1994 52.5296 38.0342 52.5296C38.1601 53.3416 38.3254 54.1468 38.5298 54.9454C38.5786 55.3379 38.4547 55.6477 38.1581 55.8746C38.0755 55.792 37.993 55.7095 37.9104 55.6268C37.9905 55.531 38.0318 55.4071 38.0342 55.2552C37.8324 54.5621 37.6672 53.8602 37.5387 53.149C37.4964 52.738 37.6616 52.4488 38.0342 52.2818Z" fill="#FDD67B"/>
<path fill-rule="evenodd" clip-rule="evenodd" d="M65.1648 54.388C65.0436 54.3495 64.961 54.2669 64.917 54.1402C65.0439 53.9727 65.1677 53.8076 65.2887 53.6447C65.4358 53.498 65.5804 53.498 65.7223 53.6447C65.9248 54.0327 66.1519 54.4044 66.4037 54.7597C66.383 54.801 66.3624 54.8423 66.3417 54.8836C65.9364 54.7458 65.544 54.5807 65.1648 54.388Z" fill="#FCC728"/>
<path fill-rule="evenodd" clip-rule="evenodd" d="M74.7058 53.0252C74.8526 53.1933 74.9765 53.3792 75.0775 53.5827C74.8457 54.22 74.5567 54.8188 74.2103 55.3791C73.9039 55.3499 73.6974 55.1847 73.5908 54.8836C73.8706 54.5296 74.1183 54.1579 74.3342 53.7686C74.3492 53.4458 74.473 53.198 74.7058 53.0252Z" fill="#EA576E"/>
<path fill-rule="evenodd" clip-rule="evenodd" d="M14.2462 54.1403C14.3701 54.2229 14.4939 54.3054 14.6178 54.3881C14.4479 54.5135 14.2827 54.6374 14.1223 54.7598C13.8139 54.7848 13.5248 54.7228 13.255 54.5739C12.8653 54.2875 12.4936 53.9778 12.14 53.6447C12.0465 54.3488 11.9638 55.0509 11.8922 55.7509C11.6733 56.047 11.3843 56.2535 11.025 56.3703C10.6357 56.3333 10.3673 56.1268 10.2197 55.7509C10.1808 56.6501 9.70594 57.0423 8.79497 56.9278C8.48202 56.5529 8.19286 56.1606 7.92773 55.7509C8.17552 55.5857 8.4233 55.4205 8.67108 55.2553C8.77428 55.3792 8.87761 55.5031 8.98081 55.627C9.02281 55.3378 9.00212 55.0487 8.91886 54.7598C9.23057 54.0252 9.72613 53.8601 10.4056 54.2642C10.602 54.533 10.7673 54.8222 10.9011 55.1314C10.9362 55.2292 10.9981 55.3118 11.087 55.3792C11.1488 54.7197 11.1695 54.059 11.1489 53.397C11.1503 53.209 11.2328 53.0644 11.3967 52.9633C11.6769 52.8336 11.9454 52.6892 12.202 52.5297C12.9021 53.0442 13.5835 53.5811 14.2462 54.1403Z" fill="#ADDE28"/>
<path fill-rule="evenodd" clip-rule="evenodd" d="M25.0254 52.4058C25.2319 52.4058 25.4383 52.4058 25.6448 52.4058C26.0424 53.5085 25.8773 53.6324 25.1493 52.7774C25.1422 52.64 25.101 52.5161 25.0254 52.4058Z" fill="#FDC625"/>
<path fill-rule="evenodd" clip-rule="evenodd" d="M37.9108 55.6269C37.9935 55.7095 38.076 55.7921 38.1586 55.8747C38.0801 56.054 37.9355 56.1365 37.725 56.1225C37.1885 55.9918 36.6723 55.8265 36.1764 55.6269C36.0885 55.5149 35.9646 55.4737 35.8047 55.503C35.8975 55.2867 36.0628 55.1628 36.3003 55.1313C36.8322 55.3159 37.3691 55.4811 37.9108 55.6269Z" fill="#FCAE3B"/>
<path fill-rule="evenodd" clip-rule="evenodd" d="M35.8032 55.5029C35.9631 55.4736 36.087 55.5148 36.1749 55.6268C36.0111 55.6058 35.8665 55.647 35.7412 55.7507C35.6586 56.1224 35.6586 56.4941 35.7412 56.8657C35.9678 57.1424 36.0298 57.4315 35.9271 57.733C35.7939 57.8645 35.67 57.8645 35.5554 57.733C35.142 57.077 35.1007 56.4163 35.4315 55.7507C35.5554 55.6681 35.6793 55.5856 35.8032 55.5029Z" fill="#FED881"/>
</svg>
