<svg width="121" height="120" viewBox="0 0 121 120" fill="none" xmlns="http://www.w3.org/2000/svg">
<path fill-rule="evenodd" clip-rule="evenodd" d="M60.5 13.75C34.9568 13.75 14.25 34.4568 14.25 60C14.25 67.4053 15.9876 74.394 19.074 80.5905C20.3127 83.0775 20.7897 86.0513 20.0082 88.9723L17.0301 100.103C16.4832 102.147 18.3533 104.017 20.3975 103.47L31.5276 100.492C34.4486 99.7103 37.4225 100.187 39.9095 101.426C46.106 104.512 53.0947 106.25 60.5 106.25C86.0432 106.25 106.75 85.5432 106.75 60C106.75 34.4568 86.0432 13.75 60.5 13.75ZM6.75 60C6.75 30.3147 30.8147 6.25 60.5 6.25C90.1853 6.25 114.25 30.3147 114.25 60C114.25 89.6853 90.1853 113.75 60.5 113.75C51.9085 113.75 43.7776 111.731 36.5657 108.139C35.4895 107.603 34.3907 107.49 33.4662 107.737L22.336 110.715C14.7168 112.754 7.74637 105.783 9.78498 98.164L12.763 87.0338C13.0104 86.1093 12.8967 85.0105 12.3606 83.9343C8.76853 76.7224 6.75 68.5915 6.75 60ZM36.75 52.5C36.75 50.4289 38.4289 48.75 40.5 48.75H80.5C82.5711 48.75 84.25 50.4289 84.25 52.5C84.25 54.5711 82.5711 56.25 80.5 56.25H40.5C38.4289 56.25 36.75 54.5711 36.75 52.5ZM36.75 70C36.75 67.9289 38.4289 66.25 40.5 66.25H68C70.0711 66.25 71.75 67.9289 71.75 70C71.75 72.0711 70.0711 73.75 68 73.75H40.5C38.4289 73.75 36.75 72.0711 36.75 70Z" fill="#5C6C7A"/>
</svg>
