<svg width="188" height="183" viewBox="0 0 188 183" fill="none" xmlns="http://www.w3.org/2000/svg">
<g opacity="0.1">
<path fill-rule="evenodd" clip-rule="evenodd" d="M61.9575 39.94C47.6831 48.9999 38.8831 61.8049 35.5565 78.3554C39.1655 78.5888 42.4245 77.6644 45.3315 75.5829C46.6059 70.907 48.6867 66.6572 51.5759 62.8326C57.2766 55.7378 63.5526 49.4047 70.4047 43.8327C73.122 43.8378 75.9124 43.493 78.775 42.7988C80.2524 42.5452 81.5192 42.8904 82.5752 43.8343C64.5299 51.3528 52.8689 64.3508 47.5923 82.8281C40.0694 86.0449 32.3823 89.3416 24.5305 92.7196C22.5658 92.7437 20.7012 92.3025 18.9359 91.394C12.7882 83.0744 13.6107 75.7194 21.4043 69.3284C19.6309 63.4794 20.9144 58.3043 25.2531 53.8041C27.1448 52.1636 29.3477 51.3498 31.8628 51.3624C32.6831 49.49 33.7129 47.7374 34.9512 46.105C39.239 43.4284 43.8091 41.359 48.6613 39.8969C53.1937 39.6201 57.6258 39.6344 61.9575 39.94Z" fill="#4B108D"/>
</g>
<g opacity="0.6">
<path fill-rule="evenodd" clip-rule="evenodd" d="M61.9655 39.9342C64.6388 38.3738 67.5218 37.4359 70.6143 37.1204C70.5463 39.3854 70.4789 41.6207 70.4121 43.8265C63.5605 49.3979 57.2849 55.7304 51.5845 62.8245C48.6955 66.6487 46.6148 70.8981 45.3405 75.5735C42.4336 77.6548 39.1749 78.5792 35.5661 78.3457C38.8925 61.7969 47.692 48.9932 61.9655 39.9342Z" fill="#4B108D"/>
</g>
<g opacity="0.6">
<path fill-rule="evenodd" clip-rule="evenodd" d="M82.489 43.6859C115.761 36.8586 138.961 49.1164 152.087 80.4577C156.5 98.6692 152.855 115.003 141.152 129.459C141.681 132.961 143.394 135.856 146.294 138.144C143.805 141.066 140.879 143.492 137.518 145.421C135.995 143.174 134.411 140.955 132.765 138.762C110.342 151.721 88.1421 151.125 66.1645 136.976C63.8755 139.568 61.8409 142.325 60.0604 145.245C56.9542 144.006 54.2347 142.117 51.8995 139.579C53.8555 135.488 56.0753 131.546 58.5613 127.753C47.6765 114.357 44.0015 99.3181 47.537 82.6356C52.8089 64.1792 64.4596 51.196 82.489 43.6859Z" fill="#4B108D"/>
</g>
<path fill-rule="evenodd" clip-rule="evenodd" d="M98.1646 51.0314C97.5544 51.3081 96.945 51.5843 96.3348 51.861C85.7786 53.7398 76.3243 58.0263 67.9738 64.7196C75.8176 55.4817 85.8812 50.919 98.1646 51.0314Z" fill="#4B108D" fill-opacity="0.1"/>
<path fill-rule="evenodd" clip-rule="evenodd" d="M96.2295 51.7999C96.2604 55.7157 96.5939 59.6025 97.2287 63.4597C96.5525 75.5356 96.3346 87.7464 96.5742 100.093C108.002 100.062 119.41 100.037 130.799 100.014C135.367 99.587 139.865 99.753 144.293 100.512C145.005 101.871 144.819 103.057 143.735 104.068C142.152 107.312 140.774 110.688 139.602 114.197C136.73 117.07 134.016 119.95 131.461 122.838C111.407 135.138 92.2321 133.909 73.9351 119.15C64.0039 107.324 59.0077 93.8041 58.9479 78.5875C60.2987 72.8987 63.2914 68.2406 67.9249 64.6136C76.2587 57.9437 85.6942 53.6722 96.2295 51.7999Z" fill="#B47FF0"/>
<path fill-rule="evenodd" clip-rule="evenodd" d="M96.2955 51.7786C96.9042 51.503 97.512 51.2278 98.1208 50.9522C119.82 50.9575 134.667 61.1129 142.662 81.4196C144.712 87.743 145.271 94.0945 144.338 100.474C139.912 99.7147 135.416 99.5488 130.85 99.976C131.429 98.4064 130.935 97.3452 129.371 96.7932C120.224 97.2006 111.069 97.3092 101.905 97.1203C101.191 96.8258 100.605 96.3569 100.147 95.7147C100.012 85.1165 99.8811 74.535 99.7536 63.9719C98.9541 63.5447 98.134 63.3656 97.2943 63.4343C96.6598 59.5784 96.3264 55.6931 96.2955 51.7786Z" fill="#F6F7F8"/>
<g opacity="0.6">
<path opacity="0.986" fill-rule="evenodd" clip-rule="evenodd" d="M141.278 41.3112C149.051 46.5697 155.142 53.3452 159.55 61.6359C161.536 65.5169 163.214 69.5236 164.583 73.6565C164.831 74.7807 164.797 75.896 164.483 77.0022C162.014 77.0852 159.627 76.6997 157.323 75.8447C151.007 62.6947 141.73 52.2288 129.492 44.4489C128.614 41.6181 128.4 38.7815 128.849 35.9399C133.021 37.7391 137.164 39.5302 141.278 41.3112Z" fill="#4B108D"/>
</g>
<path fill-rule="evenodd" clip-rule="evenodd" d="M97.2622 63.456C98.1018 63.3873 98.9219 63.5664 99.7214 63.9936C99.8489 74.5563 99.9794 85.1375 100.114 95.7353C100.573 96.3774 101.159 96.8463 101.872 97.1408C111.036 97.3297 120.191 97.2211 129.337 96.8138C130.902 97.3657 131.395 98.4269 130.817 99.9964C119.433 100.019 108.031 100.044 96.608 100.075C96.3685 87.7332 96.5862 75.5271 97.2622 63.456Z" fill="#6D17CE"/>
<path fill-rule="evenodd" clip-rule="evenodd" d="M25.7685 100.342C27.6676 99.2442 29.54 99.3133 31.3881 100.549C30.5663 102.89 30.8735 105.136 32.3101 107.286C31.0936 107.837 29.8762 108.388 28.6597 108.939C27.5703 106.11 26.6063 103.245 25.7685 100.342Z" fill="#212A47"/>
<g opacity="0.5">
<path fill-rule="evenodd" clip-rule="evenodd" d="M58.905 78.607C58.9648 93.8209 63.96 107.339 73.8892 119.163C92.1825 133.919 111.354 135.148 131.404 122.849C131.904 123.72 131.951 124.615 131.548 125.536C129.889 126.699 128.719 128.146 128.041 129.877C110.885 142.734 93.0036 143.489 74.3981 132.143C61.9159 121.825 55.4115 108.624 54.8832 92.5377C55.0873 87.5474 56.428 82.9034 58.905 78.607Z" fill="#2B0952"/>
</g>
<path fill-rule="evenodd" clip-rule="evenodd" d="M143.717 103.945C142.25 114.698 137.034 123.304 128.069 129.762C128.748 128.03 129.918 126.582 131.579 125.418C131.982 124.496 131.935 123.6 131.435 122.729C133.991 119.839 136.707 116.957 139.581 114.082C140.754 110.57 142.133 107.191 143.717 103.945Z" fill="#4B108D" fill-opacity="0.1"/>
<path fill-rule="evenodd" clip-rule="evenodd" d="M55.1436 180.415C97.0569 162.872 97.3391 163.481 55.9911 182.241C55.7084 181.632 55.4262 181.024 55.1436 180.415Z" fill="#ACB7B7"/>
</svg>
