<svg width="25" height="12" viewBox="0 0 25 12" fill="none" xmlns="http://www.w3.org/2000/svg">
<path d="M6.52637 9.63965V11H1.24219V9.63965H6.52637ZM1.72754 1.04688V11H0.0117188V1.04688H1.72754ZM5.83594 5.20312V6.54297H1.24219V5.20312H5.83594ZM6.49219 1.04688V2.41406H1.24219V1.04688H6.49219ZM15.5703 5.91406V9.71484C15.429 9.90169 15.208 10.1068 14.9072 10.3301C14.611 10.5488 14.2168 10.738 13.7246 10.8975C13.2324 11.057 12.6195 11.1367 11.8857 11.1367C11.2614 11.1367 10.6895 11.0319 10.1699 10.8223C9.65039 10.6081 9.2015 10.2959 8.82324 9.88574C8.44954 9.47559 8.16016 8.97656 7.95508 8.38867C7.75 7.79622 7.64746 7.12174 7.64746 6.36523V5.6748C7.64746 4.92285 7.74089 4.25293 7.92773 3.66504C8.11914 3.07259 8.39258 2.57129 8.74805 2.16113C9.10352 1.75098 9.5319 1.44108 10.0332 1.23145C10.5391 1.01725 11.111 0.910156 11.749 0.910156C12.5648 0.910156 13.2393 1.04688 13.7725 1.32031C14.3102 1.58919 14.7249 1.96289 15.0166 2.44141C15.3083 2.91992 15.4928 3.4668 15.5703 4.08203H13.8887C13.834 3.73568 13.7269 3.42578 13.5674 3.15234C13.4124 2.87891 13.1891 2.66471 12.8975 2.50977C12.6104 2.35026 12.2367 2.27051 11.7764 2.27051C11.3799 2.27051 11.0312 2.3457 10.7305 2.49609C10.4297 2.64648 10.179 2.86751 9.97852 3.15918C9.78255 3.45085 9.63444 3.80632 9.53418 4.22559C9.43392 4.64486 9.38379 5.12337 9.38379 5.66113V6.36523C9.38379 6.91211 9.44076 7.39746 9.55469 7.82129C9.67318 8.24512 9.8418 8.60286 10.0605 8.89453C10.2839 9.1862 10.555 9.40723 10.874 9.55762C11.193 9.70345 11.5531 9.77637 11.9541 9.77637C12.346 9.77637 12.6673 9.74447 12.918 9.68066C13.1686 9.6123 13.3669 9.53255 13.5127 9.44141C13.6631 9.3457 13.7793 9.25456 13.8613 9.16797V7.19238H11.79V5.91406H15.5703ZM21.251 7.28809H18.6602V5.92773H21.251C21.7021 5.92773 22.0667 5.85482 22.3447 5.70898C22.6227 5.56315 22.8255 5.36263 22.9531 5.10742C23.0853 4.84766 23.1514 4.55143 23.1514 4.21875C23.1514 3.9043 23.0853 3.61035 22.9531 3.33691C22.8255 3.05892 22.6227 2.83561 22.3447 2.66699C22.0667 2.49837 21.7021 2.41406 21.251 2.41406H19.1865V11H17.4707V1.04688H21.251C22.0212 1.04688 22.6751 1.18359 23.2129 1.45703C23.7552 1.72591 24.1676 2.09961 24.4502 2.57812C24.7327 3.05208 24.874 3.5944 24.874 4.20508C24.874 4.84766 24.7327 5.39909 24.4502 5.85938C24.1676 6.31966 23.7552 6.67285 23.2129 6.91895C22.6751 7.16504 22.0212 7.28809 21.251 7.28809Z" fill="#5C6C7A"/>
</svg>
