<svg width="100" height="67" viewBox="0 0 100 67" fill="none" xmlns="http://www.w3.org/2000/svg">
<path d="M42.09 31.2373C43.7401 32.5529 43.646 35.0979 41.8929 36.273C40.3296 37.3207 37.983 38.204 34.5717 38.0516C19.9995 37.4005 15.1655 25.3797 15.5803 18.9057C16.6236 2.62436 30.4385 -0.115799 35.0801 0.110628C37.1 0.209178 48.0764 0.747584 52.3496 12.5803C54.0479 17.2832 54.3993 22.7865 56.0202 26.2539C58.3993 31.3432 62.2102 33.4413 66.3286 33.639C69.7958 33.8054 77.339 32.0512 78.8908 23.3368C78.8908 23.3368 79.1402 20.9326 78.9988 13.1167C78.9185 8.67764 79.1402 2.57696 79.1402 2.57696C79.1402 2.57696 78.9462 -0.000124411 81.8281 -0.000124411C84.4052 -0.000124411 84.1692 2.73276 84.1692 2.73276L84.1031 18.7442C84.1031 18.7442 86.2434 36.8884 67.7696 38.7697C62.452 39.3113 56.042 36.9225 52.2885 30.2419C50.7197 27.4497 49.8766 24.45 49.0371 19.3848C47.0789 7.56961 39.3198 4.87401 35.1448 4.81562C32.7418 4.78197 19.7745 5.98178 20.3551 20.536C20.4179 22.11 21.5111 29.3187 30.046 32.6789C30.046 32.6789 35.9878 34.7368 42.09 31.2373" fill="#6F01E4"/>
<path d="M42.0899 31.2377C42.0899 31.2377 43.9325 30.0939 44.8483 31.9396C46.1778 34.6191 40.4479 37.0693 40.4479 37.0693" fill="#6F01E4"/>
<path d="M23.3305 63.7576C23.9159 64.2243 23.8826 65.1272 23.2606 65.5441C22.7061 65.9158 21.8735 66.2291 20.6634 66.175C15.4937 65.9441 13.7788 61.6795 13.926 59.3828C14.2961 53.6069 19.1971 52.6347 20.8437 52.7151C21.5603 52.75 25.4543 52.941 26.9703 57.1388C27.5728 58.8072 27.6974 60.7596 28.2725 61.9897C29.1165 63.7952 30.4684 64.5395 31.9295 64.6096C33.1595 64.6687 35.8355 64.0463 36.386 60.9548C36.386 60.9548 36.4745 60.1019 36.4244 57.3291C36.3959 55.7543 36.4745 53.59 36.4745 53.59C36.4745 53.59 36.4057 52.6758 37.4281 52.6758C38.3423 52.6758 38.2586 53.6453 38.2586 53.6453L38.2352 59.3255C38.2352 59.3255 38.9944 65.7624 32.4406 66.4298C30.5542 66.6219 28.2802 65.7745 26.9486 63.4044C26.392 62.4139 26.0929 61.3497 25.7951 59.5528C25.1004 55.3612 22.3478 54.4049 20.8667 54.3842C20.0142 54.3723 15.4139 54.7979 15.6199 59.9612C15.6422 60.5196 16.03 63.0769 19.0578 64.269C19.0578 64.269 21.1658 64.9991 23.3305 63.7576V63.7576Z" fill="#6F01E4"/>
<path d="M23.3304 63.7593C23.3304 63.7593 23.9841 63.3535 24.309 64.0083C24.7807 64.9589 22.7479 65.8281 22.7479 65.8281" fill="#6F01E4"/>
<path d="M3.85902 56.9871C3.22657 56.748 2.66202 56.4455 2.16544 56.0798C1.66849 55.7143 1.26651 55.2765 0.959534 54.7664C0.652408 54.2565 0.498826 53.654 0.498826 52.9587C0.498826 52.2546 0.652408 51.6205 0.959534 51.0562C1.26651 50.4922 1.67088 50.0136 2.17219 49.6209C2.67343 49.2283 3.24014 48.9259 3.87255 48.7137C4.50466 48.5017 5.14609 48.3955 5.79648 48.3955C6.32016 48.3955 6.83064 48.4497 7.32748 48.558C7.82417 48.6663 8.2895 48.8267 8.72299 49.0387C9.15655 49.2509 9.54951 49.5126 9.90179 49.824C10.2541 50.1355 10.5474 50.499 10.7824 50.9141C10.8818 51.0765 10.9043 51.2414 10.8502 51.4083C10.796 51.5754 10.7192 51.7085 10.6198 51.8077C10.4932 51.9252 10.3286 51.9952 10.1254 52.0176C9.92211 52.0403 9.72565 51.9793 9.53594 51.8348C9.01203 51.194 8.45211 50.7448 7.8559 50.4876C7.25973 50.2303 6.58224 50.1016 5.82358 50.1016C5.39893 50.1016 4.97447 50.1626 4.54993 50.2844C4.12527 50.4063 3.73921 50.5847 3.39156 50.8193C3.04379 51.0542 2.75922 51.3497 2.53793 51.7062C2.31649 52.063 2.20609 52.4759 2.20609 52.9452C2.20609 53.4418 2.33681 53.8547 2.59889 54.1842C2.86087 54.5138 3.19271 54.7914 3.59481 55.0169C3.99652 55.2426 4.43691 55.4254 4.91578 55.5653C5.39442 55.7054 5.85069 55.8294 6.28429 55.9376C6.95261 56.1455 7.60527 56.3801 8.24208 56.6418C8.87881 56.9037 9.44325 57.224 9.93565 57.6032C10.4279 57.9824 10.8231 58.4338 11.1212 58.9573C11.4192 59.4809 11.5683 60.1083 11.5683 60.8394C11.5683 61.6248 11.4124 62.3356 11.1008 62.9721C10.7892 63.6085 10.3692 64.1548 9.84083 64.6105C9.31237 65.0665 8.69801 65.4185 7.99819 65.6667C7.29799 65.9149 6.56408 66.0391 5.79648 66.0391C5.15504 66.0391 4.53639 65.9532 3.9403 65.7818C3.34413 65.6105 2.79535 65.3779 2.29404 65.0845C1.7928 64.7912 1.35458 64.4436 0.979855 64.0418C0.60498 63.6402 0.318061 63.2091 0.119553 62.7487C-0.015945 62.4598 -0.0362657 62.2185 0.0585905 62.0243C0.153295 61.8302 0.290954 61.6836 0.471719 61.5842C0.679477 61.467 0.875976 61.442 1.06114 61.5097C1.24619 61.5774 1.43814 61.7377 1.63699 61.9904C1.8085 62.3516 2.04109 62.6765 2.33468 62.9653C2.62812 63.2543 2.96012 63.5002 3.3306 63.7033C3.70081 63.9064 4.1029 64.0621 4.53639 64.1705C4.96996 64.2788 5.41709 64.3329 5.8778 64.3329C6.35644 64.3329 6.83292 64.2608 7.30716 64.1163C7.78141 63.972 8.20822 63.7553 8.58749 63.4663C8.96688 63.1775 9.27389 62.8187 9.50887 62.3898C9.74358 61.9612 9.86115 61.467 9.86115 60.9071C9.86115 60.3926 9.74358 59.9616 9.50887 59.614C9.27389 59.2666 8.96222 58.9687 8.57392 58.7203C8.18551 58.4721 7.74751 58.2599 7.25973 58.0839C6.77196 57.9079 6.27952 57.7386 5.78294 57.5761C5.13256 57.4227 4.49109 57.2264 3.85902 56.9871Z" fill="#6F01E4"/>
<path d="M43.2583 55.41C43.7911 54.7241 44.421 54.171 45.1484 53.7513C45.8752 53.3315 46.6544 53.1216 47.4855 53.1216C48.2713 53.1216 48.978 53.2684 49.6059 53.5617C50.2336 53.8551 50.7711 54.2725 51.2182 54.8142C51.6653 55.3558 52.0085 56.0104 52.2479 56.7776C52.4871 57.545 52.6069 58.4025 52.6069 59.3503V59.3638V65.0239C52.6069 65.2677 52.5256 65.4707 52.363 65.6332C52.2004 65.7957 51.9972 65.877 51.7533 65.877C51.5183 65.877 51.3198 65.7957 51.1572 65.6332C50.9946 65.4707 50.9134 65.2677 50.9134 65.0239V59.4045V59.3638C50.9134 57.9015 50.597 56.7776 49.9649 55.9922C49.3326 55.2068 48.4474 54.8142 47.3094 54.8142C46.7583 54.8142 46.2411 54.9225 45.7579 55.1391C45.2747 55.3558 44.8503 55.656 44.4844 56.0396C44.1185 56.4234 43.8272 56.877 43.6105 57.4005C43.3937 57.9241 43.2762 58.4883 43.2583 59.093V64.9968C43.2583 65.2406 43.1746 65.446 43.0076 65.6129C42.8404 65.78 42.6394 65.8634 42.4047 65.8634C42.1697 65.8634 41.9688 65.78 41.8017 65.6129C41.6345 65.446 41.551 65.2406 41.551 64.9968V49.3979C41.551 49.1542 41.6345 48.949 41.8017 48.7818C41.9688 48.6149 42.1697 48.5313 42.4047 48.5313C42.6485 48.5313 42.8518 48.6149 43.0144 48.7818C43.177 48.949 43.2583 49.1542 43.2583 49.3979V55.41Z" fill="#6F01E4"/>
<path d="M56.5562 61.4147C56.8045 61.9881 57.1408 62.4892 57.5655 62.9178C57.9899 63.3466 58.4913 63.6875 59.0695 63.9401C59.6474 64.1929 60.2707 64.3192 60.9392 64.3192C61.6076 64.3192 62.2308 64.1929 62.809 63.9401C63.3869 63.6875 63.8906 63.3466 64.3196 62.9178C64.7486 62.4892 65.0852 61.9881 65.3291 61.4147C65.5729 60.8416 65.6948 60.2299 65.6948 59.58C65.6948 58.9211 65.5729 58.3027 65.3291 57.7249C65.0852 57.1473 64.7486 56.644 64.3196 56.2151C63.8906 55.7865 63.3869 55.4479 62.809 55.1996C62.2308 54.9514 61.6076 54.8272 60.9392 54.8272C60.2797 54.8272 59.661 54.9514 59.0831 55.1996C58.5048 55.4479 58.0012 55.7865 57.5723 56.2151C57.1432 56.644 56.8045 57.1473 56.5562 57.7249C56.3077 58.3027 56.1836 58.9211 56.1836 59.58C56.1836 60.2299 56.3077 60.8416 56.5562 61.4147ZM54.9844 57.0546C55.3232 56.2648 55.786 55.5787 56.3733 54.9964C56.9603 54.4142 57.6468 53.9538 58.4327 53.6153C59.2185 53.2768 60.0539 53.1075 60.9392 53.1075C61.8334 53.1075 62.6711 53.2768 63.4525 53.6153C64.2337 53.9538 64.9158 54.4142 65.4983 54.9964C66.081 55.5787 66.5417 56.2648 66.8804 57.0546C67.2192 57.8447 67.3885 58.6863 67.3885 59.58C67.3885 60.4648 67.2192 61.2996 66.8804 62.085C66.5417 62.8704 66.081 63.5542 65.4983 64.1365C64.9158 64.7187 64.2337 65.1791 63.4525 65.5176C62.6711 65.8561 61.8334 66.0254 60.9392 66.0254C60.0539 66.0254 59.2185 65.8561 58.4327 65.5176C57.6468 65.1791 56.9603 64.7187 56.3733 64.1365C55.786 63.5542 55.3232 62.8704 54.9844 62.085C54.6458 61.2996 54.4764 60.4648 54.4764 59.58C54.4764 58.6863 54.6458 57.8447 54.9844 57.0546" fill="#6F01E4"/>
<path d="M70.6468 61.4147C70.895 61.9881 71.2314 62.4892 71.6561 62.9178C72.0805 63.3466 72.5819 63.6875 73.1601 63.9401C73.738 64.1929 74.3613 64.3192 75.0298 64.3192C75.6982 64.3192 76.3213 64.1929 76.8996 63.9401C77.4774 63.6875 77.9812 63.3466 78.4102 62.9178C78.8392 62.4892 79.1758 61.9881 79.4197 61.4147C79.6634 60.8416 79.7854 60.2299 79.7854 59.58C79.7854 58.9211 79.6634 58.3027 79.4197 57.7249C79.1758 57.1473 78.8392 56.644 78.4102 56.2151C77.9812 55.7865 77.4774 55.4479 76.8996 55.1996C76.3213 54.9514 75.6982 54.8272 75.0298 54.8272C74.3703 54.8272 73.7515 54.9514 73.1736 55.1996C72.5954 55.4479 72.0918 55.7865 71.6629 56.2151C71.2338 56.644 70.895 57.1473 70.6468 57.7249C70.3982 58.3027 70.2742 58.9211 70.2742 59.58C70.2742 60.2299 70.3982 60.8416 70.6468 61.4147ZM69.075 57.0546C69.4137 56.2648 69.8766 55.5787 70.4638 54.9964C71.0509 54.4142 71.7374 53.9538 72.5233 53.6153C73.309 53.2768 74.1445 53.1075 75.0298 53.1075C75.924 53.1075 76.7617 53.2768 77.5431 53.6153C78.3243 53.9538 79.0064 54.4142 79.5889 54.9964C80.1715 55.5787 80.6323 56.2648 80.971 57.0546C81.3097 57.8447 81.4791 58.6863 81.4791 59.58C81.4791 60.4648 81.3097 61.2996 80.971 62.085C80.6323 62.8704 80.1715 63.5542 79.5889 64.1365C79.0064 64.7187 78.3243 65.1791 77.5431 65.5176C76.7617 65.8561 75.924 66.0254 75.0298 66.0254C74.1445 66.0254 73.309 65.8561 72.5233 65.5176C71.7374 65.1791 71.0509 64.7187 70.4638 64.1365C69.8766 63.5542 69.4137 62.8704 69.075 62.085C68.7364 61.2996 68.567 60.4648 68.567 59.58C68.567 58.6863 68.7364 57.8447 69.075 57.0546" fill="#6F01E4"/>
<path d="M85.1505 65.0238C85.1505 65.2586 85.0668 65.457 84.8998 65.6195C84.7326 65.782 84.5316 65.8633 84.2969 65.8633C84.0619 65.8633 83.861 65.782 83.6939 65.6195C83.5267 65.457 83.4432 65.2586 83.4432 65.0238V49.3707C83.4432 49.1269 83.5267 48.9261 83.6939 48.7681C83.861 48.6103 84.0619 48.5312 84.2969 48.5312C84.5316 48.5312 84.7326 48.6103 84.8998 48.7681C85.0668 48.9261 85.1505 49.1269 85.1505 49.3707V65.0238Z" fill="#6F01E4"/>
<path d="M88.795 59.58C88.795 60.2299 88.9191 60.8416 89.1676 61.4147C89.4159 61.9881 89.7523 62.4892 90.177 62.9178C90.6014 63.3466 91.1027 63.6875 91.681 63.9401C92.2589 64.1929 92.8822 64.3192 93.5507 64.3192C94.219 64.3192 94.8422 64.1929 95.4204 63.9401C95.9983 63.6875 96.4997 63.3466 96.9243 62.9178C97.3488 62.4892 97.6831 61.9881 97.927 61.4147C98.1708 60.8416 98.2927 60.2299 98.2927 59.58C98.2927 58.9211 98.1708 58.3027 97.927 57.7249C97.6831 57.1473 97.3488 56.644 96.9243 56.2151C96.4997 55.7865 95.9983 55.4479 95.4204 55.1996C94.8422 54.9514 94.219 54.8272 93.5507 54.8272C92.8912 54.8272 92.2724 54.9514 91.6945 55.1996C91.1163 55.4479 90.6127 55.7865 90.1838 56.2151C89.7547 56.644 89.4159 57.1473 89.1676 57.7249C88.9191 58.3027 88.795 58.9211 88.795 59.58ZM87.0879 59.58C87.0879 58.6863 87.2573 57.8447 87.5959 57.0546C87.9346 56.2648 88.3975 55.5787 88.9847 54.9964C89.5718 54.4142 90.2583 53.9538 91.0441 53.6153C91.8299 53.2768 92.6653 53.1075 93.5507 53.1075C94.4358 53.1075 95.2668 53.2746 96.0436 53.6085C96.8204 53.9426 97.5002 54.3962 98.0827 54.9693C98.6653 55.5427 99.126 56.2174 99.4648 56.9937C99.8035 57.7702 99.9817 58.6006 100 59.4852V59.5123V59.58V64.9828C100 65.2265 99.9163 65.4342 99.7493 65.6056C99.5821 65.7772 99.3767 65.8629 99.1328 65.8629C98.8889 65.8629 98.6878 65.7772 98.5298 65.6056C98.3718 65.4342 98.2927 65.2265 98.2927 64.9828L98.2792 63.8183C97.6831 64.4773 96.9807 65.0098 96.1723 65.416C95.3639 65.8223 94.49 66.0254 93.5507 66.0254C92.6653 66.0254 91.8299 65.8561 91.0441 65.5176C90.2583 65.1791 89.5718 64.7187 88.9847 64.1365C88.3975 63.5542 87.9346 62.8704 87.5959 62.085C87.2573 61.2996 87.0879 60.4648 87.0879 59.58" fill="#6F01E4"/>
</svg>
