<svg width="15" height="16" viewBox="0 0 15 16" fill="none" xmlns="http://www.w3.org/2000/svg">
<path fill-rule="evenodd" clip-rule="evenodd" d="M7.02798 2.20531C6.76549 2.54808 6.46921 3.07692 6.03885 3.84895L5.82038 4.24086C5.80722 4.26448 5.79421 4.28788 5.78134 4.31105C5.58085 4.67185 5.41163 4.97638 5.13896 5.18337C4.86335 5.39259 4.52737 5.4681 4.1369 5.55585C4.1118 5.56149 4.08649 5.56718 4.06094 5.57296L3.63671 5.66894C2.79983 5.8583 2.2305 5.98858 1.84055 6.14226C1.46001 6.29222 1.37969 6.41509 1.34907 6.51355C1.31676 6.61745 1.3158 6.7764 1.54329 7.13778C1.77419 7.50457 2.16372 7.96207 2.73341 8.62824L3.02262 8.96644C3.03943 8.98609 3.05609 9.00552 3.07258 9.02476C3.34125 9.33816 3.56527 9.59947 3.66803 9.92992C3.77017 10.2584 3.73632 10.6035 3.69527 11.022C3.69276 11.0477 3.69021 11.0736 3.68767 11.0998L3.64394 11.5511C3.55788 12.4392 3.49985 13.0507 3.51948 13.4912C3.53906 13.9309 3.63193 14.0524 3.70576 14.1085C3.77144 14.1583 3.89283 14.2135 4.28832 14.1002C4.69023 13.985 5.2244 13.7407 6.00801 13.3799L6.40522 13.197C6.42968 13.1857 6.45391 13.1745 6.47793 13.1634C6.84113 12.9955 7.15623 12.8498 7.50001 12.8498C7.84379 12.8498 8.15889 12.9955 8.52209 13.1634C8.54611 13.1745 8.57034 13.1857 8.5948 13.197L8.99201 13.3799C9.77563 13.7407 10.3098 13.985 10.7117 14.1002C11.1072 14.2135 11.2286 14.1583 11.2943 14.1085C11.3681 14.0524 11.461 13.9309 11.4805 13.4912C11.5002 13.0507 11.4421 12.4392 11.3561 11.5511L11.3124 11.0998C11.3098 11.0736 11.3073 11.0477 11.3047 11.022C11.2637 10.6035 11.2298 10.2584 11.332 9.92992C11.4347 9.59947 11.6588 9.33815 11.9275 9.02475C11.9439 9.00552 11.9606 8.98609 11.9774 8.96644L12.2666 8.62824C12.8363 7.96207 13.2258 7.50457 13.4567 7.13778C13.6842 6.7764 13.6833 6.61745 13.6509 6.51355C13.6203 6.41509 13.54 6.29222 13.1595 6.14226C12.7695 5.98858 12.2002 5.8583 11.3633 5.66894L10.9391 5.57296C10.9135 5.56718 10.8882 5.56149 10.8631 5.55585C10.4726 5.4681 10.1367 5.39259 9.86106 5.18337C9.58839 4.97638 9.41917 4.67185 9.21868 4.31105C9.20581 4.28788 9.19281 4.26448 9.17964 4.24086L8.96117 3.84895C8.53081 3.07692 8.23453 2.54808 7.97204 2.20531C7.7098 1.86287 7.57585 1.83325 7.50001 1.83325C7.42417 1.83325 7.29022 1.86287 7.02798 2.20531ZM6.23404 1.59732C6.55183 1.18234 6.94461 0.833252 7.50001 0.833252C8.05541 0.833252 8.44819 1.18234 8.76598 1.59732C9.07824 2.00507 9.40935 2.5991 9.81403 3.32509L10.0531 3.75396C10.3148 4.22341 10.3817 4.32313 10.4657 4.38688C10.5465 4.44824 10.6508 4.48245 11.1598 4.59761L11.6264 4.7032C12.4102 4.88051 13.0559 5.02658 13.5261 5.21189C14.0142 5.40426 14.4414 5.68778 14.6058 6.2166C14.7686 6.73997 14.5857 7.22147 14.303 7.67052C14.0283 8.10683 13.5896 8.61982 13.0537 9.24644L12.7374 9.61636C12.3927 10.0194 12.3207 10.118 12.2869 10.2269C12.2524 10.3378 12.2556 10.4661 12.3077 11.0034L12.3554 11.4955C12.4365 12.3328 12.5027 13.0157 12.4796 13.5357C12.456 14.065 12.3358 14.5734 11.8989 14.905C11.4539 15.2428 10.9361 15.2047 10.4363 15.0615C9.95159 14.9226 9.34737 14.6444 8.61367 14.3066L8.17657 14.1053C7.69835 13.8851 7.59596 13.8498 7.50001 13.8498C7.40406 13.8498 7.30168 13.8851 6.82345 14.1053L6.38635 14.3066C5.65265 14.6444 5.04843 14.9226 4.56376 15.0615C4.06391 15.2047 3.54613 15.2428 3.10112 14.905C2.66427 14.5734 2.54405 14.065 2.52047 13.5357C2.4973 13.0157 2.56349 12.3328 2.64465 11.4955L2.69233 11.0034C2.7444 10.4661 2.74765 10.3378 2.71314 10.2269C2.67929 10.118 2.60729 10.0194 2.26262 9.61636L1.9463 9.24646C1.4104 8.61983 0.971685 8.10684 0.697017 7.67052C0.414329 7.22147 0.231425 6.73997 0.394177 6.2166C0.558624 5.68778 0.985778 5.40426 1.4739 5.21189C1.94414 5.02658 2.58983 4.88051 3.37358 4.7032L3.41603 4.6936L3.84026 4.59761C4.34922 4.48246 4.45349 4.44824 4.53432 4.38688C4.61829 4.32313 4.68523 4.22341 4.94693 3.75396L5.186 3.32509C5.59067 2.59909 5.92179 2.00507 6.23404 1.59732Z" fill="#4B108D"/>
</svg>
