<svg width="17" height="16" viewBox="0 0 17 16" fill="none" xmlns="http://www.w3.org/2000/svg">
<path d="M6.60178 3.6055C7.44622 2.09067 7.86843 1.33325 8.49967 1.33325C9.13092 1.33325 9.55313 2.09067 10.3976 3.6055L10.616 3.99741C10.856 4.42788 10.976 4.64311 11.163 4.78512C11.3501 4.92714 11.5831 4.97985 12.0491 5.08528L12.4733 5.18127C14.1131 5.55229 14.933 5.7378 15.1281 6.36507C15.3231 6.99235 14.7642 7.64597 13.6463 8.9532L13.3571 9.2914C13.0394 9.66288 12.8806 9.84861 12.8091 10.0784C12.7376 10.3082 12.7617 10.556 12.8097 11.0516L12.8534 11.5028C13.0224 13.247 13.1069 14.1191 12.5962 14.5067C12.0856 14.8944 11.3179 14.5409 9.78256 13.834L9.38535 13.6511C8.94906 13.4503 8.73091 13.3498 8.49967 13.3498C8.26844 13.3498 8.05029 13.4503 7.614 13.6511L7.21679 13.834C5.68146 14.5409 4.91379 14.8944 4.40311 14.5067C3.89242 14.1191 3.97693 13.247 4.14594 11.5029L4.18966 11.0516C4.23769 10.556 4.26171 10.3082 4.19025 10.0784C4.11879 9.84861 3.95996 9.66288 3.64229 9.2914L3.35307 8.9532C2.23517 7.64597 1.67622 6.99235 1.87129 6.36507C2.06635 5.7378 2.88625 5.55229 4.52603 5.18127L4.95027 5.08528C5.41624 4.97985 5.64923 4.92714 5.8363 4.78512C6.02338 4.64311 6.14336 4.42788 6.38332 3.99741L6.60178 3.6055Z" fill="#4B108D"/>
</svg>
