<svg width="10" height="9" viewBox="0 0 10 9" fill="none" xmlns="http://www.w3.org/2000/svg">
<path d="M4.64335 1.31117C4.75561 0.965677 5.24439 0.965679 5.35665 1.31117L5.82205 2.74354C5.97266 3.20707 6.40461 3.5209 6.89199 3.5209H8.39808C8.76135 3.5209 8.91239 3.98575 8.6185 4.19928L7.40005 5.08453C7.00575 5.37101 6.84076 5.8788 6.99137 6.34232L7.45677 7.77469C7.56903 8.12019 7.1736 8.40748 6.87971 8.19396L5.66126 7.3087C5.26696 7.02223 4.73304 7.02223 4.33874 7.3087L3.12029 8.19396C2.8264 8.40748 2.43097 8.12019 2.54323 7.77469L3.00863 6.34232C3.15924 5.8788 2.99425 5.37101 2.59995 5.08453L1.3815 4.19928C1.08761 3.98575 1.23865 3.5209 1.60192 3.5209H3.10801C3.59539 3.5209 4.02734 3.20707 4.17795 2.74354L4.64335 1.31117Z" stroke="white" stroke-width="0.75"/>
</svg>
